G75*
%MOIN*%
%OFA0B0*%
%FSLAX25Y25*%
%IPPOS*%
%LPD*%
%AMOC8*
5,1,8,0,0,1.08239X$1,22.5*
%
%ADD10C,0.00000*%
%ADD11C,0.00400*%
%ADD12C,0.00500*%
D10*
X0005000Y0001500D02*
X0055000Y0001500D01*
X0055000Y0061500D01*
X0005000Y0061500D01*
X0005000Y0001500D01*
D11*
X0027835Y0004967D02*
X0028602Y0004200D01*
X0030137Y0004200D01*
X0030904Y0004967D01*
X0030904Y0008037D01*
X0030137Y0008804D01*
X0028602Y0008804D01*
X0027835Y0008037D01*
X0032439Y0008804D02*
X0035508Y0008804D01*
X0035508Y0004200D01*
X0032439Y0004200D01*
X0033973Y0006502D02*
X0035508Y0006502D01*
X0037043Y0008037D02*
X0037810Y0008804D01*
X0039344Y0008804D01*
X0040112Y0008037D01*
X0040112Y0004967D01*
X0039344Y0004200D01*
X0037810Y0004200D01*
X0037043Y0004967D01*
X0037810Y0014200D02*
X0039344Y0014200D01*
X0040112Y0014967D01*
X0039344Y0016502D02*
X0037810Y0016502D01*
X0037043Y0015735D01*
X0037043Y0014967D01*
X0037810Y0014200D01*
X0035508Y0014967D02*
X0034741Y0014200D01*
X0033206Y0014200D01*
X0032439Y0014967D01*
X0030904Y0014200D02*
X0027835Y0014200D01*
X0030904Y0014200D02*
X0030904Y0018804D01*
X0032439Y0018037D02*
X0033206Y0018804D01*
X0034741Y0018804D01*
X0035508Y0018037D01*
X0035508Y0014967D01*
X0037043Y0018037D02*
X0037810Y0018804D01*
X0039344Y0018804D01*
X0040112Y0018037D01*
X0040112Y0017269D01*
X0039344Y0016502D01*
X0039344Y0024200D02*
X0037810Y0024200D01*
X0037043Y0024967D01*
X0037043Y0025735D01*
X0037810Y0026502D01*
X0039344Y0026502D01*
X0040112Y0027269D01*
X0040112Y0028037D01*
X0039344Y0028804D01*
X0037810Y0028804D01*
X0037043Y0028037D01*
X0035508Y0028804D02*
X0033206Y0028804D01*
X0032439Y0028037D01*
X0032439Y0024967D01*
X0033206Y0024200D01*
X0035508Y0024200D01*
X0035508Y0028804D01*
X0039344Y0024200D02*
X0040112Y0024967D01*
X0039344Y0034200D02*
X0037810Y0034200D01*
X0037043Y0034967D01*
X0037043Y0036502D01*
X0038577Y0036502D01*
X0040112Y0038037D02*
X0040112Y0034967D01*
X0039344Y0034200D01*
X0040112Y0038037D02*
X0039344Y0038804D01*
X0037810Y0038804D01*
X0037043Y0038037D01*
X0035508Y0038804D02*
X0032439Y0034200D01*
X0032439Y0038804D01*
X0030904Y0038804D02*
X0028602Y0038804D01*
X0027835Y0038037D01*
X0027835Y0034967D01*
X0028602Y0034200D01*
X0030904Y0034200D01*
X0030904Y0038804D01*
X0035508Y0038804D02*
X0035508Y0034200D01*
X0029369Y0028804D02*
X0030904Y0027269D01*
X0030904Y0024200D01*
X0030904Y0026502D02*
X0027835Y0026502D01*
X0027835Y0027269D02*
X0027835Y0024200D01*
X0027835Y0027269D02*
X0029369Y0028804D01*
X0033973Y0044200D02*
X0032439Y0045735D01*
X0032439Y0048804D01*
X0035508Y0048804D02*
X0035508Y0045735D01*
X0033973Y0044200D01*
X0037043Y0044967D02*
X0037810Y0044200D01*
X0039344Y0044200D01*
X0040112Y0044967D01*
X0040112Y0046502D02*
X0038577Y0047269D01*
X0037810Y0047269D01*
X0037043Y0046502D01*
X0037043Y0044967D01*
X0040112Y0046502D02*
X0040112Y0048804D01*
X0037043Y0048804D01*
X0037043Y0054200D02*
X0037043Y0058804D01*
X0035508Y0058804D02*
X0033206Y0058804D01*
X0032439Y0058037D01*
X0032439Y0056502D01*
X0033206Y0055735D01*
X0035508Y0055735D01*
X0035508Y0054200D02*
X0035508Y0058804D01*
X0037043Y0056502D02*
X0040112Y0056502D01*
X0040112Y0054200D02*
X0040112Y0058804D01*
X0030904Y0058804D02*
X0030904Y0054200D01*
X0028602Y0054200D01*
X0027835Y0054967D01*
X0027835Y0058037D01*
X0028602Y0058804D01*
X0030904Y0058804D01*
D12*
X0020748Y0061028D02*
X0020748Y0001972D01*
X0005000Y0001972D01*
X0005000Y0061028D01*
X0020748Y0061028D01*
M02*
