G75*
%MOIN*%
%OFA0B0*%
%FSLAX25Y25*%
%IPPOS*%
%LPD*%
%AMOC8*
5,1,8,0,0,1.08239X$1,22.5*
%
%ADD10C,0.00000*%
%ADD11C,0.00300*%
D10*
X0012123Y0001500D02*
X0110910Y0001500D01*
X0111252Y0001504D01*
X0111593Y0001517D01*
X0111934Y0001537D01*
X0112275Y0001566D01*
X0112615Y0001603D01*
X0112953Y0001648D01*
X0113291Y0001702D01*
X0113627Y0001763D01*
X0113962Y0001833D01*
X0114294Y0001911D01*
X0114625Y0001997D01*
X0114954Y0002090D01*
X0115280Y0002192D01*
X0115604Y0002302D01*
X0115925Y0002419D01*
X0116243Y0002544D01*
X0116558Y0002677D01*
X0116869Y0002817D01*
X0117178Y0002965D01*
X0117482Y0003120D01*
X0117783Y0003282D01*
X0118079Y0003452D01*
X0118372Y0003629D01*
X0118660Y0003813D01*
X0118944Y0004003D01*
X0119222Y0004201D01*
X0119496Y0004405D01*
X0119766Y0004616D01*
X0120029Y0004833D01*
X0120288Y0005057D01*
X0120541Y0005286D01*
X0120788Y0005522D01*
X0121030Y0005764D01*
X0121266Y0006011D01*
X0121495Y0006264D01*
X0121719Y0006523D01*
X0121936Y0006786D01*
X0122147Y0007056D01*
X0122351Y0007330D01*
X0122549Y0007608D01*
X0122739Y0007892D01*
X0122923Y0008180D01*
X0123100Y0008473D01*
X0123270Y0008769D01*
X0123432Y0009070D01*
X0123587Y0009374D01*
X0123735Y0009683D01*
X0123875Y0009994D01*
X0124008Y0010309D01*
X0124133Y0010627D01*
X0124250Y0010948D01*
X0124360Y0011272D01*
X0124462Y0011598D01*
X0124555Y0011927D01*
X0124641Y0012258D01*
X0124719Y0012590D01*
X0124789Y0012925D01*
X0124850Y0013261D01*
X0124904Y0013599D01*
X0124949Y0013937D01*
X0124986Y0014277D01*
X0125015Y0014618D01*
X0125035Y0014959D01*
X0125048Y0015300D01*
X0125052Y0015642D01*
X0125052Y0083472D01*
X0125047Y0083908D01*
X0125031Y0084343D01*
X0125005Y0084778D01*
X0124968Y0085212D01*
X0124921Y0085645D01*
X0124863Y0086077D01*
X0124795Y0086507D01*
X0124716Y0086936D01*
X0124627Y0087362D01*
X0124528Y0087786D01*
X0124419Y0088208D01*
X0124299Y0088627D01*
X0124170Y0089043D01*
X0124030Y0089456D01*
X0123880Y0089865D01*
X0123721Y0090270D01*
X0123552Y0090672D01*
X0123373Y0091069D01*
X0123185Y0091462D01*
X0122987Y0091850D01*
X0122780Y0092233D01*
X0122564Y0092611D01*
X0122338Y0092984D01*
X0122104Y0093352D01*
X0121861Y0093713D01*
X0121609Y0094069D01*
X0121349Y0094418D01*
X0121080Y0094761D01*
X0120803Y0095097D01*
X0120518Y0095427D01*
X0120225Y0095749D01*
X0119925Y0096065D01*
X0119617Y0096373D01*
X0119301Y0096673D01*
X0118979Y0096966D01*
X0118649Y0097251D01*
X0118313Y0097528D01*
X0117970Y0097797D01*
X0117621Y0098057D01*
X0117265Y0098309D01*
X0116904Y0098552D01*
X0116536Y0098786D01*
X0116163Y0099012D01*
X0115785Y0099228D01*
X0115402Y0099435D01*
X0115014Y0099633D01*
X0114621Y0099821D01*
X0114224Y0100000D01*
X0113822Y0100169D01*
X0113417Y0100328D01*
X0113008Y0100478D01*
X0112595Y0100618D01*
X0112179Y0100747D01*
X0111760Y0100867D01*
X0111338Y0100976D01*
X0110914Y0101075D01*
X0110488Y0101164D01*
X0110059Y0101243D01*
X0109629Y0101311D01*
X0109197Y0101369D01*
X0108764Y0101416D01*
X0108330Y0101453D01*
X0107895Y0101479D01*
X0107460Y0101495D01*
X0107024Y0101500D01*
X0019194Y0101500D01*
X0018847Y0101496D01*
X0018500Y0101483D01*
X0018154Y0101462D01*
X0017808Y0101432D01*
X0017463Y0101394D01*
X0017119Y0101347D01*
X0016776Y0101292D01*
X0016435Y0101228D01*
X0016095Y0101156D01*
X0015758Y0101076D01*
X0015422Y0100988D01*
X0015089Y0100891D01*
X0014758Y0100786D01*
X0014430Y0100673D01*
X0014104Y0100552D01*
X0013782Y0100424D01*
X0013463Y0100287D01*
X0013148Y0100142D01*
X0012836Y0099990D01*
X0012528Y0099830D01*
X0012223Y0099663D01*
X0011924Y0099488D01*
X0011628Y0099306D01*
X0011337Y0099117D01*
X0011051Y0098920D01*
X0010770Y0098717D01*
X0010493Y0098507D01*
X0010222Y0098290D01*
X0009957Y0098066D01*
X0009697Y0097837D01*
X0009443Y0097600D01*
X0009194Y0097358D01*
X0008952Y0097109D01*
X0008715Y0096855D01*
X0008486Y0096595D01*
X0008262Y0096330D01*
X0008045Y0096059D01*
X0007835Y0095782D01*
X0007632Y0095501D01*
X0007435Y0095215D01*
X0007246Y0094924D01*
X0007064Y0094628D01*
X0006889Y0094329D01*
X0006722Y0094024D01*
X0006562Y0093716D01*
X0006410Y0093404D01*
X0006265Y0093089D01*
X0006128Y0092770D01*
X0006000Y0092448D01*
X0005879Y0092122D01*
X0005766Y0091794D01*
X0005661Y0091463D01*
X0005564Y0091130D01*
X0005476Y0090794D01*
X0005396Y0090457D01*
X0005324Y0090117D01*
X0005260Y0089776D01*
X0005205Y0089433D01*
X0005158Y0089089D01*
X0005120Y0088744D01*
X0005090Y0088398D01*
X0005069Y0088052D01*
X0005056Y0087705D01*
X0005052Y0087358D01*
X0005052Y0008571D01*
X0005054Y0008400D01*
X0005060Y0008229D01*
X0005071Y0008059D01*
X0005085Y0007889D01*
X0005104Y0007719D01*
X0005126Y0007549D01*
X0005153Y0007381D01*
X0005184Y0007212D01*
X0005219Y0007045D01*
X0005257Y0006879D01*
X0005300Y0006713D01*
X0005347Y0006549D01*
X0005398Y0006386D01*
X0005453Y0006224D01*
X0005512Y0006064D01*
X0005574Y0005905D01*
X0005640Y0005747D01*
X0005710Y0005591D01*
X0005784Y0005437D01*
X0005862Y0005285D01*
X0005943Y0005135D01*
X0006028Y0004986D01*
X0006116Y0004840D01*
X0006208Y0004696D01*
X0006304Y0004554D01*
X0006402Y0004415D01*
X0006505Y0004278D01*
X0006610Y0004143D01*
X0006719Y0004011D01*
X0006830Y0003882D01*
X0006945Y0003756D01*
X0007063Y0003632D01*
X0007184Y0003511D01*
X0007308Y0003393D01*
X0007434Y0003278D01*
X0007563Y0003167D01*
X0007695Y0003058D01*
X0007830Y0002953D01*
X0007967Y0002850D01*
X0008106Y0002752D01*
X0008248Y0002656D01*
X0008392Y0002564D01*
X0008538Y0002476D01*
X0008687Y0002391D01*
X0008837Y0002310D01*
X0008989Y0002232D01*
X0009143Y0002158D01*
X0009299Y0002088D01*
X0009457Y0002022D01*
X0009616Y0001960D01*
X0009776Y0001901D01*
X0009938Y0001846D01*
X0010101Y0001795D01*
X0010265Y0001748D01*
X0010431Y0001705D01*
X0010597Y0001667D01*
X0010764Y0001632D01*
X0010933Y0001601D01*
X0011101Y0001574D01*
X0011271Y0001552D01*
X0011441Y0001533D01*
X0011611Y0001519D01*
X0011781Y0001508D01*
X0011952Y0001502D01*
X0012123Y0001500D01*
D11*
X0016892Y0074650D02*
X0016275Y0075267D01*
X0016275Y0077736D01*
X0016892Y0078353D01*
X0018744Y0078353D01*
X0018744Y0074650D01*
X0016892Y0074650D01*
X0019965Y0074650D02*
X0021199Y0074650D01*
X0020582Y0074650D02*
X0020582Y0078353D01*
X0021199Y0078353D02*
X0019965Y0078353D01*
X0022414Y0077736D02*
X0023031Y0078353D01*
X0024882Y0078353D01*
X0024882Y0074650D01*
X0023031Y0074650D01*
X0022414Y0075267D01*
X0022414Y0077736D01*
X0026097Y0078353D02*
X0028566Y0078353D01*
X0028566Y0074650D01*
X0026097Y0074650D01*
X0027331Y0076502D02*
X0028566Y0076502D01*
X0033466Y0077119D02*
X0034084Y0077119D01*
X0035318Y0075884D01*
X0035318Y0074650D02*
X0035318Y0077119D01*
X0036532Y0076502D02*
X0037150Y0077119D01*
X0038384Y0077119D01*
X0039001Y0076502D01*
X0039001Y0075267D01*
X0038384Y0074650D01*
X0037150Y0074650D01*
X0036532Y0075267D01*
X0036532Y0076502D01*
X0040222Y0076502D02*
X0041457Y0076502D01*
X0040839Y0077736D02*
X0040839Y0074650D01*
X0040839Y0077736D02*
X0040222Y0078353D01*
X0039602Y0080650D02*
X0042070Y0080650D01*
X0039602Y0083119D01*
X0039602Y0083736D01*
X0040219Y0084353D01*
X0041453Y0084353D01*
X0042070Y0083736D01*
X0038387Y0082502D02*
X0035919Y0082502D01*
X0036536Y0084353D02*
X0038387Y0082502D01*
X0036536Y0084353D02*
X0036536Y0080650D01*
X0034704Y0080650D02*
X0032235Y0080650D01*
X0031021Y0081267D02*
X0030404Y0080650D01*
X0029169Y0080650D01*
X0028552Y0081267D01*
X0027338Y0081267D02*
X0024869Y0083736D01*
X0024869Y0081267D01*
X0025486Y0080650D01*
X0026721Y0080650D01*
X0027338Y0081267D01*
X0027338Y0083736D01*
X0026721Y0084353D01*
X0025486Y0084353D01*
X0024869Y0083736D01*
X0023655Y0083736D02*
X0023038Y0084353D01*
X0021803Y0084353D01*
X0021186Y0083736D01*
X0023655Y0081267D01*
X0023038Y0080650D01*
X0021803Y0080650D01*
X0021186Y0081267D01*
X0021186Y0083736D01*
X0023655Y0083736D02*
X0023655Y0081267D01*
X0019972Y0080650D02*
X0017503Y0084353D01*
X0016288Y0083736D02*
X0016288Y0083119D01*
X0015671Y0082502D01*
X0014437Y0082502D01*
X0013820Y0081884D01*
X0013820Y0081267D01*
X0014437Y0080650D01*
X0015671Y0080650D01*
X0016288Y0081267D01*
X0012605Y0080650D02*
X0012605Y0084353D01*
X0010137Y0080650D01*
X0010137Y0084353D01*
X0013820Y0083736D02*
X0014437Y0084353D01*
X0015671Y0084353D01*
X0016288Y0083736D01*
X0019348Y0086650D02*
X0020582Y0086650D01*
X0021199Y0087267D01*
X0018731Y0089736D01*
X0018731Y0087267D01*
X0019348Y0086650D01*
X0021199Y0087267D02*
X0021199Y0089736D01*
X0020582Y0090353D01*
X0019348Y0090353D01*
X0018731Y0089736D01*
X0018430Y0092650D02*
X0018430Y0094502D01*
X0017813Y0095119D01*
X0017196Y0094502D01*
X0017196Y0092650D01*
X0019665Y0092650D02*
X0019665Y0095119D01*
X0019048Y0095119D01*
X0018430Y0094502D01*
X0020879Y0094502D02*
X0020879Y0093267D01*
X0021496Y0092650D01*
X0022731Y0092650D01*
X0023348Y0093267D01*
X0023348Y0094502D01*
X0022731Y0095119D01*
X0021496Y0095119D01*
X0020879Y0094502D01*
X0024562Y0095119D02*
X0026414Y0095119D01*
X0027031Y0094502D01*
X0027031Y0093267D01*
X0026414Y0092650D01*
X0024562Y0092650D01*
X0025490Y0090353D02*
X0025490Y0086650D01*
X0026724Y0086650D02*
X0024255Y0086650D01*
X0023041Y0086650D02*
X0022424Y0086650D01*
X0022424Y0087267D01*
X0023041Y0087267D01*
X0023041Y0086650D01*
X0026724Y0089119D02*
X0025490Y0090353D01*
X0027938Y0089119D02*
X0029173Y0086650D01*
X0030407Y0089119D01*
X0030704Y0092650D02*
X0031939Y0092650D01*
X0032556Y0093267D01*
X0032556Y0094502D01*
X0031939Y0095119D01*
X0030704Y0095119D01*
X0030087Y0094502D01*
X0030087Y0093884D01*
X0032556Y0093884D01*
X0033773Y0095119D02*
X0034391Y0095119D01*
X0035625Y0093884D01*
X0036839Y0093884D02*
X0038691Y0093884D01*
X0039308Y0093267D01*
X0038691Y0092650D01*
X0036839Y0092650D01*
X0036839Y0094502D01*
X0037457Y0095119D01*
X0038691Y0095119D01*
X0040523Y0095119D02*
X0040523Y0093267D01*
X0041140Y0092650D01*
X0041757Y0093267D01*
X0042374Y0092650D01*
X0042991Y0093267D01*
X0042991Y0095119D01*
X0044206Y0095119D02*
X0046057Y0095119D01*
X0046674Y0094502D01*
X0046674Y0093267D01*
X0046057Y0092650D01*
X0044206Y0092650D01*
X0044206Y0096353D01*
X0047892Y0095119D02*
X0048509Y0095119D01*
X0049744Y0093884D01*
X0050958Y0093884D02*
X0052810Y0093884D01*
X0053427Y0093267D01*
X0052810Y0092650D01*
X0050958Y0092650D01*
X0050958Y0094502D01*
X0051575Y0095119D01*
X0052810Y0095119D01*
X0054641Y0094502D02*
X0054641Y0092650D01*
X0057110Y0092650D02*
X0057110Y0096353D01*
X0056493Y0095119D02*
X0055258Y0095119D01*
X0054641Y0094502D01*
X0056493Y0095119D02*
X0057110Y0094502D01*
X0058324Y0095119D02*
X0060176Y0095119D01*
X0060793Y0094502D01*
X0060793Y0093267D01*
X0060176Y0092650D01*
X0058324Y0092650D01*
X0058324Y0092033D02*
X0058324Y0095119D01*
X0062008Y0094502D02*
X0062008Y0092650D01*
X0064476Y0092650D02*
X0064476Y0095119D01*
X0062625Y0095119D01*
X0062008Y0094502D01*
X0065697Y0092650D02*
X0066932Y0092650D01*
X0066315Y0092650D02*
X0066315Y0095119D01*
X0066932Y0095119D01*
X0068149Y0095119D02*
X0068767Y0095119D01*
X0070001Y0093884D01*
X0070001Y0092650D02*
X0070001Y0095119D01*
X0071215Y0095119D02*
X0071215Y0092650D01*
X0073067Y0092650D01*
X0073684Y0093267D01*
X0073684Y0095119D01*
X0074899Y0095119D02*
X0076750Y0095119D01*
X0077367Y0094502D01*
X0077367Y0093267D01*
X0076750Y0092650D01*
X0074899Y0092650D01*
X0074605Y0090353D02*
X0072753Y0090353D01*
X0072136Y0089736D01*
X0072136Y0087267D01*
X0072753Y0086650D01*
X0074605Y0086650D01*
X0074605Y0090353D01*
X0075819Y0090353D02*
X0075819Y0086650D01*
X0075819Y0088502D02*
X0078288Y0088502D01*
X0078288Y0090353D02*
X0078288Y0086650D01*
X0080730Y0084353D02*
X0083199Y0080650D01*
X0084413Y0080650D02*
X0084413Y0084353D01*
X0086882Y0084353D02*
X0086882Y0080650D01*
X0085648Y0081884D01*
X0084413Y0080650D01*
X0080743Y0078353D02*
X0079509Y0078353D01*
X0080126Y0078353D02*
X0080126Y0074650D01*
X0080743Y0074650D02*
X0079509Y0074650D01*
X0078288Y0074650D02*
X0075819Y0077119D01*
X0075819Y0077736D01*
X0076436Y0078353D01*
X0077671Y0078353D01*
X0078288Y0077736D01*
X0074605Y0077736D02*
X0074605Y0075267D01*
X0073988Y0074650D01*
X0072753Y0074650D01*
X0072136Y0075267D01*
X0072136Y0077736D02*
X0072753Y0078353D01*
X0073988Y0078353D01*
X0074605Y0077736D01*
X0075819Y0074650D02*
X0078288Y0074650D01*
X0075833Y0080650D02*
X0075833Y0084353D01*
X0074598Y0083119D01*
X0073364Y0084353D01*
X0073364Y0080650D01*
X0072149Y0080650D02*
X0070915Y0080650D01*
X0071532Y0080650D02*
X0071532Y0083119D01*
X0072149Y0083119D01*
X0069694Y0082502D02*
X0069694Y0081267D01*
X0069077Y0080650D01*
X0067225Y0080650D01*
X0066011Y0080650D02*
X0066011Y0083119D01*
X0067225Y0083119D02*
X0069077Y0083119D01*
X0069694Y0082502D01*
X0071532Y0084353D02*
X0071532Y0084970D01*
X0070922Y0086650D02*
X0070922Y0090353D01*
X0069687Y0089119D01*
X0068453Y0090353D01*
X0068453Y0086650D01*
X0067239Y0086650D02*
X0066004Y0086650D01*
X0066621Y0086650D02*
X0066621Y0090353D01*
X0066004Y0090353D02*
X0067239Y0090353D01*
X0061100Y0090353D02*
X0061100Y0086650D01*
X0059248Y0086650D01*
X0058631Y0087267D01*
X0058631Y0087884D01*
X0059248Y0088502D01*
X0061100Y0088502D01*
X0059248Y0088502D02*
X0058631Y0089119D01*
X0058631Y0089736D01*
X0059248Y0090353D01*
X0061100Y0090353D01*
X0059559Y0091416D02*
X0058942Y0091416D01*
X0058324Y0092033D01*
X0057417Y0089119D02*
X0057417Y0086650D01*
X0057417Y0087884D02*
X0056183Y0089119D01*
X0055565Y0089119D01*
X0054348Y0088502D02*
X0053730Y0089119D01*
X0052496Y0089119D01*
X0051879Y0088502D01*
X0051879Y0087884D01*
X0054348Y0087884D01*
X0054348Y0087267D02*
X0054348Y0088502D01*
X0054348Y0087267D02*
X0053730Y0086650D01*
X0052496Y0086650D01*
X0050664Y0087267D02*
X0050047Y0087884D01*
X0048196Y0087884D01*
X0048196Y0088502D02*
X0048196Y0086650D01*
X0050047Y0086650D01*
X0050664Y0087267D01*
X0048813Y0089119D02*
X0048196Y0088502D01*
X0048813Y0089119D02*
X0050047Y0089119D01*
X0046981Y0090353D02*
X0046981Y0086650D01*
X0046981Y0087884D02*
X0045130Y0089119D01*
X0043912Y0088502D02*
X0043912Y0087267D01*
X0043295Y0086650D01*
X0042060Y0086650D01*
X0041443Y0087267D01*
X0041443Y0088502D01*
X0042060Y0089119D01*
X0043295Y0089119D01*
X0043912Y0088502D01*
X0045130Y0086650D02*
X0046981Y0087884D01*
X0051275Y0084970D02*
X0051275Y0084353D01*
X0051275Y0083119D02*
X0051275Y0080650D01*
X0051892Y0080650D02*
X0050658Y0080650D01*
X0049437Y0080650D02*
X0047585Y0080650D01*
X0046968Y0081267D01*
X0046968Y0082502D01*
X0047585Y0083119D01*
X0049437Y0083119D01*
X0049437Y0079416D01*
X0048823Y0078353D02*
X0047589Y0077119D01*
X0046354Y0078353D01*
X0046354Y0074650D01*
X0048823Y0074650D02*
X0048823Y0078353D01*
X0050037Y0077736D02*
X0050654Y0078353D01*
X0051889Y0078353D01*
X0052506Y0077736D01*
X0052506Y0075267D01*
X0051889Y0074650D01*
X0050654Y0074650D01*
X0050037Y0075267D01*
X0050037Y0077736D01*
X0053720Y0077736D02*
X0053720Y0076502D01*
X0054338Y0075884D01*
X0056189Y0075884D01*
X0056189Y0074650D02*
X0056189Y0078353D01*
X0054338Y0078353D01*
X0053720Y0077736D01*
X0054955Y0075884D02*
X0053720Y0074650D01*
X0057404Y0076502D02*
X0058021Y0075884D01*
X0059872Y0075884D01*
X0059872Y0074650D02*
X0059872Y0078353D01*
X0058021Y0078353D01*
X0057404Y0077736D01*
X0057404Y0076502D01*
X0061087Y0078353D02*
X0063555Y0078353D01*
X0063555Y0074650D01*
X0061087Y0074650D01*
X0062321Y0076502D02*
X0063555Y0076502D01*
X0064770Y0074650D02*
X0067239Y0074650D01*
X0067239Y0078353D01*
X0064770Y0078353D01*
X0066004Y0076502D02*
X0067239Y0076502D01*
X0062942Y0081267D02*
X0062324Y0080650D01*
X0061090Y0080650D01*
X0060473Y0081267D01*
X0060473Y0082502D01*
X0061090Y0083119D01*
X0062324Y0083119D01*
X0062942Y0082502D01*
X0062942Y0081267D01*
X0064159Y0083119D02*
X0064777Y0083119D01*
X0066011Y0081884D01*
X0059259Y0081267D02*
X0058641Y0080650D01*
X0056790Y0080650D01*
X0055575Y0080650D02*
X0055575Y0084353D01*
X0054958Y0083119D02*
X0053724Y0083119D01*
X0053107Y0082502D01*
X0053107Y0080650D01*
X0051892Y0083119D02*
X0051275Y0083119D01*
X0054958Y0083119D02*
X0055575Y0082502D01*
X0056790Y0083119D02*
X0058641Y0083119D01*
X0059259Y0082502D01*
X0059259Y0081267D01*
X0040229Y0087267D02*
X0039612Y0086650D01*
X0037760Y0086650D01*
X0037760Y0089119D01*
X0036546Y0089119D02*
X0035311Y0089119D01*
X0035929Y0089736D02*
X0035929Y0087267D01*
X0035311Y0086650D01*
X0034704Y0084353D02*
X0034704Y0080650D01*
X0031021Y0081267D02*
X0031021Y0083736D01*
X0030404Y0084353D01*
X0029169Y0084353D01*
X0028552Y0083736D01*
X0040229Y0087267D02*
X0040229Y0089119D01*
X0035625Y0092650D02*
X0035625Y0095119D01*
X0028873Y0093267D02*
X0028873Y0092650D01*
X0028255Y0092650D01*
X0028255Y0093267D01*
X0028873Y0093267D01*
X0049744Y0092650D02*
X0049744Y0095119D01*
X0066315Y0096353D02*
X0066315Y0096970D01*
X0078582Y0094502D02*
X0078582Y0093884D01*
X0081050Y0093884D01*
X0081050Y0093267D02*
X0081050Y0094502D01*
X0080433Y0095119D01*
X0079199Y0095119D01*
X0078582Y0094502D01*
X0080433Y0092650D02*
X0081050Y0093267D01*
X0080433Y0092650D02*
X0079199Y0092650D01*
X0082265Y0093267D02*
X0082882Y0093884D01*
X0084116Y0093884D01*
X0084734Y0094502D01*
X0084116Y0095119D01*
X0082265Y0095119D01*
X0082265Y0093267D02*
X0082882Y0092650D01*
X0084734Y0092650D01*
X0085948Y0093267D02*
X0086565Y0092650D01*
X0087800Y0092650D01*
X0088417Y0093267D01*
X0088417Y0095736D01*
X0087800Y0096353D01*
X0086565Y0096353D01*
X0085948Y0095736D01*
X0085948Y0094502D01*
X0086565Y0093884D01*
X0086565Y0095119D01*
X0087800Y0095119D01*
X0087800Y0093884D01*
X0086565Y0093884D01*
X0089631Y0092650D02*
X0092100Y0092650D01*
X0089631Y0095119D01*
X0092100Y0095119D01*
X0093321Y0095119D02*
X0094555Y0095119D01*
X0093938Y0095736D02*
X0093938Y0093267D01*
X0093321Y0092650D01*
X0095776Y0092650D02*
X0097011Y0092650D01*
X0096394Y0092650D02*
X0096394Y0095119D01*
X0097011Y0095119D01*
X0098232Y0094502D02*
X0099466Y0094502D01*
X0100681Y0094502D02*
X0100681Y0093884D01*
X0103149Y0093884D01*
X0103149Y0093267D02*
X0103149Y0094502D01*
X0102532Y0095119D01*
X0101298Y0095119D01*
X0100681Y0094502D01*
X0098849Y0095736D02*
X0098232Y0096353D01*
X0098849Y0095736D02*
X0098849Y0092650D01*
X0101298Y0092650D02*
X0102532Y0092650D01*
X0103149Y0093267D01*
X0104364Y0093267D02*
X0104981Y0092650D01*
X0106215Y0092650D01*
X0106832Y0093267D01*
X0106832Y0094502D01*
X0106215Y0095119D01*
X0104981Y0095119D01*
X0104364Y0094502D01*
X0104364Y0093267D01*
X0108053Y0092033D02*
X0108671Y0091416D01*
X0109288Y0091416D01*
X0108053Y0092033D02*
X0108053Y0095119D01*
X0108053Y0096353D02*
X0108053Y0096970D01*
X0096394Y0096970D02*
X0096394Y0096353D01*
M02*
