G75*
%MOIN*%
%OFA0B0*%
%FSLAX25Y25*%
%IPPOS*%
%LPD*%
%AMOC8*
5,1,8,0,0,1.08239X$1,22.5*
%
%ADD10R,0.07480X0.01181*%
%ADD11C,0.07677*%
%ADD12OC8,0.06400*%
%ADD13R,0.06102X0.02362*%
%ADD14C,0.01000*%
%ADD15R,0.04000X0.04000*%
D10*
X0039989Y0017799D03*
X0039989Y0019768D03*
X0039989Y0021736D03*
X0039989Y0023705D03*
X0039989Y0025673D03*
X0039989Y0027642D03*
X0039989Y0029610D03*
X0039989Y0031579D03*
X0039989Y0033547D03*
X0039989Y0035516D03*
X0039989Y0037484D03*
X0039989Y0039453D03*
X0039989Y0041421D03*
X0039989Y0043390D03*
X0039989Y0045358D03*
X0039989Y0047327D03*
X0039989Y0049295D03*
X0039989Y0051264D03*
X0039989Y0053232D03*
D11*
X0035052Y0065043D03*
X0015564Y0067406D03*
X0035052Y0007957D03*
X0015564Y0005594D03*
D12*
X0090052Y0016500D03*
X0100052Y0016500D03*
X0100052Y0026500D03*
X0090052Y0026500D03*
X0090052Y0036500D03*
X0100052Y0036500D03*
X0100052Y0046500D03*
X0090052Y0046500D03*
X0090052Y0056500D03*
X0100052Y0056500D03*
X0100052Y0066500D03*
X0090052Y0066500D03*
X0090052Y0076500D03*
X0100052Y0076500D03*
X0100052Y0086500D03*
X0090052Y0086500D03*
D13*
X0071182Y0086500D03*
X0071182Y0081500D03*
X0071182Y0076500D03*
X0071182Y0071500D03*
X0049922Y0071500D03*
X0049922Y0076500D03*
X0049922Y0081500D03*
X0049922Y0086500D03*
D14*
X0007491Y0005476D02*
X0009028Y0003939D01*
X0010787Y0003210D01*
X0010616Y0003545D01*
X0010357Y0004344D01*
X0010238Y0005094D01*
X0015064Y0005094D01*
X0015064Y0006094D01*
X0010238Y0006094D01*
X0010357Y0006845D01*
X0010616Y0007644D01*
X0010998Y0008393D01*
X0011492Y0009072D01*
X0012086Y0009667D01*
X0012766Y0010160D01*
X0013515Y0010542D01*
X0014314Y0010802D01*
X0015064Y0010920D01*
X0015064Y0006095D01*
X0016064Y0006095D01*
X0016064Y0010920D01*
X0016814Y0010802D01*
X0017613Y0010542D01*
X0018362Y0010160D01*
X0019042Y0009667D01*
X0019636Y0009072D01*
X0020130Y0008393D01*
X0020511Y0007644D01*
X0020771Y0006845D01*
X0020890Y0006094D01*
X0016064Y0006094D01*
X0016064Y0005094D01*
X0020890Y0005094D01*
X0020771Y0004344D01*
X0020511Y0003545D01*
X0020234Y0003000D01*
X0033031Y0003000D01*
X0033003Y0003009D01*
X0032254Y0003391D01*
X0031574Y0003885D01*
X0030980Y0004479D01*
X0030486Y0005159D01*
X0030105Y0005907D01*
X0029845Y0006707D01*
X0029726Y0007457D01*
X0034552Y0007457D01*
X0034552Y0008457D01*
X0034552Y0013283D01*
X0033802Y0013164D01*
X0033003Y0012904D01*
X0032254Y0012523D01*
X0031574Y0012029D01*
X0030980Y0011435D01*
X0030486Y0010755D01*
X0030105Y0010006D01*
X0029845Y0009207D01*
X0029726Y0008457D01*
X0034552Y0008457D01*
X0035552Y0008457D01*
X0035552Y0013283D01*
X0036302Y0013164D01*
X0037101Y0012904D01*
X0037850Y0012523D01*
X0038530Y0012029D01*
X0039124Y0011435D01*
X0039618Y0010755D01*
X0040000Y0010006D01*
X0040259Y0009207D01*
X0040378Y0008457D01*
X0035552Y0008457D01*
X0035552Y0007457D01*
X0040378Y0007457D01*
X0040259Y0006707D01*
X0040000Y0005907D01*
X0039618Y0005159D01*
X0039124Y0004479D01*
X0038530Y0003885D01*
X0037850Y0003391D01*
X0037101Y0003009D01*
X0037073Y0003000D01*
X0110910Y0003000D01*
X0112560Y0003108D01*
X0115748Y0003962D01*
X0118606Y0005612D01*
X0120940Y0007946D01*
X0122590Y0010804D01*
X0123444Y0013992D01*
X0123552Y0015642D01*
X0123552Y0083472D01*
X0123411Y0085630D01*
X0122294Y0089797D01*
X0120137Y0093534D01*
X0117086Y0096585D01*
X0113349Y0098742D01*
X0109182Y0099859D01*
X0107024Y0100000D01*
X0019194Y0100000D01*
X0017217Y0099844D01*
X0013455Y0098622D01*
X0010255Y0096297D01*
X0007930Y0093097D01*
X0006708Y0089336D01*
X0006552Y0087358D01*
X0006552Y0008571D01*
X0006659Y0007484D01*
X0007491Y0005476D01*
X0007483Y0005494D02*
X0015064Y0005494D01*
X0015064Y0006493D02*
X0016064Y0006493D01*
X0016064Y0007491D02*
X0015064Y0007491D01*
X0015064Y0008490D02*
X0016064Y0008490D01*
X0016064Y0009488D02*
X0015064Y0009488D01*
X0015064Y0010487D02*
X0016064Y0010487D01*
X0017722Y0010487D02*
X0030350Y0010487D01*
X0029936Y0009488D02*
X0019220Y0009488D01*
X0020059Y0008490D02*
X0029731Y0008490D01*
X0029914Y0006493D02*
X0020827Y0006493D01*
X0020561Y0007491D02*
X0034552Y0007491D01*
X0034552Y0008490D02*
X0035552Y0008490D01*
X0035552Y0009488D02*
X0034552Y0009488D01*
X0034552Y0010487D02*
X0035552Y0010487D01*
X0035552Y0011485D02*
X0034552Y0011485D01*
X0034552Y0012484D02*
X0035552Y0012484D01*
X0037904Y0012484D02*
X0058598Y0012484D01*
X0058694Y0012252D02*
X0058694Y0012252D01*
X0057552Y0015008D01*
X0057552Y0016199D01*
X0044275Y0016199D01*
X0044185Y0016109D01*
X0035793Y0016109D01*
X0035149Y0016753D01*
X0035149Y0018156D01*
X0035049Y0018256D01*
X0034851Y0018598D01*
X0034749Y0018980D01*
X0034749Y0019768D01*
X0039989Y0019768D01*
X0039989Y0019768D01*
X0045229Y0019768D01*
X0045229Y0020136D01*
X0055716Y0020136D01*
X0056425Y0020066D01*
X0057736Y0019523D01*
X0057860Y0019399D01*
X0045229Y0019399D01*
X0045229Y0019768D01*
X0039989Y0019768D01*
X0039989Y0019768D01*
X0034749Y0019768D01*
X0034749Y0020556D01*
X0034851Y0020937D01*
X0035049Y0021279D01*
X0035149Y0021380D01*
X0035149Y0024061D01*
X0035049Y0024162D01*
X0034851Y0024504D01*
X0034749Y0024885D01*
X0034749Y0025673D01*
X0039989Y0025673D01*
X0039989Y0025673D01*
X0039989Y0025673D01*
X0045229Y0025673D01*
X0045229Y0025305D01*
X0063867Y0025305D01*
X0064952Y0024678D01*
X0064952Y0025500D01*
X0064934Y0025640D01*
X0064793Y0025883D01*
X0064551Y0026023D01*
X0064410Y0026042D01*
X0045229Y0026042D01*
X0045229Y0025673D01*
X0039989Y0025673D01*
X0034749Y0025673D01*
X0034749Y0026461D01*
X0034851Y0026843D01*
X0035049Y0027185D01*
X0035149Y0027285D01*
X0035149Y0029967D01*
X0035049Y0030067D01*
X0034851Y0030409D01*
X0034749Y0030791D01*
X0034749Y0031579D01*
X0039989Y0031579D01*
X0039989Y0031579D01*
X0045229Y0031579D01*
X0045229Y0031947D01*
X0066385Y0031947D01*
X0065960Y0031210D01*
X0045229Y0031210D01*
X0045229Y0031579D01*
X0039989Y0031579D01*
X0039989Y0031579D01*
X0034749Y0031579D01*
X0034749Y0032367D01*
X0034851Y0032748D01*
X0035049Y0033090D01*
X0035149Y0033191D01*
X0035149Y0035872D01*
X0035049Y0035973D01*
X0034851Y0036315D01*
X0034749Y0036696D01*
X0034749Y0037484D01*
X0039989Y0037484D01*
X0039989Y0037484D01*
X0039989Y0037484D01*
X0045229Y0037484D01*
X0045229Y0037116D01*
X0069968Y0037116D01*
X0070823Y0037200D01*
X0072399Y0037853D01*
X0045229Y0037853D01*
X0045229Y0037484D01*
X0039989Y0037484D01*
X0034749Y0037484D01*
X0034749Y0038272D01*
X0034851Y0038654D01*
X0035049Y0038996D01*
X0035149Y0039096D01*
X0035149Y0039821D01*
X0033152Y0039821D01*
X0033152Y0039044D01*
X0032508Y0038400D01*
X0027596Y0038400D01*
X0026952Y0039044D01*
X0026952Y0043956D01*
X0027596Y0044600D01*
X0032508Y0044600D01*
X0033152Y0043956D01*
X0033152Y0043021D01*
X0035149Y0043021D01*
X0035149Y0047683D01*
X0035049Y0047784D01*
X0034851Y0048126D01*
X0034749Y0048507D01*
X0034749Y0049295D01*
X0039989Y0049295D01*
X0039989Y0049295D01*
X0039989Y0049295D01*
X0045229Y0049295D01*
X0045229Y0048927D01*
X0055879Y0048927D01*
X0056381Y0048976D01*
X0056952Y0049213D01*
X0056952Y0053956D01*
X0057596Y0054600D01*
X0058452Y0054600D01*
X0058452Y0067386D01*
X0059698Y0071221D01*
X0059698Y0071221D01*
X0062068Y0074484D01*
X0062068Y0074484D01*
X0062068Y0074484D01*
X0065331Y0076854D01*
X0065331Y0076854D01*
X0067031Y0077406D01*
X0067031Y0078137D01*
X0067675Y0078781D01*
X0074689Y0078781D01*
X0075333Y0078137D01*
X0075333Y0074863D01*
X0074689Y0074219D01*
X0067956Y0074219D01*
X0066855Y0073861D01*
X0064443Y0072109D01*
X0062691Y0069697D01*
X0061769Y0066861D01*
X0061652Y0065370D01*
X0061652Y0054600D01*
X0062452Y0054600D01*
X0062452Y0066107D01*
X0063781Y0069315D01*
X0063781Y0069315D01*
X0066237Y0071771D01*
X0066237Y0071771D01*
X0067031Y0072100D01*
X0067031Y0073137D01*
X0067675Y0073781D01*
X0074689Y0073781D01*
X0075333Y0073137D01*
X0075333Y0071488D01*
X0075804Y0071958D01*
X0075804Y0071958D01*
X0078560Y0073100D01*
X0086365Y0073100D01*
X0088082Y0072389D01*
X0085752Y0074719D01*
X0085752Y0078281D01*
X0088271Y0080800D01*
X0091833Y0080800D01*
X0094352Y0078281D01*
X0094352Y0074719D01*
X0091833Y0072200D01*
X0088538Y0072200D01*
X0088791Y0072095D01*
X0088791Y0072095D01*
X0090086Y0070800D01*
X0091833Y0070800D01*
X0094352Y0068281D01*
X0094352Y0064719D01*
X0092833Y0063200D01*
X0095152Y0063200D01*
X0095796Y0063263D01*
X0096794Y0063677D01*
X0095752Y0064719D01*
X0095752Y0068281D01*
X0098271Y0070800D01*
X0101833Y0070800D01*
X0104352Y0068281D01*
X0104352Y0064719D01*
X0101833Y0062200D01*
X0100044Y0062200D01*
X0098834Y0060990D01*
X0098834Y0060990D01*
X0098376Y0060800D01*
X0101833Y0060800D01*
X0104352Y0058281D01*
X0104352Y0054719D01*
X0101833Y0052200D01*
X0098271Y0052200D01*
X0095752Y0054719D01*
X0095752Y0058281D01*
X0098196Y0060725D01*
X0096445Y0060000D01*
X0092633Y0060000D01*
X0094352Y0058281D01*
X0094352Y0054719D01*
X0091833Y0052200D01*
X0088271Y0052200D01*
X0085752Y0054719D01*
X0085752Y0058281D01*
X0087471Y0060000D01*
X0080620Y0060000D01*
X0080003Y0059907D01*
X0078856Y0059361D01*
X0078005Y0058417D01*
X0077580Y0057220D01*
X0077552Y0056628D01*
X0077552Y0056541D01*
X0077584Y0055920D01*
X0077552Y0055885D01*
X0077552Y0039991D01*
X0076397Y0037204D01*
X0076397Y0037204D01*
X0074341Y0035147D01*
X0085752Y0035147D01*
X0085752Y0038281D01*
X0088271Y0040800D01*
X0091567Y0040800D01*
X0091313Y0040905D01*
X0091313Y0040905D01*
X0090018Y0042200D01*
X0088271Y0042200D01*
X0085752Y0044719D01*
X0085752Y0048281D01*
X0088271Y0050800D01*
X0091833Y0050800D01*
X0094352Y0048281D01*
X0094352Y0044719D01*
X0093264Y0043631D01*
X0094389Y0043165D01*
X0095052Y0043100D01*
X0097371Y0043100D01*
X0095752Y0044719D01*
X0095752Y0048281D01*
X0098271Y0050800D01*
X0101833Y0050800D01*
X0104352Y0048281D01*
X0104352Y0044719D01*
X0102733Y0043100D01*
X0105052Y0043100D01*
X0105715Y0043165D01*
X0106941Y0043673D01*
X0107879Y0044611D01*
X0108387Y0045837D01*
X0108452Y0046500D01*
X0108452Y0091500D01*
X0108387Y0092163D01*
X0107879Y0093389D01*
X0106941Y0094327D01*
X0105715Y0094835D01*
X0105052Y0094900D01*
X0050052Y0094900D01*
X0049129Y0094827D01*
X0047374Y0094257D01*
X0045880Y0093172D01*
X0044795Y0091679D01*
X0044225Y0089923D01*
X0044152Y0089000D01*
X0044152Y0054923D01*
X0044185Y0054923D01*
X0044829Y0054278D01*
X0044829Y0052864D01*
X0047316Y0052864D01*
X0048510Y0052958D01*
X0050783Y0053696D01*
X0052715Y0055100D01*
X0054120Y0057033D01*
X0054858Y0059305D01*
X0054952Y0060500D01*
X0054952Y0074007D01*
X0056058Y0078135D01*
X0056058Y0078135D01*
X0058195Y0081835D01*
X0058195Y0081835D01*
X0061217Y0084857D01*
X0061217Y0084857D01*
X0064917Y0086994D01*
X0064917Y0086994D01*
X0067031Y0087560D01*
X0067031Y0088137D01*
X0067675Y0088781D01*
X0074689Y0088781D01*
X0075333Y0088137D01*
X0075333Y0088100D01*
X0085752Y0088100D01*
X0085752Y0088281D01*
X0088271Y0090800D01*
X0091833Y0090800D01*
X0094352Y0088281D01*
X0094352Y0084719D01*
X0091833Y0082200D01*
X0088271Y0082200D01*
X0085752Y0084719D01*
X0085752Y0084900D01*
X0075333Y0084900D01*
X0075333Y0084863D01*
X0074689Y0084219D01*
X0067675Y0084219D01*
X0067608Y0084286D01*
X0066196Y0083908D01*
X0063250Y0082207D01*
X0060845Y0079802D01*
X0059144Y0076856D01*
X0058264Y0073571D01*
X0058152Y0071870D01*
X0058152Y0058784D01*
X0057091Y0055519D01*
X0055074Y0052742D01*
X0055074Y0052742D01*
X0052297Y0050725D01*
X0049032Y0049664D01*
X0049032Y0049664D01*
X0045229Y0049664D01*
X0045229Y0049295D01*
X0039989Y0049295D01*
X0034749Y0049295D01*
X0034749Y0050083D01*
X0034851Y0050465D01*
X0035049Y0050807D01*
X0035149Y0050907D01*
X0035149Y0054278D01*
X0035793Y0054923D01*
X0040952Y0054923D01*
X0040952Y0090441D01*
X0041843Y0093183D01*
X0041843Y0093183D01*
X0043537Y0095515D01*
X0043537Y0095515D01*
X0043537Y0095515D01*
X0045869Y0097209D01*
X0045869Y0097209D01*
X0048611Y0098100D01*
X0106365Y0098100D01*
X0108791Y0097095D01*
X0108791Y0097095D01*
X0108791Y0097095D01*
X0110647Y0095239D01*
X0110647Y0095239D01*
X0111652Y0092813D01*
X0111652Y0045187D01*
X0110647Y0042761D01*
X0110647Y0042761D01*
X0108791Y0040905D01*
X0108791Y0040905D01*
X0106365Y0039900D01*
X0102733Y0039900D01*
X0104352Y0038281D01*
X0104352Y0034719D01*
X0101833Y0032200D01*
X0100086Y0032200D01*
X0098791Y0030905D01*
X0098538Y0030800D01*
X0101833Y0030800D01*
X0104352Y0028281D01*
X0104352Y0024719D01*
X0101833Y0022200D01*
X0100086Y0022200D01*
X0098791Y0020905D01*
X0098791Y0020905D01*
X0098538Y0020800D01*
X0101833Y0020800D01*
X0104352Y0018281D01*
X0104352Y0014719D01*
X0101833Y0012200D01*
X0098271Y0012200D01*
X0096940Y0013531D01*
X0096410Y0012252D01*
X0096410Y0012252D01*
X0094300Y0010142D01*
X0094300Y0010142D01*
X0091544Y0009000D01*
X0063560Y0009000D01*
X0060804Y0010142D01*
X0060804Y0010142D01*
X0058694Y0012252D01*
X0059460Y0011485D02*
X0039074Y0011485D01*
X0039755Y0010487D02*
X0060459Y0010487D01*
X0062382Y0009488D02*
X0040168Y0009488D01*
X0040373Y0008490D02*
X0121253Y0008490D01*
X0121830Y0009488D02*
X0092722Y0009488D01*
X0094645Y0010487D02*
X0122406Y0010487D01*
X0122772Y0011485D02*
X0095644Y0011485D01*
X0096506Y0012484D02*
X0097987Y0012484D01*
X0096989Y0013482D02*
X0096920Y0013482D01*
X0095952Y0016500D02*
X0100052Y0016500D01*
X0104352Y0016478D02*
X0123552Y0016478D01*
X0123552Y0017476D02*
X0104352Y0017476D01*
X0104158Y0018475D02*
X0123552Y0018475D01*
X0123552Y0019473D02*
X0103160Y0019473D01*
X0102161Y0020472D02*
X0123552Y0020472D01*
X0123552Y0021470D02*
X0099356Y0021470D01*
X0102102Y0022469D02*
X0123552Y0022469D01*
X0123552Y0023467D02*
X0103100Y0023467D01*
X0104099Y0024466D02*
X0123552Y0024466D01*
X0123552Y0025464D02*
X0104352Y0025464D01*
X0104352Y0026463D02*
X0123552Y0026463D01*
X0123552Y0027461D02*
X0104352Y0027461D01*
X0104173Y0028460D02*
X0123552Y0028460D01*
X0123552Y0029458D02*
X0103175Y0029458D01*
X0102176Y0030457D02*
X0123552Y0030457D01*
X0123552Y0031455D02*
X0099341Y0031455D01*
X0102087Y0032454D02*
X0123552Y0032454D01*
X0123552Y0033452D02*
X0103086Y0033452D01*
X0104084Y0034451D02*
X0123552Y0034451D01*
X0123552Y0035449D02*
X0104352Y0035449D01*
X0104352Y0036448D02*
X0123552Y0036448D01*
X0123552Y0037446D02*
X0104352Y0037446D01*
X0104188Y0038445D02*
X0123552Y0038445D01*
X0123552Y0039443D02*
X0103190Y0039443D01*
X0105052Y0041500D02*
X0095052Y0041500D01*
X0093732Y0043437D02*
X0097033Y0043437D01*
X0096035Y0044436D02*
X0094069Y0044436D01*
X0094352Y0045434D02*
X0095752Y0045434D01*
X0095752Y0046433D02*
X0094352Y0046433D01*
X0090052Y0046500D02*
X0090054Y0046360D01*
X0090060Y0046220D01*
X0090070Y0046080D01*
X0090083Y0045940D01*
X0090101Y0045801D01*
X0090123Y0045662D01*
X0090148Y0045525D01*
X0090177Y0045387D01*
X0090210Y0045251D01*
X0090247Y0045116D01*
X0090288Y0044982D01*
X0090333Y0044849D01*
X0090381Y0044717D01*
X0090433Y0044587D01*
X0090488Y0044458D01*
X0090547Y0044331D01*
X0090610Y0044205D01*
X0090676Y0044081D01*
X0090745Y0043960D01*
X0090818Y0043840D01*
X0090895Y0043722D01*
X0090974Y0043607D01*
X0091057Y0043493D01*
X0091143Y0043383D01*
X0091232Y0043274D01*
X0091324Y0043168D01*
X0091419Y0043065D01*
X0091516Y0042964D01*
X0091617Y0042867D01*
X0091720Y0042772D01*
X0091826Y0042680D01*
X0091935Y0042591D01*
X0092045Y0042505D01*
X0092159Y0042422D01*
X0092274Y0042343D01*
X0092392Y0042266D01*
X0092512Y0042193D01*
X0092633Y0042124D01*
X0092757Y0042058D01*
X0092883Y0041995D01*
X0093010Y0041936D01*
X0093139Y0041881D01*
X0093269Y0041829D01*
X0093401Y0041781D01*
X0093534Y0041736D01*
X0093668Y0041695D01*
X0093803Y0041658D01*
X0093939Y0041625D01*
X0094077Y0041596D01*
X0094214Y0041571D01*
X0094353Y0041549D01*
X0094492Y0041531D01*
X0094632Y0041518D01*
X0094772Y0041508D01*
X0094912Y0041502D01*
X0095052Y0041500D01*
X0090778Y0041440D02*
X0077552Y0041440D01*
X0077552Y0040442D02*
X0087913Y0040442D01*
X0086914Y0039443D02*
X0077325Y0039443D01*
X0076911Y0038445D02*
X0085916Y0038445D01*
X0085752Y0037446D02*
X0076498Y0037446D01*
X0075641Y0036448D02*
X0085752Y0036448D01*
X0085752Y0035449D02*
X0074643Y0035449D01*
X0071418Y0037446D02*
X0045229Y0037446D01*
X0039989Y0035516D02*
X0069968Y0035516D01*
X0068552Y0031500D02*
X0095052Y0031500D01*
X0095192Y0031502D01*
X0095332Y0031508D01*
X0095472Y0031518D01*
X0095612Y0031531D01*
X0095751Y0031549D01*
X0095890Y0031571D01*
X0096027Y0031596D01*
X0096165Y0031625D01*
X0096301Y0031658D01*
X0096436Y0031695D01*
X0096570Y0031736D01*
X0096703Y0031781D01*
X0096835Y0031829D01*
X0096965Y0031881D01*
X0097094Y0031936D01*
X0097221Y0031995D01*
X0097347Y0032058D01*
X0097471Y0032124D01*
X0097592Y0032193D01*
X0097712Y0032266D01*
X0097830Y0032343D01*
X0097945Y0032422D01*
X0098059Y0032505D01*
X0098169Y0032591D01*
X0098278Y0032680D01*
X0098384Y0032772D01*
X0098487Y0032867D01*
X0098588Y0032964D01*
X0098685Y0033065D01*
X0098780Y0033168D01*
X0098872Y0033274D01*
X0098961Y0033383D01*
X0099047Y0033493D01*
X0099130Y0033607D01*
X0099209Y0033722D01*
X0099286Y0033840D01*
X0099359Y0033960D01*
X0099428Y0034081D01*
X0099494Y0034205D01*
X0099557Y0034331D01*
X0099616Y0034458D01*
X0099671Y0034587D01*
X0099723Y0034717D01*
X0099771Y0034849D01*
X0099816Y0034982D01*
X0099857Y0035116D01*
X0099894Y0035251D01*
X0099927Y0035387D01*
X0099956Y0035525D01*
X0099981Y0035662D01*
X0100003Y0035801D01*
X0100021Y0035940D01*
X0100034Y0036080D01*
X0100044Y0036220D01*
X0100050Y0036360D01*
X0100052Y0036500D01*
X0107673Y0040442D02*
X0123552Y0040442D01*
X0123552Y0041440D02*
X0109326Y0041440D01*
X0110325Y0042439D02*
X0123552Y0042439D01*
X0123552Y0043437D02*
X0110927Y0043437D01*
X0111341Y0044436D02*
X0123552Y0044436D01*
X0123552Y0045434D02*
X0111652Y0045434D01*
X0111652Y0046433D02*
X0123552Y0046433D01*
X0123552Y0047432D02*
X0111652Y0047432D01*
X0111652Y0048430D02*
X0123552Y0048430D01*
X0123552Y0049429D02*
X0111652Y0049429D01*
X0111652Y0050427D02*
X0123552Y0050427D01*
X0123552Y0051426D02*
X0111652Y0051426D01*
X0111652Y0052424D02*
X0123552Y0052424D01*
X0123552Y0053423D02*
X0111652Y0053423D01*
X0111652Y0054421D02*
X0123552Y0054421D01*
X0123552Y0055420D02*
X0111652Y0055420D01*
X0111652Y0056418D02*
X0123552Y0056418D01*
X0123552Y0057417D02*
X0111652Y0057417D01*
X0111652Y0058415D02*
X0123552Y0058415D01*
X0123552Y0059414D02*
X0111652Y0059414D01*
X0111652Y0060412D02*
X0123552Y0060412D01*
X0123552Y0061411D02*
X0111652Y0061411D01*
X0111652Y0062409D02*
X0123552Y0062409D01*
X0123552Y0063408D02*
X0111652Y0063408D01*
X0111652Y0064406D02*
X0123552Y0064406D01*
X0123552Y0065405D02*
X0111652Y0065405D01*
X0111652Y0066403D02*
X0123552Y0066403D01*
X0123552Y0067402D02*
X0111652Y0067402D01*
X0111652Y0068400D02*
X0123552Y0068400D01*
X0123552Y0069399D02*
X0111652Y0069399D01*
X0111652Y0070397D02*
X0123552Y0070397D01*
X0123552Y0071396D02*
X0111652Y0071396D01*
X0111652Y0072394D02*
X0123552Y0072394D01*
X0123552Y0073393D02*
X0111652Y0073393D01*
X0111652Y0074391D02*
X0123552Y0074391D01*
X0123552Y0075390D02*
X0111652Y0075390D01*
X0111652Y0076388D02*
X0123552Y0076388D01*
X0123552Y0077387D02*
X0111652Y0077387D01*
X0111652Y0078385D02*
X0123552Y0078385D01*
X0123552Y0079384D02*
X0111652Y0079384D01*
X0111652Y0080382D02*
X0123552Y0080382D01*
X0123552Y0081381D02*
X0111652Y0081381D01*
X0111652Y0082379D02*
X0123552Y0082379D01*
X0123552Y0083378D02*
X0111652Y0083378D01*
X0111652Y0084376D02*
X0123493Y0084376D01*
X0123427Y0085375D02*
X0111652Y0085375D01*
X0111652Y0086373D02*
X0123211Y0086373D01*
X0122944Y0087372D02*
X0111652Y0087372D01*
X0111652Y0088370D02*
X0122676Y0088370D01*
X0122409Y0089369D02*
X0111652Y0089369D01*
X0111652Y0090368D02*
X0121965Y0090368D01*
X0121388Y0091366D02*
X0111652Y0091366D01*
X0111652Y0092365D02*
X0120812Y0092365D01*
X0120235Y0093363D02*
X0111424Y0093363D01*
X0111011Y0094362D02*
X0119309Y0094362D01*
X0118310Y0095360D02*
X0110526Y0095360D01*
X0109527Y0096359D02*
X0117312Y0096359D01*
X0115748Y0097357D02*
X0108158Y0097357D01*
X0111064Y0099354D02*
X0015708Y0099354D01*
X0013088Y0098356D02*
X0114018Y0098356D01*
X0106858Y0094362D02*
X0047695Y0094362D01*
X0046143Y0093363D02*
X0107890Y0093363D01*
X0108303Y0092365D02*
X0045294Y0092365D01*
X0044694Y0091366D02*
X0108452Y0091366D01*
X0108452Y0090368D02*
X0102831Y0090368D01*
X0101999Y0091200D02*
X0100552Y0091200D01*
X0100552Y0087000D01*
X0099552Y0087000D01*
X0099552Y0086000D01*
X0095352Y0086000D01*
X0095352Y0084553D01*
X0098105Y0081800D01*
X0099552Y0081800D01*
X0099552Y0086000D01*
X0100552Y0086000D01*
X0100552Y0081800D01*
X0101999Y0081800D01*
X0104752Y0084553D01*
X0104752Y0086000D01*
X0100552Y0086000D01*
X0100552Y0087000D01*
X0104752Y0087000D01*
X0104752Y0088447D01*
X0101999Y0091200D01*
X0100552Y0090368D02*
X0099552Y0090368D01*
X0099552Y0091200D02*
X0098105Y0091200D01*
X0095352Y0088447D01*
X0095352Y0087000D01*
X0099552Y0087000D01*
X0099552Y0091200D01*
X0097273Y0090368D02*
X0092266Y0090368D01*
X0093264Y0089369D02*
X0096274Y0089369D01*
X0095352Y0088370D02*
X0094263Y0088370D01*
X0094352Y0087372D02*
X0095352Y0087372D01*
X0094352Y0086373D02*
X0099552Y0086373D01*
X0099552Y0085375D02*
X0100552Y0085375D01*
X0100552Y0086373D02*
X0108452Y0086373D01*
X0108452Y0085375D02*
X0104752Y0085375D01*
X0104575Y0084376D02*
X0108452Y0084376D01*
X0108452Y0083378D02*
X0103577Y0083378D01*
X0102578Y0082379D02*
X0108452Y0082379D01*
X0108452Y0081381D02*
X0075333Y0081381D01*
X0075333Y0082379D02*
X0088092Y0082379D01*
X0087093Y0083378D02*
X0075092Y0083378D01*
X0075333Y0083137D02*
X0074689Y0083781D01*
X0067675Y0083781D01*
X0067031Y0083137D01*
X0067031Y0079863D01*
X0067675Y0079219D01*
X0074689Y0079219D01*
X0075333Y0079863D01*
X0075333Y0083137D01*
X0074846Y0084376D02*
X0086095Y0084376D01*
X0090052Y0086500D02*
X0071182Y0086500D01*
X0075099Y0088370D02*
X0085841Y0088370D01*
X0086840Y0089369D02*
X0044181Y0089369D01*
X0044152Y0088370D02*
X0046005Y0088370D01*
X0045771Y0088137D02*
X0045771Y0084863D01*
X0046415Y0084219D01*
X0053429Y0084219D01*
X0054073Y0084863D01*
X0054073Y0088137D01*
X0053429Y0088781D01*
X0046415Y0088781D01*
X0045771Y0088137D01*
X0045771Y0087372D02*
X0044152Y0087372D01*
X0044152Y0086373D02*
X0045771Y0086373D01*
X0045771Y0085375D02*
X0044152Y0085375D01*
X0044152Y0084376D02*
X0046258Y0084376D01*
X0046415Y0083781D02*
X0045771Y0083137D01*
X0045771Y0079863D01*
X0046415Y0079219D01*
X0053429Y0079219D01*
X0054073Y0079863D01*
X0054073Y0083137D01*
X0053429Y0083781D01*
X0046415Y0083781D01*
X0046012Y0083378D02*
X0044152Y0083378D01*
X0044152Y0082379D02*
X0045771Y0082379D01*
X0045771Y0081381D02*
X0044152Y0081381D01*
X0044152Y0080382D02*
X0045771Y0080382D01*
X0046250Y0079384D02*
X0044152Y0079384D01*
X0044152Y0078385D02*
X0046020Y0078385D01*
X0045771Y0078137D02*
X0045771Y0074863D01*
X0046415Y0074219D01*
X0053429Y0074219D01*
X0054073Y0074863D01*
X0054073Y0078137D01*
X0053429Y0078781D01*
X0046415Y0078781D01*
X0045771Y0078137D01*
X0045771Y0077387D02*
X0044152Y0077387D01*
X0044152Y0076388D02*
X0045771Y0076388D01*
X0045771Y0075390D02*
X0044152Y0075390D01*
X0044152Y0074391D02*
X0046243Y0074391D01*
X0046292Y0074079D02*
X0045950Y0073881D01*
X0045671Y0073602D01*
X0045473Y0073260D01*
X0045371Y0072879D01*
X0045371Y0071591D01*
X0049832Y0071591D01*
X0049832Y0074181D01*
X0046673Y0074181D01*
X0046292Y0074079D01*
X0045550Y0073393D02*
X0044152Y0073393D01*
X0044152Y0072394D02*
X0045371Y0072394D01*
X0045371Y0071409D02*
X0045371Y0070121D01*
X0045473Y0069740D01*
X0045671Y0069398D01*
X0045950Y0069119D01*
X0046292Y0068921D01*
X0046673Y0068819D01*
X0049832Y0068819D01*
X0049832Y0071409D01*
X0050013Y0071409D01*
X0050013Y0068819D01*
X0053171Y0068819D01*
X0053552Y0068921D01*
X0053894Y0069119D01*
X0054174Y0069398D01*
X0054371Y0069740D01*
X0054473Y0070121D01*
X0054473Y0071409D01*
X0050013Y0071409D01*
X0050013Y0071591D01*
X0049832Y0071591D01*
X0049832Y0071409D01*
X0045371Y0071409D01*
X0045371Y0071396D02*
X0044152Y0071396D01*
X0044152Y0070397D02*
X0045371Y0070397D01*
X0045670Y0069399D02*
X0044152Y0069399D01*
X0044152Y0068400D02*
X0054952Y0068400D01*
X0054952Y0067402D02*
X0044152Y0067402D01*
X0044152Y0066403D02*
X0054952Y0066403D01*
X0054952Y0065405D02*
X0044152Y0065405D01*
X0044152Y0064406D02*
X0054952Y0064406D01*
X0054952Y0063408D02*
X0044152Y0063408D01*
X0044152Y0062409D02*
X0054952Y0062409D01*
X0054952Y0061411D02*
X0044152Y0061411D01*
X0044152Y0060412D02*
X0054945Y0060412D01*
X0054867Y0059414D02*
X0044152Y0059414D01*
X0044152Y0058415D02*
X0054569Y0058415D01*
X0054244Y0057417D02*
X0044152Y0057417D01*
X0044152Y0056418D02*
X0053673Y0056418D01*
X0052947Y0055420D02*
X0044152Y0055420D01*
X0044687Y0054421D02*
X0051781Y0054421D01*
X0049941Y0053423D02*
X0044829Y0053423D01*
X0042552Y0053000D02*
X0042552Y0054000D01*
X0042552Y0056500D01*
X0042552Y0089000D01*
X0040952Y0089369D02*
X0006719Y0089369D01*
X0006632Y0088370D02*
X0040952Y0088370D01*
X0040952Y0087372D02*
X0006553Y0087372D01*
X0006552Y0086373D02*
X0040952Y0086373D01*
X0040952Y0085375D02*
X0006552Y0085375D01*
X0006552Y0084376D02*
X0040952Y0084376D01*
X0040952Y0083378D02*
X0006552Y0083378D01*
X0006552Y0082379D02*
X0040952Y0082379D01*
X0040952Y0081381D02*
X0006552Y0081381D01*
X0006552Y0080382D02*
X0040952Y0080382D01*
X0040952Y0079384D02*
X0006552Y0079384D01*
X0006552Y0078385D02*
X0040952Y0078385D01*
X0040952Y0077387D02*
X0006552Y0077387D01*
X0006552Y0076388D02*
X0040952Y0076388D01*
X0040952Y0075390D02*
X0006552Y0075390D01*
X0006552Y0074391D02*
X0040952Y0074391D01*
X0040952Y0073393D02*
X0006552Y0073393D01*
X0006552Y0072394D02*
X0013642Y0072394D01*
X0013515Y0072353D02*
X0014314Y0072613D01*
X0015064Y0072731D01*
X0015064Y0067906D01*
X0016064Y0067906D01*
X0016064Y0072731D01*
X0016814Y0072613D01*
X0017613Y0072353D01*
X0018362Y0071971D01*
X0019042Y0071478D01*
X0019636Y0070883D01*
X0020130Y0070204D01*
X0020511Y0069455D01*
X0020771Y0068656D01*
X0020890Y0067905D01*
X0016064Y0067905D01*
X0016064Y0066906D01*
X0020890Y0066906D01*
X0020771Y0066155D01*
X0020511Y0065356D01*
X0020130Y0064607D01*
X0019636Y0063928D01*
X0019042Y0063333D01*
X0018362Y0062840D01*
X0017613Y0062458D01*
X0016814Y0062198D01*
X0016064Y0062080D01*
X0016064Y0066905D01*
X0015064Y0066905D01*
X0015064Y0062080D01*
X0014314Y0062198D01*
X0013515Y0062458D01*
X0012766Y0062840D01*
X0012086Y0063333D01*
X0011492Y0063928D01*
X0010998Y0064607D01*
X0010616Y0065356D01*
X0010357Y0066155D01*
X0010238Y0066906D01*
X0015064Y0066906D01*
X0015064Y0067905D01*
X0010238Y0067905D01*
X0010357Y0068656D01*
X0010616Y0069455D01*
X0010998Y0070204D01*
X0011492Y0070883D01*
X0012086Y0071478D01*
X0012766Y0071971D01*
X0013515Y0072353D01*
X0015064Y0072394D02*
X0016064Y0072394D01*
X0016064Y0071396D02*
X0015064Y0071396D01*
X0015064Y0070397D02*
X0016064Y0070397D01*
X0016064Y0069399D02*
X0015064Y0069399D01*
X0015064Y0068400D02*
X0016064Y0068400D01*
X0016064Y0067402D02*
X0030262Y0067402D01*
X0030105Y0067093D02*
X0029845Y0066293D01*
X0029726Y0065543D01*
X0034552Y0065543D01*
X0034552Y0064543D01*
X0035552Y0064543D01*
X0035552Y0059717D01*
X0036302Y0059836D01*
X0037101Y0060096D01*
X0037850Y0060477D01*
X0038530Y0060971D01*
X0039124Y0061565D01*
X0039618Y0062245D01*
X0040000Y0062994D01*
X0040259Y0063793D01*
X0040378Y0064543D01*
X0035552Y0064543D01*
X0035552Y0065543D01*
X0040378Y0065543D01*
X0040259Y0066293D01*
X0040000Y0067093D01*
X0039618Y0067841D01*
X0039124Y0068521D01*
X0038530Y0069115D01*
X0037850Y0069609D01*
X0037101Y0069991D01*
X0036302Y0070250D01*
X0035552Y0070369D01*
X0035552Y0065543D01*
X0034552Y0065543D01*
X0034552Y0070369D01*
X0033802Y0070250D01*
X0033003Y0069991D01*
X0032254Y0069609D01*
X0031574Y0069115D01*
X0030980Y0068521D01*
X0030486Y0067841D01*
X0030105Y0067093D01*
X0029881Y0066403D02*
X0020810Y0066403D01*
X0020527Y0065405D02*
X0034552Y0065405D01*
X0034552Y0064543D02*
X0029726Y0064543D01*
X0029845Y0063793D01*
X0030105Y0062994D01*
X0030486Y0062245D01*
X0030980Y0061565D01*
X0031574Y0060971D01*
X0032254Y0060477D01*
X0033003Y0060096D01*
X0033802Y0059836D01*
X0034552Y0059717D01*
X0034552Y0064543D01*
X0034552Y0064406D02*
X0035552Y0064406D01*
X0035552Y0063408D02*
X0034552Y0063408D01*
X0034552Y0062409D02*
X0035552Y0062409D01*
X0035552Y0061411D02*
X0034552Y0061411D01*
X0034552Y0060412D02*
X0035552Y0060412D01*
X0037722Y0060412D02*
X0040952Y0060412D01*
X0040952Y0059414D02*
X0006552Y0059414D01*
X0006552Y0060412D02*
X0032382Y0060412D01*
X0031135Y0061411D02*
X0006552Y0061411D01*
X0006552Y0062409D02*
X0013665Y0062409D01*
X0015064Y0062409D02*
X0016064Y0062409D01*
X0016064Y0063408D02*
X0015064Y0063408D01*
X0015064Y0064406D02*
X0016064Y0064406D01*
X0016064Y0065405D02*
X0015064Y0065405D01*
X0015064Y0066403D02*
X0016064Y0066403D01*
X0015064Y0067402D02*
X0006552Y0067402D01*
X0006552Y0068400D02*
X0010316Y0068400D01*
X0010598Y0069399D02*
X0006552Y0069399D01*
X0006552Y0070397D02*
X0011139Y0070397D01*
X0012004Y0071396D02*
X0006552Y0071396D01*
X0006552Y0066403D02*
X0010317Y0066403D01*
X0010601Y0065405D02*
X0006552Y0065405D01*
X0006552Y0064406D02*
X0011144Y0064406D01*
X0012012Y0063408D02*
X0006552Y0063408D01*
X0006552Y0058415D02*
X0040952Y0058415D01*
X0040952Y0057417D02*
X0006552Y0057417D01*
X0006552Y0056418D02*
X0040952Y0056418D01*
X0040952Y0055420D02*
X0006552Y0055420D01*
X0006552Y0054421D02*
X0035292Y0054421D01*
X0035149Y0053423D02*
X0006552Y0053423D01*
X0006552Y0052424D02*
X0035149Y0052424D01*
X0035149Y0051426D02*
X0006552Y0051426D01*
X0006552Y0050427D02*
X0034841Y0050427D01*
X0034749Y0049429D02*
X0006552Y0049429D01*
X0006552Y0048430D02*
X0034770Y0048430D01*
X0035149Y0047432D02*
X0006552Y0047432D01*
X0006552Y0046433D02*
X0035149Y0046433D01*
X0035149Y0045434D02*
X0006552Y0045434D01*
X0006552Y0044436D02*
X0027432Y0044436D01*
X0026952Y0043437D02*
X0006552Y0043437D01*
X0006552Y0042439D02*
X0026952Y0042439D01*
X0026952Y0041440D02*
X0006552Y0041440D01*
X0006552Y0040442D02*
X0026952Y0040442D01*
X0026952Y0039443D02*
X0006552Y0039443D01*
X0006552Y0038445D02*
X0027552Y0038445D01*
X0032553Y0038445D02*
X0034795Y0038445D01*
X0034749Y0037446D02*
X0006552Y0037446D01*
X0006552Y0036448D02*
X0034815Y0036448D01*
X0035149Y0035449D02*
X0006552Y0035449D01*
X0006552Y0034451D02*
X0035149Y0034451D01*
X0035149Y0033452D02*
X0006552Y0033452D01*
X0006552Y0032454D02*
X0034772Y0032454D01*
X0034749Y0031455D02*
X0006552Y0031455D01*
X0006552Y0030457D02*
X0034838Y0030457D01*
X0035149Y0029458D02*
X0006552Y0029458D01*
X0006552Y0028460D02*
X0035149Y0028460D01*
X0035149Y0027461D02*
X0006552Y0027461D01*
X0006552Y0026463D02*
X0034749Y0026463D01*
X0034749Y0025464D02*
X0006552Y0025464D01*
X0006552Y0024466D02*
X0034873Y0024466D01*
X0035149Y0023467D02*
X0006552Y0023467D01*
X0006552Y0022469D02*
X0035149Y0022469D01*
X0035149Y0021470D02*
X0006552Y0021470D01*
X0006552Y0020472D02*
X0034749Y0020472D01*
X0034749Y0019473D02*
X0006552Y0019473D01*
X0006552Y0018475D02*
X0034922Y0018475D01*
X0035149Y0017476D02*
X0006552Y0017476D01*
X0006552Y0016478D02*
X0035424Y0016478D01*
X0039989Y0017799D02*
X0057853Y0017799D01*
X0057923Y0017797D01*
X0057993Y0017791D01*
X0058063Y0017782D01*
X0058132Y0017769D01*
X0058201Y0017752D01*
X0058268Y0017731D01*
X0058334Y0017707D01*
X0058398Y0017679D01*
X0058461Y0017648D01*
X0058523Y0017613D01*
X0058582Y0017575D01*
X0058639Y0017534D01*
X0058694Y0017490D01*
X0058746Y0017443D01*
X0058796Y0017393D01*
X0058843Y0017341D01*
X0058887Y0017286D01*
X0058928Y0017229D01*
X0058966Y0017170D01*
X0059001Y0017108D01*
X0059032Y0017045D01*
X0059060Y0016981D01*
X0059084Y0016915D01*
X0059105Y0016848D01*
X0059122Y0016779D01*
X0059135Y0016710D01*
X0059144Y0016640D01*
X0059150Y0016570D01*
X0059152Y0016500D01*
X0057552Y0015479D02*
X0006552Y0015479D01*
X0006552Y0014481D02*
X0057771Y0014481D01*
X0058184Y0013482D02*
X0006552Y0013482D01*
X0006552Y0012484D02*
X0032200Y0012484D01*
X0031031Y0011485D02*
X0006552Y0011485D01*
X0006552Y0010487D02*
X0013406Y0010487D01*
X0011908Y0009488D02*
X0006552Y0009488D01*
X0006560Y0008490D02*
X0011068Y0008490D01*
X0010567Y0007491D02*
X0006658Y0007491D01*
X0007070Y0006493D02*
X0010301Y0006493D01*
X0010333Y0004496D02*
X0008471Y0004496D01*
X0010095Y0003497D02*
X0010641Y0003497D01*
X0016064Y0005494D02*
X0030315Y0005494D01*
X0030968Y0004496D02*
X0020795Y0004496D01*
X0020487Y0003497D02*
X0032108Y0003497D01*
X0035552Y0007491D02*
X0120485Y0007491D01*
X0119486Y0006493D02*
X0040190Y0006493D01*
X0039789Y0005494D02*
X0118401Y0005494D01*
X0116671Y0004496D02*
X0039136Y0004496D01*
X0037996Y0003497D02*
X0114011Y0003497D01*
X0123040Y0012484D02*
X0102117Y0012484D01*
X0103115Y0013482D02*
X0123307Y0013482D01*
X0123476Y0014481D02*
X0104114Y0014481D01*
X0104352Y0015479D02*
X0123541Y0015479D01*
X0095052Y0021500D02*
X0065052Y0021500D01*
X0065050Y0021591D01*
X0065044Y0021682D01*
X0065035Y0021773D01*
X0065022Y0021863D01*
X0065005Y0021952D01*
X0064985Y0022041D01*
X0064960Y0022129D01*
X0064933Y0022216D01*
X0064901Y0022302D01*
X0064866Y0022386D01*
X0064828Y0022468D01*
X0064786Y0022549D01*
X0064741Y0022629D01*
X0064693Y0022706D01*
X0064642Y0022781D01*
X0064587Y0022854D01*
X0064530Y0022925D01*
X0064469Y0022993D01*
X0064406Y0023059D01*
X0064340Y0023122D01*
X0064272Y0023183D01*
X0064201Y0023240D01*
X0064128Y0023295D01*
X0064053Y0023346D01*
X0063976Y0023394D01*
X0063896Y0023439D01*
X0063815Y0023481D01*
X0063733Y0023519D01*
X0063649Y0023554D01*
X0063563Y0023586D01*
X0063476Y0023613D01*
X0063388Y0023638D01*
X0063299Y0023658D01*
X0063210Y0023675D01*
X0063120Y0023688D01*
X0063029Y0023697D01*
X0062938Y0023703D01*
X0062847Y0023705D01*
X0039989Y0023705D01*
X0039989Y0021736D02*
X0055716Y0021736D01*
X0057786Y0019473D02*
X0045229Y0019473D01*
X0045229Y0025464D02*
X0064952Y0025464D01*
X0066552Y0025500D02*
X0066550Y0025591D01*
X0066544Y0025682D01*
X0066535Y0025772D01*
X0066521Y0025862D01*
X0066504Y0025951D01*
X0066483Y0026040D01*
X0066458Y0026127D01*
X0066430Y0026214D01*
X0066398Y0026299D01*
X0066362Y0026382D01*
X0066323Y0026464D01*
X0066280Y0026545D01*
X0066234Y0026623D01*
X0066185Y0026699D01*
X0066132Y0026774D01*
X0066077Y0026846D01*
X0066018Y0026915D01*
X0065956Y0026982D01*
X0065892Y0027046D01*
X0065825Y0027108D01*
X0065756Y0027167D01*
X0065684Y0027222D01*
X0065609Y0027275D01*
X0065533Y0027324D01*
X0065455Y0027370D01*
X0065374Y0027413D01*
X0065292Y0027452D01*
X0065209Y0027488D01*
X0065124Y0027520D01*
X0065037Y0027548D01*
X0064950Y0027573D01*
X0064861Y0027594D01*
X0064772Y0027611D01*
X0064682Y0027625D01*
X0064592Y0027634D01*
X0064501Y0027640D01*
X0064410Y0027642D01*
X0039989Y0027642D01*
X0039989Y0029610D02*
X0066662Y0029610D01*
X0066720Y0029612D01*
X0066778Y0029618D01*
X0066836Y0029627D01*
X0066892Y0029640D01*
X0066948Y0029657D01*
X0067003Y0029678D01*
X0067056Y0029702D01*
X0067107Y0029729D01*
X0067156Y0029760D01*
X0067204Y0029794D01*
X0067249Y0029831D01*
X0067291Y0029871D01*
X0067331Y0029913D01*
X0067368Y0029958D01*
X0067402Y0030006D01*
X0067433Y0030055D01*
X0067460Y0030106D01*
X0067484Y0030159D01*
X0067505Y0030214D01*
X0067522Y0030270D01*
X0067535Y0030326D01*
X0067544Y0030384D01*
X0067550Y0030442D01*
X0067552Y0030500D01*
X0067554Y0030560D01*
X0067559Y0030621D01*
X0067568Y0030680D01*
X0067581Y0030739D01*
X0067597Y0030798D01*
X0067617Y0030855D01*
X0067640Y0030910D01*
X0067667Y0030965D01*
X0067696Y0031017D01*
X0067729Y0031068D01*
X0067765Y0031117D01*
X0067803Y0031163D01*
X0067845Y0031207D01*
X0067889Y0031249D01*
X0067935Y0031287D01*
X0067984Y0031323D01*
X0068035Y0031356D01*
X0068087Y0031385D01*
X0068142Y0031412D01*
X0068197Y0031435D01*
X0068254Y0031455D01*
X0068313Y0031471D01*
X0068372Y0031484D01*
X0068431Y0031493D01*
X0068492Y0031498D01*
X0068552Y0031500D01*
X0066101Y0031455D02*
X0045229Y0031455D01*
X0039989Y0033547D02*
X0087099Y0033547D01*
X0087207Y0033549D01*
X0087315Y0033555D01*
X0087422Y0033565D01*
X0087529Y0033578D01*
X0087635Y0033596D01*
X0087741Y0033618D01*
X0087846Y0033643D01*
X0087950Y0033672D01*
X0088052Y0033705D01*
X0088154Y0033742D01*
X0088254Y0033782D01*
X0088352Y0033826D01*
X0088449Y0033874D01*
X0088544Y0033925D01*
X0088637Y0033979D01*
X0088728Y0034037D01*
X0088817Y0034098D01*
X0088904Y0034163D01*
X0088988Y0034230D01*
X0089070Y0034301D01*
X0089149Y0034374D01*
X0089225Y0034450D01*
X0089298Y0034529D01*
X0089369Y0034611D01*
X0089436Y0034695D01*
X0089501Y0034782D01*
X0089562Y0034871D01*
X0089620Y0034962D01*
X0089674Y0035055D01*
X0089725Y0035150D01*
X0089773Y0035247D01*
X0089817Y0035345D01*
X0089857Y0035445D01*
X0089894Y0035547D01*
X0089927Y0035649D01*
X0089956Y0035753D01*
X0089981Y0035858D01*
X0090003Y0035964D01*
X0090021Y0036070D01*
X0090034Y0036177D01*
X0090044Y0036284D01*
X0090050Y0036392D01*
X0090052Y0036500D01*
X0088032Y0042439D02*
X0077552Y0042439D01*
X0077552Y0043437D02*
X0087033Y0043437D01*
X0086035Y0044436D02*
X0077552Y0044436D01*
X0077552Y0045434D02*
X0085752Y0045434D01*
X0085752Y0046433D02*
X0077552Y0046433D01*
X0077552Y0047432D02*
X0085752Y0047432D01*
X0085901Y0048430D02*
X0077552Y0048430D01*
X0077552Y0049429D02*
X0086900Y0049429D01*
X0087898Y0050427D02*
X0077552Y0050427D01*
X0077552Y0051426D02*
X0108452Y0051426D01*
X0108452Y0052424D02*
X0102057Y0052424D01*
X0103056Y0053423D02*
X0108452Y0053423D01*
X0108452Y0054421D02*
X0104054Y0054421D01*
X0104352Y0055420D02*
X0108452Y0055420D01*
X0108452Y0056418D02*
X0104352Y0056418D01*
X0104352Y0057417D02*
X0108452Y0057417D01*
X0108452Y0058415D02*
X0104218Y0058415D01*
X0103220Y0059414D02*
X0108452Y0059414D01*
X0108452Y0060412D02*
X0102221Y0060412D01*
X0099255Y0061411D02*
X0108452Y0061411D01*
X0108452Y0062409D02*
X0102042Y0062409D01*
X0103041Y0063408D02*
X0108452Y0063408D01*
X0108452Y0064406D02*
X0104039Y0064406D01*
X0104352Y0065405D02*
X0108452Y0065405D01*
X0108452Y0066403D02*
X0104352Y0066403D01*
X0104352Y0067402D02*
X0108452Y0067402D01*
X0108452Y0068400D02*
X0104233Y0068400D01*
X0103234Y0069399D02*
X0108452Y0069399D01*
X0108452Y0070397D02*
X0102236Y0070397D01*
X0101999Y0071800D02*
X0100552Y0071800D01*
X0100552Y0076000D01*
X0099552Y0076000D01*
X0095352Y0076000D01*
X0095352Y0074553D01*
X0098105Y0071800D01*
X0099552Y0071800D01*
X0099552Y0076000D01*
X0099552Y0077000D01*
X0095352Y0077000D01*
X0095352Y0078447D01*
X0098105Y0081200D01*
X0099552Y0081200D01*
X0099552Y0077000D01*
X0100552Y0077000D01*
X0100552Y0081200D01*
X0101999Y0081200D01*
X0104752Y0078447D01*
X0104752Y0077000D01*
X0100552Y0077000D01*
X0100552Y0076000D01*
X0104752Y0076000D01*
X0104752Y0074553D01*
X0101999Y0071800D01*
X0102593Y0072394D02*
X0108452Y0072394D01*
X0108452Y0071396D02*
X0089490Y0071396D01*
X0088077Y0072394D02*
X0088069Y0072394D01*
X0087078Y0073393D02*
X0075077Y0073393D01*
X0074861Y0074391D02*
X0086080Y0074391D01*
X0085752Y0075390D02*
X0075333Y0075390D01*
X0075333Y0076388D02*
X0085752Y0076388D01*
X0085752Y0077387D02*
X0075333Y0077387D01*
X0075085Y0078385D02*
X0085856Y0078385D01*
X0086855Y0079384D02*
X0074854Y0079384D01*
X0075333Y0080382D02*
X0087853Y0080382D01*
X0092251Y0080382D02*
X0097288Y0080382D01*
X0096289Y0079384D02*
X0093249Y0079384D01*
X0094248Y0078385D02*
X0095352Y0078385D01*
X0095352Y0077387D02*
X0094352Y0077387D01*
X0094352Y0076388D02*
X0099552Y0076388D01*
X0099552Y0075390D02*
X0100552Y0075390D01*
X0100552Y0076388D02*
X0108452Y0076388D01*
X0108452Y0075390D02*
X0104752Y0075390D01*
X0104590Y0074391D02*
X0108452Y0074391D01*
X0108452Y0073393D02*
X0103592Y0073393D01*
X0100552Y0073393D02*
X0099552Y0073393D01*
X0099552Y0074391D02*
X0100552Y0074391D01*
X0100552Y0072394D02*
X0099552Y0072394D01*
X0097511Y0072394D02*
X0092027Y0072394D01*
X0093026Y0073393D02*
X0096512Y0073393D01*
X0095514Y0074391D02*
X0094025Y0074391D01*
X0094352Y0075390D02*
X0095352Y0075390D01*
X0099552Y0077387D02*
X0100552Y0077387D01*
X0100552Y0078385D02*
X0099552Y0078385D01*
X0099552Y0079384D02*
X0100552Y0079384D01*
X0100552Y0080382D02*
X0099552Y0080382D01*
X0102816Y0080382D02*
X0108452Y0080382D01*
X0108452Y0079384D02*
X0103815Y0079384D01*
X0104752Y0078385D02*
X0108452Y0078385D01*
X0108452Y0077387D02*
X0104752Y0077387D01*
X0100552Y0082379D02*
X0099552Y0082379D01*
X0099552Y0083378D02*
X0100552Y0083378D01*
X0100552Y0084376D02*
X0099552Y0084376D01*
X0097526Y0082379D02*
X0092013Y0082379D01*
X0093011Y0083378D02*
X0096527Y0083378D01*
X0095529Y0084376D02*
X0094010Y0084376D01*
X0094352Y0085375D02*
X0095352Y0085375D01*
X0099552Y0087372D02*
X0100552Y0087372D01*
X0100552Y0088370D02*
X0099552Y0088370D01*
X0099552Y0089369D02*
X0100552Y0089369D01*
X0103830Y0089369D02*
X0108452Y0089369D01*
X0108452Y0088370D02*
X0104752Y0088370D01*
X0104752Y0087372D02*
X0108452Y0087372D01*
X0110052Y0091500D02*
X0110052Y0046500D01*
X0108445Y0046433D02*
X0104352Y0046433D01*
X0105052Y0041500D02*
X0105192Y0041502D01*
X0105332Y0041508D01*
X0105472Y0041518D01*
X0105612Y0041531D01*
X0105751Y0041549D01*
X0105890Y0041571D01*
X0106027Y0041596D01*
X0106165Y0041625D01*
X0106301Y0041658D01*
X0106436Y0041695D01*
X0106570Y0041736D01*
X0106703Y0041781D01*
X0106835Y0041829D01*
X0106965Y0041881D01*
X0107094Y0041936D01*
X0107221Y0041995D01*
X0107347Y0042058D01*
X0107471Y0042124D01*
X0107592Y0042193D01*
X0107712Y0042266D01*
X0107830Y0042343D01*
X0107945Y0042422D01*
X0108059Y0042505D01*
X0108169Y0042591D01*
X0108278Y0042680D01*
X0108384Y0042772D01*
X0108487Y0042867D01*
X0108588Y0042964D01*
X0108685Y0043065D01*
X0108780Y0043168D01*
X0108872Y0043274D01*
X0108961Y0043383D01*
X0109047Y0043493D01*
X0109130Y0043607D01*
X0109209Y0043722D01*
X0109286Y0043840D01*
X0109359Y0043960D01*
X0109428Y0044081D01*
X0109494Y0044205D01*
X0109557Y0044331D01*
X0109616Y0044458D01*
X0109671Y0044587D01*
X0109723Y0044717D01*
X0109771Y0044849D01*
X0109816Y0044982D01*
X0109857Y0045116D01*
X0109894Y0045251D01*
X0109927Y0045387D01*
X0109956Y0045525D01*
X0109981Y0045662D01*
X0110003Y0045801D01*
X0110021Y0045940D01*
X0110034Y0046080D01*
X0110044Y0046220D01*
X0110050Y0046360D01*
X0110052Y0046500D01*
X0108452Y0047432D02*
X0104352Y0047432D01*
X0104203Y0048430D02*
X0108452Y0048430D01*
X0108452Y0049429D02*
X0103205Y0049429D01*
X0102206Y0050427D02*
X0108452Y0050427D01*
X0108220Y0045434D02*
X0104352Y0045434D01*
X0104069Y0044436D02*
X0107704Y0044436D01*
X0106372Y0043437D02*
X0103071Y0043437D01*
X0095752Y0047432D02*
X0094352Y0047432D01*
X0094203Y0048430D02*
X0095901Y0048430D01*
X0096900Y0049429D02*
X0093205Y0049429D01*
X0092206Y0050427D02*
X0097898Y0050427D01*
X0098047Y0052424D02*
X0092057Y0052424D01*
X0093056Y0053423D02*
X0097048Y0053423D01*
X0096050Y0054421D02*
X0094054Y0054421D01*
X0094352Y0055420D02*
X0095752Y0055420D01*
X0095752Y0056418D02*
X0094352Y0056418D01*
X0094352Y0057417D02*
X0095752Y0057417D01*
X0095886Y0058415D02*
X0094218Y0058415D01*
X0093220Y0059414D02*
X0096885Y0059414D01*
X0097440Y0060412D02*
X0097883Y0060412D01*
X0095152Y0061600D02*
X0090552Y0061600D01*
X0090052Y0061600D01*
X0080552Y0061600D01*
X0078967Y0059414D02*
X0086885Y0059414D01*
X0085886Y0058415D02*
X0078004Y0058415D01*
X0077650Y0057417D02*
X0085752Y0057417D01*
X0085752Y0056418D02*
X0077558Y0056418D01*
X0077552Y0055420D02*
X0085752Y0055420D01*
X0086050Y0054421D02*
X0077552Y0054421D01*
X0077552Y0053423D02*
X0087048Y0053423D01*
X0088047Y0052424D02*
X0077552Y0052424D01*
X0072552Y0052424D02*
X0065652Y0052424D01*
X0065652Y0051426D02*
X0072552Y0051426D01*
X0072552Y0050427D02*
X0065652Y0050427D01*
X0065652Y0049429D02*
X0072552Y0049429D01*
X0072552Y0048430D02*
X0066678Y0048430D01*
X0066508Y0048600D02*
X0067152Y0047956D01*
X0067152Y0043044D01*
X0066508Y0042400D01*
X0061596Y0042400D01*
X0060952Y0043044D01*
X0060952Y0043758D01*
X0044829Y0043758D01*
X0044829Y0041053D01*
X0072105Y0041053D01*
X0072221Y0041068D01*
X0072421Y0041184D01*
X0072537Y0041384D01*
X0072552Y0041500D01*
X0072552Y0067092D01*
X0073433Y0069219D01*
X0068715Y0069219D01*
X0068110Y0068968D01*
X0066584Y0067442D01*
X0065758Y0065449D01*
X0065652Y0064370D01*
X0065652Y0048600D01*
X0066508Y0048600D01*
X0067152Y0047432D02*
X0072552Y0047432D01*
X0072552Y0046433D02*
X0067152Y0046433D01*
X0067152Y0045434D02*
X0072552Y0045434D01*
X0072552Y0044436D02*
X0067152Y0044436D01*
X0067152Y0043437D02*
X0072552Y0043437D01*
X0072552Y0042439D02*
X0066547Y0042439D01*
X0069968Y0035516D02*
X0070120Y0035518D01*
X0070271Y0035524D01*
X0070422Y0035533D01*
X0070573Y0035547D01*
X0070724Y0035564D01*
X0070874Y0035585D01*
X0071024Y0035610D01*
X0071173Y0035638D01*
X0071321Y0035671D01*
X0071468Y0035707D01*
X0071614Y0035747D01*
X0071759Y0035790D01*
X0071903Y0035838D01*
X0072046Y0035888D01*
X0072188Y0035943D01*
X0072328Y0036001D01*
X0072466Y0036063D01*
X0072603Y0036128D01*
X0072739Y0036196D01*
X0072872Y0036268D01*
X0073004Y0036343D01*
X0073133Y0036422D01*
X0073261Y0036504D01*
X0073386Y0036589D01*
X0073510Y0036677D01*
X0073631Y0036768D01*
X0073750Y0036862D01*
X0073866Y0036960D01*
X0073980Y0037060D01*
X0074091Y0037163D01*
X0074199Y0037269D01*
X0074305Y0037377D01*
X0074408Y0037488D01*
X0074508Y0037602D01*
X0074606Y0037718D01*
X0074700Y0037837D01*
X0074791Y0037958D01*
X0074879Y0038082D01*
X0074964Y0038207D01*
X0075046Y0038335D01*
X0075125Y0038464D01*
X0075200Y0038596D01*
X0075272Y0038729D01*
X0075340Y0038865D01*
X0075405Y0039002D01*
X0075467Y0039140D01*
X0075525Y0039280D01*
X0075580Y0039422D01*
X0075630Y0039565D01*
X0075678Y0039709D01*
X0075721Y0039854D01*
X0075761Y0040000D01*
X0075797Y0040147D01*
X0075830Y0040295D01*
X0075858Y0040444D01*
X0075883Y0040594D01*
X0075904Y0040744D01*
X0075921Y0040895D01*
X0075935Y0041046D01*
X0075944Y0041197D01*
X0075950Y0041348D01*
X0075952Y0041500D01*
X0075952Y0056500D01*
X0072552Y0056418D02*
X0065652Y0056418D01*
X0065652Y0055420D02*
X0072552Y0055420D01*
X0072552Y0054421D02*
X0065652Y0054421D01*
X0065652Y0053423D02*
X0072552Y0053423D01*
X0072552Y0057417D02*
X0065652Y0057417D01*
X0065652Y0058415D02*
X0072552Y0058415D01*
X0072552Y0059414D02*
X0065652Y0059414D01*
X0065652Y0060412D02*
X0072552Y0060412D01*
X0072552Y0061411D02*
X0065652Y0061411D01*
X0065652Y0062409D02*
X0072552Y0062409D01*
X0072552Y0063408D02*
X0065652Y0063408D01*
X0065656Y0064406D02*
X0072552Y0064406D01*
X0072552Y0065405D02*
X0065754Y0065405D01*
X0066154Y0066403D02*
X0072552Y0066403D01*
X0072680Y0067402D02*
X0066567Y0067402D01*
X0067542Y0068400D02*
X0073094Y0068400D01*
X0074152Y0065600D02*
X0074152Y0041500D01*
X0072544Y0041440D02*
X0044829Y0041440D01*
X0044829Y0042439D02*
X0061557Y0042439D01*
X0060952Y0043437D02*
X0044829Y0043437D01*
X0039989Y0045358D02*
X0063910Y0045358D01*
X0064052Y0045500D01*
X0064052Y0064370D01*
X0062452Y0064406D02*
X0061652Y0064406D01*
X0061652Y0063408D02*
X0062452Y0063408D01*
X0062452Y0062409D02*
X0061652Y0062409D01*
X0061652Y0061411D02*
X0062452Y0061411D01*
X0062452Y0060412D02*
X0061652Y0060412D01*
X0061652Y0059414D02*
X0062452Y0059414D01*
X0062452Y0058415D02*
X0061652Y0058415D01*
X0061652Y0057417D02*
X0062452Y0057417D01*
X0062452Y0056418D02*
X0061652Y0056418D01*
X0061652Y0055420D02*
X0062452Y0055420D01*
X0058452Y0055420D02*
X0057019Y0055420D01*
X0057383Y0056418D02*
X0058452Y0056418D01*
X0058452Y0057417D02*
X0057708Y0057417D01*
X0058032Y0058415D02*
X0058452Y0058415D01*
X0058452Y0059414D02*
X0058152Y0059414D01*
X0058152Y0060412D02*
X0058452Y0060412D01*
X0058452Y0061411D02*
X0058152Y0061411D01*
X0058152Y0062409D02*
X0058452Y0062409D01*
X0058452Y0063408D02*
X0058152Y0063408D01*
X0058152Y0064406D02*
X0058452Y0064406D01*
X0058452Y0065405D02*
X0058152Y0065405D01*
X0058152Y0066403D02*
X0058452Y0066403D01*
X0058457Y0067402D02*
X0058152Y0067402D01*
X0058152Y0068400D02*
X0058782Y0068400D01*
X0059106Y0069399D02*
X0058152Y0069399D01*
X0058152Y0070397D02*
X0059430Y0070397D01*
X0059825Y0071396D02*
X0058152Y0071396D01*
X0058186Y0072394D02*
X0060550Y0072394D01*
X0061276Y0073393D02*
X0058252Y0073393D01*
X0058483Y0074391D02*
X0062001Y0074391D01*
X0063316Y0075390D02*
X0058751Y0075390D01*
X0059018Y0076388D02*
X0064690Y0076388D01*
X0066971Y0077387D02*
X0059450Y0077387D01*
X0060027Y0078385D02*
X0067279Y0078385D01*
X0067510Y0079384D02*
X0060603Y0079384D01*
X0061425Y0080382D02*
X0067031Y0080382D01*
X0067031Y0081381D02*
X0062423Y0081381D01*
X0063548Y0082379D02*
X0067031Y0082379D01*
X0067272Y0083378D02*
X0065277Y0083378D01*
X0063843Y0086373D02*
X0054073Y0086373D01*
X0054073Y0085375D02*
X0062113Y0085375D01*
X0060736Y0084376D02*
X0053587Y0084376D01*
X0053832Y0083378D02*
X0059737Y0083378D01*
X0058739Y0082379D02*
X0054073Y0082379D01*
X0054073Y0081381D02*
X0057932Y0081381D01*
X0057356Y0080382D02*
X0054073Y0080382D01*
X0053594Y0079384D02*
X0056779Y0079384D01*
X0056203Y0078385D02*
X0053825Y0078385D01*
X0054073Y0077387D02*
X0055858Y0077387D01*
X0055590Y0076388D02*
X0054073Y0076388D01*
X0054073Y0075390D02*
X0055323Y0075390D01*
X0055055Y0074391D02*
X0053601Y0074391D01*
X0053552Y0074079D02*
X0053171Y0074181D01*
X0050013Y0074181D01*
X0050013Y0071591D01*
X0054473Y0071591D01*
X0054473Y0072879D01*
X0054371Y0073260D01*
X0054174Y0073602D01*
X0053894Y0073881D01*
X0053552Y0074079D01*
X0054294Y0073393D02*
X0054952Y0073393D01*
X0054952Y0072394D02*
X0054473Y0072394D01*
X0054473Y0071396D02*
X0054952Y0071396D01*
X0054952Y0070397D02*
X0054473Y0070397D01*
X0054174Y0069399D02*
X0054952Y0069399D01*
X0056552Y0071870D02*
X0056552Y0060500D01*
X0060052Y0065370D02*
X0060052Y0051500D01*
X0056952Y0051426D02*
X0053262Y0051426D01*
X0054636Y0052424D02*
X0056952Y0052424D01*
X0056952Y0053423D02*
X0055568Y0053423D01*
X0056294Y0054421D02*
X0057418Y0054421D01*
X0060052Y0051500D02*
X0060050Y0051371D01*
X0060044Y0051243D01*
X0060034Y0051115D01*
X0060020Y0050987D01*
X0060003Y0050860D01*
X0059981Y0050733D01*
X0059955Y0050607D01*
X0059926Y0050482D01*
X0059893Y0050358D01*
X0059856Y0050235D01*
X0059815Y0050113D01*
X0059770Y0049993D01*
X0059722Y0049873D01*
X0059670Y0049756D01*
X0059615Y0049640D01*
X0059555Y0049526D01*
X0059493Y0049413D01*
X0059427Y0049303D01*
X0059358Y0049195D01*
X0059285Y0049089D01*
X0059209Y0048985D01*
X0059130Y0048884D01*
X0059048Y0048785D01*
X0058963Y0048689D01*
X0058875Y0048595D01*
X0058784Y0048504D01*
X0058690Y0048416D01*
X0058594Y0048331D01*
X0058495Y0048249D01*
X0058394Y0048170D01*
X0058290Y0048094D01*
X0058184Y0048021D01*
X0058076Y0047952D01*
X0057965Y0047886D01*
X0057853Y0047824D01*
X0057739Y0047764D01*
X0057623Y0047709D01*
X0057506Y0047657D01*
X0057386Y0047609D01*
X0057266Y0047564D01*
X0057144Y0047523D01*
X0057021Y0047486D01*
X0056897Y0047453D01*
X0056772Y0047424D01*
X0056646Y0047398D01*
X0056519Y0047376D01*
X0056392Y0047359D01*
X0056264Y0047345D01*
X0056136Y0047335D01*
X0056008Y0047329D01*
X0055879Y0047327D01*
X0039989Y0047327D01*
X0035149Y0044436D02*
X0032672Y0044436D01*
X0033152Y0043437D02*
X0035149Y0043437D01*
X0039989Y0041421D02*
X0030131Y0041421D01*
X0030116Y0041423D01*
X0030101Y0041427D01*
X0030087Y0041434D01*
X0030075Y0041444D01*
X0030065Y0041456D01*
X0030058Y0041470D01*
X0030054Y0041485D01*
X0030052Y0041500D01*
X0033152Y0039443D02*
X0035149Y0039443D01*
X0039989Y0039453D02*
X0072105Y0039453D01*
X0072194Y0039455D01*
X0072283Y0039461D01*
X0072372Y0039471D01*
X0072460Y0039484D01*
X0072548Y0039502D01*
X0072635Y0039523D01*
X0072721Y0039548D01*
X0072805Y0039576D01*
X0072888Y0039609D01*
X0072970Y0039645D01*
X0073050Y0039684D01*
X0073129Y0039727D01*
X0073205Y0039774D01*
X0073279Y0039823D01*
X0073351Y0039876D01*
X0073421Y0039932D01*
X0073488Y0039991D01*
X0073552Y0040053D01*
X0073614Y0040117D01*
X0073673Y0040184D01*
X0073729Y0040254D01*
X0073782Y0040326D01*
X0073831Y0040400D01*
X0073878Y0040477D01*
X0073921Y0040555D01*
X0073960Y0040635D01*
X0073996Y0040717D01*
X0074029Y0040800D01*
X0074057Y0040884D01*
X0074082Y0040970D01*
X0074103Y0041057D01*
X0074121Y0041145D01*
X0074134Y0041233D01*
X0074144Y0041322D01*
X0074150Y0041411D01*
X0074152Y0041500D01*
X0056952Y0049429D02*
X0045229Y0049429D01*
X0047316Y0051264D02*
X0039989Y0051264D01*
X0039989Y0053232D02*
X0041784Y0053232D01*
X0041836Y0053234D01*
X0041889Y0053239D01*
X0041940Y0053248D01*
X0041991Y0053260D01*
X0042041Y0053276D01*
X0042090Y0053296D01*
X0042137Y0053318D01*
X0042183Y0053344D01*
X0042227Y0053373D01*
X0042269Y0053404D01*
X0042308Y0053439D01*
X0042345Y0053476D01*
X0042380Y0053515D01*
X0042411Y0053557D01*
X0042440Y0053601D01*
X0042466Y0053647D01*
X0042488Y0053694D01*
X0042508Y0053743D01*
X0042524Y0053793D01*
X0042536Y0053844D01*
X0042545Y0053895D01*
X0042550Y0053948D01*
X0042552Y0054000D01*
X0051381Y0050427D02*
X0056952Y0050427D01*
X0047316Y0051264D02*
X0047539Y0051267D01*
X0047762Y0051275D01*
X0047985Y0051288D01*
X0048207Y0051307D01*
X0048429Y0051331D01*
X0048651Y0051361D01*
X0048871Y0051396D01*
X0049090Y0051436D01*
X0049309Y0051482D01*
X0049526Y0051532D01*
X0049742Y0051588D01*
X0049957Y0051650D01*
X0050170Y0051716D01*
X0050382Y0051788D01*
X0050591Y0051864D01*
X0050799Y0051946D01*
X0051005Y0052033D01*
X0051208Y0052124D01*
X0051409Y0052221D01*
X0051608Y0052322D01*
X0051805Y0052428D01*
X0051998Y0052539D01*
X0052189Y0052654D01*
X0052377Y0052774D01*
X0052563Y0052899D01*
X0052745Y0053028D01*
X0052924Y0053161D01*
X0053099Y0053299D01*
X0053272Y0053441D01*
X0053441Y0053587D01*
X0053606Y0053737D01*
X0053767Y0053891D01*
X0053925Y0054049D01*
X0054079Y0054210D01*
X0054229Y0054375D01*
X0054375Y0054544D01*
X0054517Y0054717D01*
X0054655Y0054892D01*
X0054788Y0055071D01*
X0054917Y0055253D01*
X0055042Y0055439D01*
X0055162Y0055627D01*
X0055277Y0055818D01*
X0055388Y0056011D01*
X0055494Y0056208D01*
X0055595Y0056407D01*
X0055692Y0056608D01*
X0055783Y0056811D01*
X0055870Y0057017D01*
X0055952Y0057225D01*
X0056028Y0057434D01*
X0056100Y0057646D01*
X0056166Y0057859D01*
X0056228Y0058074D01*
X0056284Y0058290D01*
X0056334Y0058507D01*
X0056380Y0058726D01*
X0056420Y0058945D01*
X0056455Y0059165D01*
X0056485Y0059387D01*
X0056509Y0059609D01*
X0056528Y0059831D01*
X0056541Y0060054D01*
X0056549Y0060277D01*
X0056552Y0060500D01*
X0061655Y0065405D02*
X0062452Y0065405D01*
X0062575Y0066403D02*
X0061733Y0066403D01*
X0061945Y0067402D02*
X0062989Y0067402D01*
X0063402Y0068400D02*
X0062270Y0068400D01*
X0062594Y0069399D02*
X0063865Y0069399D01*
X0063200Y0070397D02*
X0064863Y0070397D01*
X0063925Y0071396D02*
X0065862Y0071396D01*
X0064836Y0072394D02*
X0067031Y0072394D01*
X0067287Y0073393D02*
X0066211Y0073393D01*
X0056552Y0071870D02*
X0056556Y0072224D01*
X0056569Y0072577D01*
X0056590Y0072930D01*
X0056620Y0073282D01*
X0056659Y0073633D01*
X0056706Y0073984D01*
X0056761Y0074333D01*
X0056825Y0074681D01*
X0056897Y0075027D01*
X0056977Y0075371D01*
X0057066Y0075713D01*
X0057163Y0076053D01*
X0057268Y0076391D01*
X0057381Y0076726D01*
X0057503Y0077058D01*
X0057632Y0077387D01*
X0057769Y0077713D01*
X0057914Y0078035D01*
X0058067Y0078354D01*
X0058228Y0078669D01*
X0058396Y0078980D01*
X0058571Y0079287D01*
X0058754Y0079589D01*
X0058944Y0079887D01*
X0059142Y0080181D01*
X0059346Y0080469D01*
X0059557Y0080753D01*
X0059775Y0081031D01*
X0060000Y0081304D01*
X0060231Y0081571D01*
X0060469Y0081833D01*
X0060713Y0082089D01*
X0060963Y0082339D01*
X0061219Y0082583D01*
X0061481Y0082821D01*
X0061748Y0083052D01*
X0062021Y0083277D01*
X0062299Y0083495D01*
X0062583Y0083706D01*
X0062871Y0083910D01*
X0063165Y0084108D01*
X0063463Y0084298D01*
X0063765Y0084481D01*
X0064072Y0084656D01*
X0064383Y0084824D01*
X0064698Y0084985D01*
X0065017Y0085138D01*
X0065339Y0085283D01*
X0065665Y0085420D01*
X0065994Y0085549D01*
X0066326Y0085671D01*
X0066661Y0085784D01*
X0066999Y0085889D01*
X0067339Y0085986D01*
X0067681Y0086075D01*
X0068025Y0086155D01*
X0068371Y0086227D01*
X0068719Y0086291D01*
X0069068Y0086346D01*
X0069419Y0086393D01*
X0069770Y0086432D01*
X0070122Y0086462D01*
X0070475Y0086483D01*
X0070828Y0086496D01*
X0071182Y0086500D01*
X0067265Y0088370D02*
X0053840Y0088370D01*
X0054073Y0087372D02*
X0066328Y0087372D01*
X0050052Y0096500D02*
X0049871Y0096498D01*
X0049690Y0096491D01*
X0049509Y0096480D01*
X0049328Y0096465D01*
X0049148Y0096445D01*
X0048968Y0096421D01*
X0048789Y0096393D01*
X0048611Y0096360D01*
X0048434Y0096323D01*
X0048257Y0096282D01*
X0048082Y0096237D01*
X0047907Y0096187D01*
X0047734Y0096133D01*
X0047563Y0096075D01*
X0047392Y0096013D01*
X0047224Y0095946D01*
X0047057Y0095876D01*
X0046891Y0095802D01*
X0046728Y0095723D01*
X0046567Y0095641D01*
X0046407Y0095555D01*
X0046250Y0095465D01*
X0046095Y0095371D01*
X0045942Y0095274D01*
X0045792Y0095172D01*
X0045644Y0095068D01*
X0045498Y0094959D01*
X0045356Y0094848D01*
X0045216Y0094732D01*
X0045079Y0094614D01*
X0044944Y0094492D01*
X0044813Y0094367D01*
X0044685Y0094239D01*
X0044560Y0094108D01*
X0044438Y0093973D01*
X0044320Y0093836D01*
X0044204Y0093696D01*
X0044093Y0093554D01*
X0043984Y0093408D01*
X0043880Y0093260D01*
X0043778Y0093110D01*
X0043681Y0092957D01*
X0043587Y0092802D01*
X0043497Y0092645D01*
X0043411Y0092485D01*
X0043329Y0092324D01*
X0043250Y0092161D01*
X0043176Y0091995D01*
X0043106Y0091828D01*
X0043039Y0091660D01*
X0042977Y0091489D01*
X0042919Y0091318D01*
X0042865Y0091145D01*
X0042815Y0090970D01*
X0042770Y0090795D01*
X0042729Y0090618D01*
X0042692Y0090441D01*
X0042659Y0090263D01*
X0042631Y0090084D01*
X0042607Y0089904D01*
X0042587Y0089724D01*
X0042572Y0089543D01*
X0042561Y0089362D01*
X0042554Y0089181D01*
X0042552Y0089000D01*
X0040952Y0090368D02*
X0007043Y0090368D01*
X0007367Y0091366D02*
X0041253Y0091366D01*
X0041577Y0092365D02*
X0007692Y0092365D01*
X0008123Y0093363D02*
X0041974Y0093363D01*
X0042699Y0094362D02*
X0008849Y0094362D01*
X0009574Y0095360D02*
X0043425Y0095360D01*
X0044698Y0096359D02*
X0010339Y0096359D01*
X0011714Y0097357D02*
X0046324Y0097357D01*
X0050052Y0096500D02*
X0105052Y0096500D01*
X0105192Y0096498D01*
X0105332Y0096492D01*
X0105472Y0096482D01*
X0105612Y0096469D01*
X0105751Y0096451D01*
X0105890Y0096429D01*
X0106027Y0096404D01*
X0106165Y0096375D01*
X0106301Y0096342D01*
X0106436Y0096305D01*
X0106570Y0096264D01*
X0106703Y0096219D01*
X0106835Y0096171D01*
X0106965Y0096119D01*
X0107094Y0096064D01*
X0107221Y0096005D01*
X0107347Y0095942D01*
X0107471Y0095876D01*
X0107592Y0095807D01*
X0107712Y0095734D01*
X0107830Y0095657D01*
X0107945Y0095578D01*
X0108059Y0095495D01*
X0108169Y0095409D01*
X0108278Y0095320D01*
X0108384Y0095228D01*
X0108487Y0095133D01*
X0108588Y0095036D01*
X0108685Y0094935D01*
X0108780Y0094832D01*
X0108872Y0094726D01*
X0108961Y0094617D01*
X0109047Y0094507D01*
X0109130Y0094393D01*
X0109209Y0094278D01*
X0109286Y0094160D01*
X0109359Y0094040D01*
X0109428Y0093919D01*
X0109494Y0093795D01*
X0109557Y0093669D01*
X0109616Y0093542D01*
X0109671Y0093413D01*
X0109723Y0093283D01*
X0109771Y0093151D01*
X0109816Y0093018D01*
X0109857Y0092884D01*
X0109894Y0092749D01*
X0109927Y0092613D01*
X0109956Y0092475D01*
X0109981Y0092338D01*
X0110003Y0092199D01*
X0110021Y0092060D01*
X0110034Y0091920D01*
X0110044Y0091780D01*
X0110050Y0091640D01*
X0110052Y0091500D01*
X0087838Y0090368D02*
X0044369Y0090368D01*
X0049832Y0073393D02*
X0050013Y0073393D01*
X0050013Y0072394D02*
X0049832Y0072394D01*
X0049832Y0071396D02*
X0050013Y0071396D01*
X0050013Y0070397D02*
X0049832Y0070397D01*
X0049832Y0069399D02*
X0050013Y0069399D01*
X0040952Y0069399D02*
X0038140Y0069399D01*
X0039212Y0068400D02*
X0040952Y0068400D01*
X0040952Y0067402D02*
X0039842Y0067402D01*
X0040224Y0066403D02*
X0040952Y0066403D01*
X0040952Y0065405D02*
X0035552Y0065405D01*
X0035552Y0066403D02*
X0034552Y0066403D01*
X0034552Y0067402D02*
X0035552Y0067402D01*
X0035552Y0068400D02*
X0034552Y0068400D01*
X0034552Y0069399D02*
X0035552Y0069399D01*
X0031964Y0069399D02*
X0020530Y0069399D01*
X0020811Y0068400D02*
X0030892Y0068400D01*
X0029748Y0064406D02*
X0019984Y0064406D01*
X0019116Y0063408D02*
X0029970Y0063408D01*
X0030403Y0062409D02*
X0017463Y0062409D01*
X0019989Y0070397D02*
X0040952Y0070397D01*
X0040952Y0071396D02*
X0019123Y0071396D01*
X0017486Y0072394D02*
X0040952Y0072394D01*
X0040952Y0064406D02*
X0040356Y0064406D01*
X0040134Y0063408D02*
X0040952Y0063408D01*
X0040952Y0062409D02*
X0039702Y0062409D01*
X0038969Y0061411D02*
X0040952Y0061411D01*
X0064052Y0064370D02*
X0064054Y0064542D01*
X0064060Y0064714D01*
X0064071Y0064886D01*
X0064085Y0065058D01*
X0064104Y0065229D01*
X0064127Y0065400D01*
X0064154Y0065570D01*
X0064185Y0065740D01*
X0064220Y0065909D01*
X0064259Y0066076D01*
X0064302Y0066243D01*
X0064350Y0066409D01*
X0064401Y0066573D01*
X0064456Y0066737D01*
X0064515Y0066898D01*
X0064578Y0067059D01*
X0064645Y0067217D01*
X0064716Y0067375D01*
X0064790Y0067530D01*
X0064869Y0067683D01*
X0064951Y0067835D01*
X0065036Y0067985D01*
X0065125Y0068132D01*
X0065218Y0068277D01*
X0065314Y0068420D01*
X0065414Y0068561D01*
X0065517Y0068699D01*
X0065623Y0068835D01*
X0065732Y0068968D01*
X0065845Y0069098D01*
X0065961Y0069226D01*
X0066080Y0069350D01*
X0066202Y0069472D01*
X0066326Y0069591D01*
X0066454Y0069707D01*
X0066584Y0069820D01*
X0066717Y0069929D01*
X0066853Y0070035D01*
X0066991Y0070138D01*
X0067132Y0070238D01*
X0067275Y0070334D01*
X0067420Y0070427D01*
X0067567Y0070516D01*
X0067717Y0070601D01*
X0067869Y0070683D01*
X0068022Y0070762D01*
X0068177Y0070836D01*
X0068335Y0070907D01*
X0068493Y0070974D01*
X0068654Y0071037D01*
X0068815Y0071096D01*
X0068979Y0071151D01*
X0069143Y0071202D01*
X0069309Y0071250D01*
X0069476Y0071293D01*
X0069643Y0071332D01*
X0069812Y0071367D01*
X0069982Y0071398D01*
X0070152Y0071425D01*
X0070323Y0071448D01*
X0070494Y0071467D01*
X0070666Y0071481D01*
X0070838Y0071492D01*
X0071010Y0071498D01*
X0071182Y0071500D01*
X0075333Y0072394D02*
X0076857Y0072394D01*
X0080052Y0071500D02*
X0085052Y0071500D01*
X0092236Y0070397D02*
X0097868Y0070397D01*
X0096870Y0069399D02*
X0093234Y0069399D01*
X0094233Y0068400D02*
X0095871Y0068400D01*
X0095752Y0067402D02*
X0094352Y0067402D01*
X0094352Y0066403D02*
X0095752Y0066403D01*
X0100052Y0066500D02*
X0100050Y0066363D01*
X0100044Y0066225D01*
X0100035Y0066088D01*
X0100021Y0065951D01*
X0100004Y0065815D01*
X0099983Y0065679D01*
X0099958Y0065544D01*
X0099929Y0065410D01*
X0099897Y0065276D01*
X0099860Y0065144D01*
X0099821Y0065012D01*
X0099777Y0064882D01*
X0099730Y0064753D01*
X0099679Y0064625D01*
X0099625Y0064499D01*
X0099567Y0064374D01*
X0099505Y0064251D01*
X0099441Y0064130D01*
X0099372Y0064010D01*
X0099301Y0063893D01*
X0099226Y0063778D01*
X0099148Y0063665D01*
X0099067Y0063554D01*
X0098983Y0063445D01*
X0098896Y0063339D01*
X0098806Y0063235D01*
X0098713Y0063134D01*
X0098617Y0063035D01*
X0098518Y0062939D01*
X0098417Y0062846D01*
X0098313Y0062756D01*
X0098207Y0062669D01*
X0098098Y0062585D01*
X0097987Y0062504D01*
X0097874Y0062426D01*
X0097759Y0062351D01*
X0097642Y0062280D01*
X0097522Y0062211D01*
X0097401Y0062147D01*
X0097278Y0062085D01*
X0097153Y0062027D01*
X0097027Y0061973D01*
X0096899Y0061922D01*
X0096770Y0061875D01*
X0096640Y0061831D01*
X0096508Y0061792D01*
X0096376Y0061755D01*
X0096242Y0061723D01*
X0096108Y0061694D01*
X0095973Y0061669D01*
X0095837Y0061648D01*
X0095701Y0061631D01*
X0095564Y0061617D01*
X0095427Y0061608D01*
X0095289Y0061602D01*
X0095152Y0061600D01*
X0096144Y0063408D02*
X0093041Y0063408D01*
X0094039Y0064406D02*
X0096065Y0064406D01*
X0095752Y0065405D02*
X0094352Y0065405D01*
X0090052Y0066500D02*
X0090050Y0066640D01*
X0090044Y0066780D01*
X0090034Y0066920D01*
X0090021Y0067060D01*
X0090003Y0067199D01*
X0089981Y0067338D01*
X0089956Y0067475D01*
X0089927Y0067613D01*
X0089894Y0067749D01*
X0089857Y0067884D01*
X0089816Y0068018D01*
X0089771Y0068151D01*
X0089723Y0068283D01*
X0089671Y0068413D01*
X0089616Y0068542D01*
X0089557Y0068669D01*
X0089494Y0068795D01*
X0089428Y0068919D01*
X0089359Y0069040D01*
X0089286Y0069160D01*
X0089209Y0069278D01*
X0089130Y0069393D01*
X0089047Y0069507D01*
X0088961Y0069617D01*
X0088872Y0069726D01*
X0088780Y0069832D01*
X0088685Y0069935D01*
X0088588Y0070036D01*
X0088487Y0070133D01*
X0088384Y0070228D01*
X0088278Y0070320D01*
X0088169Y0070409D01*
X0088059Y0070495D01*
X0087945Y0070578D01*
X0087830Y0070657D01*
X0087712Y0070734D01*
X0087592Y0070807D01*
X0087471Y0070876D01*
X0087347Y0070942D01*
X0087221Y0071005D01*
X0087094Y0071064D01*
X0086965Y0071119D01*
X0086835Y0071171D01*
X0086703Y0071219D01*
X0086570Y0071264D01*
X0086436Y0071305D01*
X0086301Y0071342D01*
X0086165Y0071375D01*
X0086027Y0071404D01*
X0085890Y0071429D01*
X0085751Y0071451D01*
X0085612Y0071469D01*
X0085472Y0071482D01*
X0085332Y0071492D01*
X0085192Y0071498D01*
X0085052Y0071500D01*
X0080052Y0071500D02*
X0079900Y0071498D01*
X0079748Y0071492D01*
X0079597Y0071482D01*
X0079445Y0071469D01*
X0079294Y0071451D01*
X0079144Y0071430D01*
X0078994Y0071404D01*
X0078845Y0071375D01*
X0078697Y0071342D01*
X0078549Y0071305D01*
X0078403Y0071265D01*
X0078258Y0071221D01*
X0078114Y0071172D01*
X0077971Y0071121D01*
X0077829Y0071065D01*
X0077689Y0071006D01*
X0077551Y0070944D01*
X0077414Y0070877D01*
X0077279Y0070808D01*
X0077146Y0070735D01*
X0077015Y0070658D01*
X0076885Y0070578D01*
X0076758Y0070495D01*
X0076633Y0070409D01*
X0076511Y0070319D01*
X0076390Y0070226D01*
X0076273Y0070130D01*
X0076157Y0070032D01*
X0076044Y0069930D01*
X0075934Y0069825D01*
X0075827Y0069718D01*
X0075722Y0069608D01*
X0075620Y0069495D01*
X0075522Y0069379D01*
X0075426Y0069262D01*
X0075333Y0069141D01*
X0075243Y0069019D01*
X0075157Y0068894D01*
X0075074Y0068767D01*
X0074994Y0068637D01*
X0074917Y0068506D01*
X0074844Y0068373D01*
X0074775Y0068238D01*
X0074708Y0068101D01*
X0074646Y0067963D01*
X0074587Y0067823D01*
X0074531Y0067681D01*
X0074480Y0067538D01*
X0074431Y0067394D01*
X0074387Y0067249D01*
X0074347Y0067103D01*
X0074310Y0066955D01*
X0074277Y0066807D01*
X0074248Y0066658D01*
X0074222Y0066508D01*
X0074201Y0066358D01*
X0074183Y0066207D01*
X0074170Y0066055D01*
X0074160Y0065904D01*
X0074154Y0065752D01*
X0074152Y0065600D01*
X0071182Y0076500D02*
X0070913Y0076497D01*
X0070644Y0076487D01*
X0070376Y0076471D01*
X0070108Y0076448D01*
X0069840Y0076419D01*
X0069574Y0076383D01*
X0069308Y0076341D01*
X0069044Y0076293D01*
X0068780Y0076238D01*
X0068518Y0076177D01*
X0068258Y0076109D01*
X0067999Y0076035D01*
X0067743Y0075955D01*
X0067488Y0075869D01*
X0067235Y0075777D01*
X0066985Y0075678D01*
X0066737Y0075574D01*
X0066492Y0075464D01*
X0066249Y0075347D01*
X0066010Y0075225D01*
X0065773Y0075097D01*
X0065540Y0074964D01*
X0065309Y0074825D01*
X0065083Y0074680D01*
X0064859Y0074530D01*
X0064640Y0074374D01*
X0064424Y0074214D01*
X0064213Y0074048D01*
X0064005Y0073877D01*
X0063801Y0073701D01*
X0063602Y0073520D01*
X0063408Y0073335D01*
X0063217Y0073144D01*
X0063032Y0072950D01*
X0062851Y0072751D01*
X0062675Y0072547D01*
X0062504Y0072339D01*
X0062338Y0072128D01*
X0062178Y0071912D01*
X0062022Y0071693D01*
X0061872Y0071469D01*
X0061727Y0071243D01*
X0061588Y0071012D01*
X0061455Y0070779D01*
X0061327Y0070542D01*
X0061205Y0070303D01*
X0061088Y0070060D01*
X0060978Y0069815D01*
X0060874Y0069567D01*
X0060775Y0069317D01*
X0060683Y0069064D01*
X0060597Y0068809D01*
X0060517Y0068553D01*
X0060443Y0068294D01*
X0060375Y0068034D01*
X0060314Y0067772D01*
X0060259Y0067508D01*
X0060211Y0067244D01*
X0060169Y0066978D01*
X0060133Y0066712D01*
X0060104Y0066444D01*
X0060081Y0066176D01*
X0060065Y0065908D01*
X0060055Y0065639D01*
X0060052Y0065370D01*
X0075952Y0056500D02*
X0075947Y0056639D01*
X0075946Y0056777D01*
X0075949Y0056916D01*
X0075956Y0057054D01*
X0075966Y0057193D01*
X0075981Y0057331D01*
X0075999Y0057468D01*
X0076022Y0057605D01*
X0076048Y0057741D01*
X0076078Y0057876D01*
X0076113Y0058011D01*
X0076150Y0058144D01*
X0076192Y0058277D01*
X0076238Y0058408D01*
X0076287Y0058537D01*
X0076340Y0058665D01*
X0076396Y0058792D01*
X0076456Y0058917D01*
X0076520Y0059040D01*
X0076587Y0059162D01*
X0076658Y0059281D01*
X0076732Y0059398D01*
X0076809Y0059513D01*
X0076890Y0059626D01*
X0076973Y0059737D01*
X0077060Y0059845D01*
X0077150Y0059951D01*
X0077243Y0060054D01*
X0077339Y0060154D01*
X0077437Y0060251D01*
X0077539Y0060346D01*
X0077643Y0060438D01*
X0077749Y0060526D01*
X0077858Y0060612D01*
X0077970Y0060695D01*
X0078084Y0060774D01*
X0078200Y0060850D01*
X0078318Y0060922D01*
X0078438Y0060992D01*
X0078560Y0061057D01*
X0078684Y0061120D01*
X0078810Y0061178D01*
X0078937Y0061234D01*
X0079066Y0061285D01*
X0079196Y0061333D01*
X0079327Y0061377D01*
X0079460Y0061417D01*
X0079594Y0061453D01*
X0079729Y0061486D01*
X0079864Y0061515D01*
X0080001Y0061539D01*
X0080138Y0061560D01*
X0080276Y0061577D01*
X0080414Y0061590D01*
X0080552Y0061600D01*
X0075052Y0026500D02*
X0075013Y0026566D01*
X0074978Y0026634D01*
X0074946Y0026703D01*
X0074918Y0026774D01*
X0074894Y0026847D01*
X0074873Y0026920D01*
X0074856Y0026995D01*
X0074843Y0027070D01*
X0074834Y0027146D01*
X0074829Y0027222D01*
X0074828Y0027299D01*
X0074831Y0027375D01*
X0074838Y0027451D01*
X0074848Y0027527D01*
X0074863Y0027602D01*
X0074881Y0027676D01*
X0074903Y0027749D01*
X0074929Y0027821D01*
X0074959Y0027892D01*
X0074992Y0027961D01*
X0075029Y0028028D01*
X0075069Y0028093D01*
X0075112Y0028156D01*
X0075159Y0028216D01*
X0075208Y0028274D01*
X0075261Y0028330D01*
X0075316Y0028382D01*
X0075374Y0028432D01*
X0075435Y0028479D01*
X0075498Y0028522D01*
X0075563Y0028563D01*
X0075630Y0028600D01*
X0075698Y0028633D01*
X0075769Y0028663D01*
X0075841Y0028689D01*
X0075914Y0028711D01*
X0075988Y0028730D01*
X0076063Y0028744D01*
X0076138Y0028755D01*
X0076215Y0028762D01*
X0076291Y0028765D01*
X0076367Y0028764D01*
X0076444Y0028759D01*
X0076519Y0028750D01*
X0076595Y0028737D01*
X0076669Y0028721D01*
X0076743Y0028700D01*
X0076816Y0028676D01*
X0076887Y0028648D01*
X0076956Y0028617D01*
X0077024Y0028582D01*
X0077090Y0028543D01*
X0077154Y0028501D01*
X0077216Y0028456D01*
X0077275Y0028408D01*
X0077332Y0028356D01*
X0077386Y0028302D01*
X0077437Y0028246D01*
X0077485Y0028186D01*
X0077530Y0028124D01*
X0077572Y0028060D01*
X0077610Y0027994D01*
X0077645Y0027926D01*
X0077676Y0027857D01*
X0077704Y0027785D01*
X0077728Y0027713D01*
X0077749Y0027639D01*
X0077765Y0027565D01*
X0077778Y0027489D01*
X0077786Y0027413D01*
X0077791Y0027337D01*
X0077792Y0027261D01*
X0077789Y0027184D01*
X0077782Y0027108D01*
X0077771Y0027033D01*
X0077756Y0026958D01*
X0077737Y0026883D01*
X0077715Y0026810D01*
X0077688Y0026739D01*
X0077659Y0026668D01*
X0077625Y0026600D01*
X0077588Y0026533D01*
X0077548Y0026468D01*
X0077504Y0026405D01*
X0077457Y0026345D01*
X0077407Y0026287D01*
X0077354Y0026232D01*
X0077299Y0026179D01*
X0077241Y0026130D01*
X0077180Y0026083D01*
X0077117Y0026040D01*
X0077052Y0026000D01*
X0077054Y0026044D01*
X0077060Y0026087D01*
X0077069Y0026129D01*
X0077082Y0026171D01*
X0077099Y0026211D01*
X0077119Y0026250D01*
X0077142Y0026287D01*
X0077169Y0026321D01*
X0077198Y0026354D01*
X0077231Y0026383D01*
X0077265Y0026410D01*
X0077302Y0026433D01*
X0077341Y0026453D01*
X0077381Y0026470D01*
X0077423Y0026483D01*
X0077465Y0026492D01*
X0077508Y0026498D01*
X0077552Y0026500D01*
X0090052Y0026500D01*
X0095052Y0021500D02*
X0095192Y0021502D01*
X0095332Y0021508D01*
X0095472Y0021518D01*
X0095612Y0021531D01*
X0095751Y0021549D01*
X0095890Y0021571D01*
X0096027Y0021596D01*
X0096165Y0021625D01*
X0096301Y0021658D01*
X0096436Y0021695D01*
X0096570Y0021736D01*
X0096703Y0021781D01*
X0096835Y0021829D01*
X0096965Y0021881D01*
X0097094Y0021936D01*
X0097221Y0021995D01*
X0097347Y0022058D01*
X0097471Y0022124D01*
X0097592Y0022193D01*
X0097712Y0022266D01*
X0097830Y0022343D01*
X0097945Y0022422D01*
X0098059Y0022505D01*
X0098169Y0022591D01*
X0098278Y0022680D01*
X0098384Y0022772D01*
X0098487Y0022867D01*
X0098588Y0022964D01*
X0098685Y0023065D01*
X0098780Y0023168D01*
X0098872Y0023274D01*
X0098961Y0023383D01*
X0099047Y0023493D01*
X0099130Y0023607D01*
X0099209Y0023722D01*
X0099286Y0023840D01*
X0099359Y0023960D01*
X0099428Y0024081D01*
X0099494Y0024205D01*
X0099557Y0024331D01*
X0099616Y0024458D01*
X0099671Y0024587D01*
X0099723Y0024717D01*
X0099771Y0024849D01*
X0099816Y0024982D01*
X0099857Y0025116D01*
X0099894Y0025251D01*
X0099927Y0025387D01*
X0099956Y0025525D01*
X0099981Y0025662D01*
X0100003Y0025801D01*
X0100021Y0025940D01*
X0100034Y0026080D01*
X0100044Y0026220D01*
X0100050Y0026360D01*
X0100052Y0026500D01*
X0094152Y0016500D02*
X0090052Y0016500D01*
X0090052Y0012400D02*
X0090178Y0012402D01*
X0090304Y0012408D01*
X0090430Y0012417D01*
X0090556Y0012431D01*
X0090681Y0012449D01*
X0090805Y0012470D01*
X0090929Y0012495D01*
X0091052Y0012524D01*
X0091174Y0012557D01*
X0091295Y0012593D01*
X0091415Y0012633D01*
X0091533Y0012677D01*
X0091650Y0012724D01*
X0091766Y0012775D01*
X0091880Y0012830D01*
X0091992Y0012888D01*
X0092102Y0012949D01*
X0092210Y0013014D01*
X0092317Y0013082D01*
X0092421Y0013154D01*
X0092523Y0013228D01*
X0092622Y0013306D01*
X0092720Y0013386D01*
X0092814Y0013470D01*
X0092906Y0013557D01*
X0092995Y0013646D01*
X0093082Y0013738D01*
X0093166Y0013832D01*
X0093246Y0013930D01*
X0093324Y0014029D01*
X0093398Y0014131D01*
X0093470Y0014235D01*
X0093538Y0014342D01*
X0093603Y0014450D01*
X0093664Y0014560D01*
X0093722Y0014672D01*
X0093777Y0014786D01*
X0093828Y0014902D01*
X0093875Y0015019D01*
X0093919Y0015137D01*
X0093959Y0015257D01*
X0093995Y0015378D01*
X0094028Y0015500D01*
X0094057Y0015623D01*
X0094082Y0015747D01*
X0094103Y0015871D01*
X0094121Y0015996D01*
X0094135Y0016122D01*
X0094144Y0016248D01*
X0094150Y0016374D01*
X0094152Y0016500D01*
X0095952Y0016500D02*
X0095950Y0016348D01*
X0095944Y0016196D01*
X0095934Y0016045D01*
X0095921Y0015893D01*
X0095903Y0015742D01*
X0095882Y0015592D01*
X0095856Y0015442D01*
X0095827Y0015293D01*
X0095794Y0015145D01*
X0095757Y0014997D01*
X0095717Y0014851D01*
X0095673Y0014706D01*
X0095624Y0014562D01*
X0095573Y0014419D01*
X0095517Y0014277D01*
X0095458Y0014137D01*
X0095396Y0013999D01*
X0095329Y0013862D01*
X0095260Y0013727D01*
X0095187Y0013594D01*
X0095110Y0013463D01*
X0095030Y0013333D01*
X0094947Y0013206D01*
X0094861Y0013081D01*
X0094771Y0012959D01*
X0094678Y0012838D01*
X0094582Y0012721D01*
X0094484Y0012605D01*
X0094382Y0012492D01*
X0094277Y0012382D01*
X0094170Y0012275D01*
X0094060Y0012170D01*
X0093947Y0012068D01*
X0093831Y0011970D01*
X0093714Y0011874D01*
X0093593Y0011781D01*
X0093471Y0011691D01*
X0093346Y0011605D01*
X0093219Y0011522D01*
X0093089Y0011442D01*
X0092958Y0011365D01*
X0092825Y0011292D01*
X0092690Y0011223D01*
X0092553Y0011156D01*
X0092415Y0011094D01*
X0092275Y0011035D01*
X0092133Y0010979D01*
X0091990Y0010928D01*
X0091846Y0010879D01*
X0091701Y0010835D01*
X0091555Y0010795D01*
X0091407Y0010758D01*
X0091259Y0010725D01*
X0091110Y0010696D01*
X0090960Y0010670D01*
X0090810Y0010649D01*
X0090659Y0010631D01*
X0090507Y0010618D01*
X0090356Y0010608D01*
X0090204Y0010602D01*
X0090052Y0010600D01*
X0065052Y0010600D01*
X0065052Y0012400D02*
X0090052Y0012400D01*
X0075052Y0026501D02*
X0075094Y0026429D01*
X0075133Y0026356D01*
X0075168Y0026282D01*
X0075200Y0026205D01*
X0075228Y0026128D01*
X0075252Y0026049D01*
X0075273Y0025969D01*
X0075290Y0025888D01*
X0075303Y0025806D01*
X0075312Y0025724D01*
X0075317Y0025642D01*
X0075319Y0025559D01*
X0075317Y0025477D01*
X0075311Y0025394D01*
X0075301Y0025312D01*
X0075287Y0025231D01*
X0075269Y0025150D01*
X0075248Y0025070D01*
X0075223Y0024991D01*
X0075194Y0024914D01*
X0075162Y0024838D01*
X0075126Y0024764D01*
X0075086Y0024691D01*
X0075044Y0024620D01*
X0074998Y0024551D01*
X0074949Y0024485D01*
X0074897Y0024421D01*
X0074842Y0024359D01*
X0074784Y0024300D01*
X0074723Y0024244D01*
X0074660Y0024191D01*
X0074595Y0024140D01*
X0074527Y0024093D01*
X0074457Y0024049D01*
X0074385Y0024009D01*
X0074311Y0023971D01*
X0074236Y0023938D01*
X0074159Y0023908D01*
X0074081Y0023881D01*
X0074001Y0023858D01*
X0073921Y0023839D01*
X0073840Y0023824D01*
X0073758Y0023812D01*
X0073676Y0023804D01*
X0073593Y0023800D01*
X0073511Y0023800D01*
X0073428Y0023804D01*
X0073346Y0023812D01*
X0073264Y0023824D01*
X0073183Y0023839D01*
X0073103Y0023858D01*
X0073023Y0023881D01*
X0072945Y0023908D01*
X0072868Y0023938D01*
X0072793Y0023971D01*
X0072719Y0024009D01*
X0072647Y0024049D01*
X0072577Y0024093D01*
X0072509Y0024140D01*
X0072444Y0024191D01*
X0072381Y0024244D01*
X0072320Y0024300D01*
X0072262Y0024359D01*
X0072207Y0024421D01*
X0072155Y0024485D01*
X0072106Y0024551D01*
X0072060Y0024620D01*
X0072018Y0024691D01*
X0071978Y0024764D01*
X0071942Y0024838D01*
X0071910Y0024914D01*
X0071881Y0024991D01*
X0071856Y0025070D01*
X0071835Y0025150D01*
X0071817Y0025231D01*
X0071803Y0025312D01*
X0071793Y0025394D01*
X0071787Y0025477D01*
X0071785Y0025559D01*
X0071787Y0025642D01*
X0071792Y0025724D01*
X0071801Y0025806D01*
X0071814Y0025888D01*
X0071831Y0025969D01*
X0071852Y0026049D01*
X0071876Y0026128D01*
X0071904Y0026205D01*
X0071936Y0026282D01*
X0071971Y0026356D01*
X0072010Y0026429D01*
X0072052Y0026501D01*
X0072052Y0026500D02*
X0072086Y0026558D01*
X0072117Y0026619D01*
X0072144Y0026681D01*
X0072168Y0026744D01*
X0072188Y0026809D01*
X0072204Y0026875D01*
X0072216Y0026941D01*
X0072225Y0027008D01*
X0072229Y0027076D01*
X0072230Y0027144D01*
X0072227Y0027211D01*
X0072220Y0027279D01*
X0072209Y0027345D01*
X0072194Y0027412D01*
X0072175Y0027477D01*
X0072153Y0027541D01*
X0072127Y0027603D01*
X0072098Y0027664D01*
X0072065Y0027723D01*
X0072029Y0027781D01*
X0071989Y0027836D01*
X0071947Y0027888D01*
X0071901Y0027939D01*
X0071853Y0027986D01*
X0071802Y0028031D01*
X0071748Y0028072D01*
X0071693Y0028111D01*
X0071635Y0028146D01*
X0071575Y0028178D01*
X0071513Y0028206D01*
X0071450Y0028231D01*
X0071386Y0028252D01*
X0071321Y0028269D01*
X0071254Y0028283D01*
X0071187Y0028292D01*
X0071120Y0028298D01*
X0071052Y0028300D01*
X0070984Y0028298D01*
X0070917Y0028292D01*
X0070850Y0028283D01*
X0070783Y0028269D01*
X0070718Y0028252D01*
X0070654Y0028231D01*
X0070591Y0028206D01*
X0070529Y0028178D01*
X0070469Y0028146D01*
X0070411Y0028111D01*
X0070356Y0028072D01*
X0070302Y0028031D01*
X0070251Y0027986D01*
X0070203Y0027939D01*
X0070157Y0027888D01*
X0070115Y0027836D01*
X0070075Y0027781D01*
X0070039Y0027723D01*
X0070006Y0027664D01*
X0069977Y0027603D01*
X0069951Y0027541D01*
X0069929Y0027477D01*
X0069910Y0027412D01*
X0069895Y0027345D01*
X0069884Y0027279D01*
X0069877Y0027211D01*
X0069874Y0027144D01*
X0069875Y0027076D01*
X0069879Y0027008D01*
X0069888Y0026941D01*
X0069900Y0026875D01*
X0069916Y0026809D01*
X0069936Y0026744D01*
X0069960Y0026681D01*
X0069987Y0026619D01*
X0070018Y0026558D01*
X0070052Y0026500D01*
X0070096Y0026426D01*
X0070137Y0026349D01*
X0070174Y0026271D01*
X0070207Y0026192D01*
X0070237Y0026110D01*
X0070263Y0026028D01*
X0070285Y0025944D01*
X0070303Y0025860D01*
X0070318Y0025775D01*
X0070329Y0025689D01*
X0070335Y0025603D01*
X0070338Y0025517D01*
X0070337Y0025430D01*
X0070332Y0025344D01*
X0070322Y0025258D01*
X0070309Y0025172D01*
X0070293Y0025088D01*
X0070272Y0025004D01*
X0070247Y0024921D01*
X0070219Y0024839D01*
X0070187Y0024759D01*
X0070151Y0024680D01*
X0070112Y0024603D01*
X0070069Y0024528D01*
X0070023Y0024455D01*
X0069974Y0024384D01*
X0069922Y0024315D01*
X0069866Y0024249D01*
X0069807Y0024186D01*
X0069746Y0024125D01*
X0069682Y0024067D01*
X0069615Y0024012D01*
X0069546Y0023960D01*
X0069475Y0023911D01*
X0069401Y0023866D01*
X0069325Y0023824D01*
X0069248Y0023786D01*
X0069169Y0023751D01*
X0069088Y0023720D01*
X0069006Y0023692D01*
X0068923Y0023668D01*
X0068839Y0023649D01*
X0068754Y0023632D01*
X0068669Y0023620D01*
X0068583Y0023612D01*
X0068496Y0023608D01*
X0068410Y0023607D01*
X0068324Y0023611D01*
X0068238Y0023618D01*
X0068152Y0023630D01*
X0068067Y0023645D01*
X0067983Y0023664D01*
X0067899Y0023687D01*
X0067817Y0023714D01*
X0067736Y0023745D01*
X0067657Y0023779D01*
X0067579Y0023817D01*
X0067503Y0023858D01*
X0067429Y0023903D01*
X0067357Y0023951D01*
X0067288Y0024002D01*
X0067221Y0024056D01*
X0067156Y0024114D01*
X0067094Y0024174D01*
X0067035Y0024237D01*
X0066979Y0024303D01*
X0066926Y0024371D01*
X0066876Y0024441D01*
X0066829Y0024514D01*
X0066786Y0024589D01*
X0066746Y0024665D01*
X0066710Y0024744D01*
X0066677Y0024824D01*
X0066648Y0024905D01*
X0066623Y0024988D01*
X0066601Y0025072D01*
X0066583Y0025156D01*
X0066570Y0025242D01*
X0066560Y0025327D01*
X0066554Y0025414D01*
X0066552Y0025500D01*
X0060952Y0016500D02*
X0060954Y0016374D01*
X0060960Y0016248D01*
X0060969Y0016122D01*
X0060983Y0015996D01*
X0061001Y0015871D01*
X0061022Y0015747D01*
X0061047Y0015623D01*
X0061076Y0015500D01*
X0061109Y0015378D01*
X0061145Y0015257D01*
X0061185Y0015137D01*
X0061229Y0015019D01*
X0061276Y0014902D01*
X0061327Y0014786D01*
X0061382Y0014672D01*
X0061440Y0014560D01*
X0061501Y0014450D01*
X0061566Y0014342D01*
X0061634Y0014235D01*
X0061706Y0014131D01*
X0061780Y0014029D01*
X0061858Y0013930D01*
X0061938Y0013832D01*
X0062022Y0013738D01*
X0062109Y0013646D01*
X0062198Y0013557D01*
X0062290Y0013470D01*
X0062384Y0013386D01*
X0062482Y0013306D01*
X0062581Y0013228D01*
X0062683Y0013154D01*
X0062787Y0013082D01*
X0062894Y0013014D01*
X0063002Y0012949D01*
X0063112Y0012888D01*
X0063224Y0012830D01*
X0063338Y0012775D01*
X0063454Y0012724D01*
X0063571Y0012677D01*
X0063689Y0012633D01*
X0063809Y0012593D01*
X0063930Y0012557D01*
X0064052Y0012524D01*
X0064175Y0012495D01*
X0064299Y0012470D01*
X0064423Y0012449D01*
X0064548Y0012431D01*
X0064674Y0012417D01*
X0064800Y0012408D01*
X0064926Y0012402D01*
X0065052Y0012400D01*
X0065052Y0010600D02*
X0064900Y0010602D01*
X0064748Y0010608D01*
X0064597Y0010618D01*
X0064445Y0010631D01*
X0064294Y0010649D01*
X0064144Y0010670D01*
X0063994Y0010696D01*
X0063845Y0010725D01*
X0063697Y0010758D01*
X0063549Y0010795D01*
X0063403Y0010835D01*
X0063258Y0010879D01*
X0063114Y0010928D01*
X0062971Y0010979D01*
X0062829Y0011035D01*
X0062689Y0011094D01*
X0062551Y0011156D01*
X0062414Y0011223D01*
X0062279Y0011292D01*
X0062146Y0011365D01*
X0062015Y0011442D01*
X0061885Y0011522D01*
X0061758Y0011605D01*
X0061633Y0011691D01*
X0061511Y0011781D01*
X0061390Y0011874D01*
X0061273Y0011970D01*
X0061157Y0012068D01*
X0061044Y0012170D01*
X0060934Y0012275D01*
X0060827Y0012382D01*
X0060722Y0012492D01*
X0060620Y0012605D01*
X0060522Y0012721D01*
X0060426Y0012838D01*
X0060333Y0012959D01*
X0060243Y0013081D01*
X0060157Y0013206D01*
X0060074Y0013333D01*
X0059994Y0013463D01*
X0059917Y0013594D01*
X0059844Y0013727D01*
X0059775Y0013862D01*
X0059708Y0013999D01*
X0059646Y0014137D01*
X0059587Y0014277D01*
X0059531Y0014419D01*
X0059480Y0014562D01*
X0059431Y0014706D01*
X0059387Y0014851D01*
X0059347Y0014997D01*
X0059310Y0015145D01*
X0059277Y0015293D01*
X0059248Y0015442D01*
X0059222Y0015592D01*
X0059201Y0015742D01*
X0059183Y0015893D01*
X0059170Y0016045D01*
X0059160Y0016196D01*
X0059154Y0016348D01*
X0059152Y0016500D01*
X0060952Y0016500D02*
X0060950Y0016642D01*
X0060944Y0016783D01*
X0060935Y0016925D01*
X0060921Y0017066D01*
X0060904Y0017207D01*
X0060883Y0017347D01*
X0060858Y0017487D01*
X0060830Y0017626D01*
X0060797Y0017764D01*
X0060761Y0017901D01*
X0060721Y0018037D01*
X0060678Y0018172D01*
X0060631Y0018306D01*
X0060580Y0018438D01*
X0060526Y0018569D01*
X0060468Y0018699D01*
X0060407Y0018826D01*
X0060342Y0018953D01*
X0060274Y0019077D01*
X0060203Y0019199D01*
X0060128Y0019320D01*
X0060050Y0019438D01*
X0059969Y0019555D01*
X0059884Y0019669D01*
X0059797Y0019780D01*
X0059707Y0019890D01*
X0059613Y0019997D01*
X0059517Y0020101D01*
X0059418Y0020202D01*
X0059317Y0020301D01*
X0059213Y0020397D01*
X0059106Y0020491D01*
X0058996Y0020581D01*
X0058885Y0020668D01*
X0058771Y0020753D01*
X0058654Y0020834D01*
X0058536Y0020912D01*
X0058415Y0020987D01*
X0058293Y0021058D01*
X0058169Y0021126D01*
X0058042Y0021191D01*
X0057915Y0021252D01*
X0057785Y0021310D01*
X0057654Y0021364D01*
X0057522Y0021415D01*
X0057388Y0021462D01*
X0057253Y0021505D01*
X0057117Y0021545D01*
X0056980Y0021581D01*
X0056842Y0021614D01*
X0056703Y0021642D01*
X0056563Y0021667D01*
X0056423Y0021688D01*
X0056282Y0021705D01*
X0056141Y0021719D01*
X0055999Y0021728D01*
X0055858Y0021734D01*
X0055716Y0021736D01*
D15*
X0030052Y0041500D03*
X0060052Y0051500D03*
X0064052Y0045500D03*
X0070052Y0061500D03*
X0051052Y0062000D03*
X0111052Y0037000D03*
X0110052Y0011500D03*
X0114552Y0082000D03*
M02*
