%
M48
M72
T01C0.0240
T02C0.0400
T03C0.0512
%
T01
X3005Y4150
X6005Y5150
X6405Y4550
X7005Y6150
X5105Y6200
X11105Y3700
X11005Y1150
X11455Y8200
T02
X10005Y8650
X9005Y8650
X9005Y7650
X10005Y7650
X10005Y6650
X9005Y6650
X9005Y5650
X10005Y5650
X10005Y4650
X9005Y4650
X9005Y3650
X10005Y3650
X10005Y2650
X9005Y2650
X9005Y1650
X10005Y1650
T03
X1556Y559
X3505Y796
X3505Y6504
X1556Y6741
M30
