G75*
%MOIN*%
%OFA0B0*%
%FSLAX25Y25*%
%IPPOS*%
%LPD*%
%AMOC8*
5,1,8,0,0,1.08239X$1,22.5*
%
%ADD10R,0.07880X0.01581*%
%ADD11C,0.08077*%
%ADD12OC8,0.06800*%
%ADD13R,0.06502X0.02762*%
D10*
X0055656Y0017799D03*
X0055656Y0019768D03*
X0055656Y0021736D03*
X0055656Y0023705D03*
X0055656Y0025673D03*
X0055656Y0027642D03*
X0055656Y0029610D03*
X0055656Y0031579D03*
X0055656Y0033547D03*
X0055656Y0035516D03*
X0055656Y0037484D03*
X0055656Y0039453D03*
X0055656Y0041421D03*
X0055656Y0043390D03*
X0055656Y0045358D03*
X0055656Y0047327D03*
X0055656Y0049295D03*
X0055656Y0051264D03*
X0055656Y0053232D03*
D11*
X0031231Y0005594D03*
X0050719Y0007957D03*
X0050719Y0065043D03*
X0031231Y0067406D03*
D12*
X0105719Y0066500D03*
X0115719Y0066500D03*
X0115719Y0056500D03*
X0105719Y0056500D03*
X0105719Y0046500D03*
X0115719Y0046500D03*
X0115719Y0036500D03*
X0105719Y0036500D03*
X0105719Y0026500D03*
X0115719Y0026500D03*
X0115719Y0016500D03*
X0105719Y0016500D03*
X0105719Y0076500D03*
X0115719Y0076500D03*
X0115719Y0086500D03*
X0105719Y0086500D03*
D13*
X0086849Y0086500D03*
X0086849Y0081500D03*
X0086849Y0076500D03*
X0086849Y0071500D03*
X0065589Y0071500D03*
X0065589Y0076500D03*
X0065589Y0081500D03*
X0065589Y0086500D03*
M02*
