G75*
%MOIN*%
%OFA0B0*%
%FSLAX25Y25*%
%IPPOS*%
%LPD*%
%AMOC8*
5,1,8,0,0,1.08239X$1,22.5*
%
%ADD10C,0.07677*%
%ADD11OC8,0.06400*%
%ADD12C,0.01000*%
%ADD13R,0.04000X0.04000*%
D10*
X0015564Y0005594D03*
X0035052Y0007957D03*
X0035052Y0065043D03*
X0015564Y0067406D03*
D11*
X0090052Y0066500D03*
X0100052Y0066500D03*
X0100052Y0056500D03*
X0090052Y0056500D03*
X0090052Y0046500D03*
X0100052Y0046500D03*
X0100052Y0036500D03*
X0090052Y0036500D03*
X0090052Y0026500D03*
X0100052Y0026500D03*
X0100052Y0016500D03*
X0090052Y0016500D03*
X0090052Y0076500D03*
X0100052Y0076500D03*
X0100052Y0086500D03*
X0090052Y0086500D03*
D12*
X0009028Y0003939D02*
X0007491Y0005476D01*
X0006659Y0007484D01*
X0006552Y0008571D01*
X0006552Y0087358D01*
X0006708Y0089336D01*
X0007930Y0093097D01*
X0010255Y0096297D01*
X0013455Y0098622D01*
X0017217Y0099844D01*
X0019194Y0100000D01*
X0107024Y0100000D01*
X0109182Y0099859D01*
X0113349Y0098742D01*
X0117086Y0096585D01*
X0120137Y0093534D01*
X0122294Y0089797D01*
X0123411Y0085630D01*
X0123552Y0083472D01*
X0123552Y0015642D01*
X0123444Y0013992D01*
X0122590Y0010804D01*
X0120940Y0007946D01*
X0118606Y0005612D01*
X0115748Y0003962D01*
X0112560Y0003108D01*
X0110910Y0003000D01*
X0037073Y0003000D01*
X0037101Y0003009D01*
X0037850Y0003391D01*
X0038530Y0003885D01*
X0039124Y0004479D01*
X0039618Y0005159D01*
X0040000Y0005907D01*
X0040259Y0006707D01*
X0040378Y0007457D01*
X0035552Y0007457D01*
X0035552Y0008457D01*
X0034552Y0008457D01*
X0034552Y0013283D01*
X0033802Y0013164D01*
X0033003Y0012904D01*
X0032254Y0012523D01*
X0031574Y0012029D01*
X0030980Y0011435D01*
X0030486Y0010755D01*
X0030105Y0010006D01*
X0029845Y0009207D01*
X0029726Y0008457D01*
X0034552Y0008457D01*
X0034552Y0007457D01*
X0029726Y0007457D01*
X0029845Y0006707D01*
X0030105Y0005907D01*
X0030486Y0005159D01*
X0030980Y0004479D01*
X0031574Y0003885D01*
X0032254Y0003391D01*
X0033003Y0003009D01*
X0033031Y0003000D01*
X0020234Y0003000D01*
X0020511Y0003545D01*
X0020771Y0004344D01*
X0020890Y0005094D01*
X0016064Y0005094D01*
X0016064Y0006094D01*
X0020890Y0006094D01*
X0020771Y0006845D01*
X0020511Y0007644D01*
X0020130Y0008393D01*
X0019636Y0009072D01*
X0019042Y0009667D01*
X0018362Y0010160D01*
X0017613Y0010542D01*
X0016814Y0010802D01*
X0016064Y0010920D01*
X0016064Y0006095D01*
X0015064Y0006095D01*
X0015064Y0010920D01*
X0014314Y0010802D01*
X0013515Y0010542D01*
X0012766Y0010160D01*
X0012086Y0009667D01*
X0011492Y0009072D01*
X0010998Y0008393D01*
X0010616Y0007644D01*
X0010357Y0006845D01*
X0010238Y0006094D01*
X0015064Y0006094D01*
X0015064Y0005094D01*
X0010238Y0005094D01*
X0010357Y0004344D01*
X0010616Y0003545D01*
X0010787Y0003210D01*
X0009028Y0003939D01*
X0008471Y0004496D02*
X0010333Y0004496D01*
X0010095Y0003497D02*
X0010641Y0003497D01*
X0007483Y0005494D02*
X0015064Y0005494D01*
X0015064Y0006493D02*
X0016064Y0006493D01*
X0016064Y0007491D02*
X0015064Y0007491D01*
X0015064Y0008490D02*
X0016064Y0008490D01*
X0016064Y0009488D02*
X0015064Y0009488D01*
X0015064Y0010487D02*
X0016064Y0010487D01*
X0017722Y0010487D02*
X0030350Y0010487D01*
X0029936Y0009488D02*
X0019220Y0009488D01*
X0020059Y0008490D02*
X0029731Y0008490D01*
X0029914Y0006493D02*
X0020827Y0006493D01*
X0020561Y0007491D02*
X0034552Y0007491D01*
X0034552Y0008490D02*
X0035552Y0008490D01*
X0035552Y0008457D02*
X0035552Y0013283D01*
X0036302Y0013164D01*
X0037101Y0012904D01*
X0037850Y0012523D01*
X0038530Y0012029D01*
X0039124Y0011435D01*
X0039618Y0010755D01*
X0040000Y0010006D01*
X0040259Y0009207D01*
X0040378Y0008457D01*
X0035552Y0008457D01*
X0035552Y0007491D02*
X0120485Y0007491D01*
X0121253Y0008490D02*
X0040373Y0008490D01*
X0040168Y0009488D02*
X0121830Y0009488D01*
X0122406Y0010487D02*
X0039755Y0010487D01*
X0039074Y0011485D02*
X0122772Y0011485D01*
X0123040Y0012484D02*
X0102117Y0012484D01*
X0101833Y0012200D02*
X0104352Y0014719D01*
X0104352Y0018281D01*
X0101833Y0020800D01*
X0098271Y0020800D01*
X0095752Y0018281D01*
X0095752Y0014719D01*
X0098271Y0012200D01*
X0101833Y0012200D01*
X0103115Y0013482D02*
X0123307Y0013482D01*
X0123476Y0014481D02*
X0104114Y0014481D01*
X0104352Y0015479D02*
X0123541Y0015479D01*
X0123552Y0016478D02*
X0104352Y0016478D01*
X0104352Y0017476D02*
X0123552Y0017476D01*
X0123552Y0018475D02*
X0104158Y0018475D01*
X0103160Y0019473D02*
X0123552Y0019473D01*
X0123552Y0020472D02*
X0102161Y0020472D01*
X0101833Y0022200D02*
X0098271Y0022200D01*
X0095752Y0024719D01*
X0095752Y0028281D01*
X0098271Y0030800D01*
X0101833Y0030800D01*
X0104352Y0028281D01*
X0104352Y0024719D01*
X0101833Y0022200D01*
X0102102Y0022469D02*
X0123552Y0022469D01*
X0123552Y0023467D02*
X0103100Y0023467D01*
X0104099Y0024466D02*
X0123552Y0024466D01*
X0123552Y0025464D02*
X0104352Y0025464D01*
X0104352Y0026463D02*
X0123552Y0026463D01*
X0123552Y0027461D02*
X0104352Y0027461D01*
X0104173Y0028460D02*
X0123552Y0028460D01*
X0123552Y0029458D02*
X0103175Y0029458D01*
X0102176Y0030457D02*
X0123552Y0030457D01*
X0123552Y0031455D02*
X0006552Y0031455D01*
X0006552Y0030457D02*
X0087928Y0030457D01*
X0088271Y0030800D02*
X0085752Y0028281D01*
X0085752Y0024719D01*
X0088271Y0022200D01*
X0091833Y0022200D01*
X0094352Y0024719D01*
X0094352Y0028281D01*
X0091833Y0030800D01*
X0088271Y0030800D01*
X0088271Y0032200D02*
X0091833Y0032200D01*
X0094352Y0034719D01*
X0094352Y0038281D01*
X0092733Y0039900D01*
X0096365Y0039900D01*
X0098082Y0040611D01*
X0095752Y0038281D01*
X0095752Y0034719D01*
X0098271Y0032200D01*
X0101833Y0032200D01*
X0104352Y0034719D01*
X0104352Y0038281D01*
X0101833Y0040800D01*
X0098538Y0040800D01*
X0098791Y0040905D01*
X0100086Y0042200D01*
X0101833Y0042200D01*
X0104352Y0044719D01*
X0104352Y0048281D01*
X0101833Y0050800D01*
X0098538Y0050800D01*
X0098791Y0050905D01*
X0100086Y0052200D01*
X0101833Y0052200D01*
X0104352Y0054719D01*
X0104352Y0058281D01*
X0101833Y0060800D01*
X0098271Y0060800D01*
X0095752Y0058281D01*
X0095752Y0054719D01*
X0096840Y0053631D01*
X0095715Y0053165D01*
X0095052Y0053100D01*
X0092733Y0053100D01*
X0094352Y0054719D01*
X0094352Y0058281D01*
X0091833Y0060800D01*
X0088271Y0060800D01*
X0085752Y0058281D01*
X0085752Y0058100D01*
X0063739Y0058100D01*
X0061313Y0057095D01*
X0059457Y0055239D01*
X0059457Y0055239D01*
X0059192Y0054600D01*
X0057596Y0054600D01*
X0056952Y0053956D01*
X0056952Y0049044D01*
X0057596Y0048400D01*
X0061396Y0048400D01*
X0060952Y0047956D01*
X0060952Y0043100D01*
X0033152Y0043100D01*
X0033152Y0043956D01*
X0032508Y0044600D01*
X0027596Y0044600D01*
X0026952Y0043956D01*
X0026952Y0039044D01*
X0027596Y0038400D01*
X0032508Y0038400D01*
X0033152Y0039044D01*
X0033152Y0039900D01*
X0087371Y0039900D01*
X0085752Y0038281D01*
X0085752Y0034719D01*
X0088271Y0032200D01*
X0088017Y0032454D02*
X0006552Y0032454D01*
X0006552Y0033452D02*
X0087019Y0033452D01*
X0086020Y0034451D02*
X0006552Y0034451D01*
X0006552Y0035449D02*
X0085752Y0035449D01*
X0085752Y0036448D02*
X0006552Y0036448D01*
X0006552Y0037446D02*
X0085752Y0037446D01*
X0085916Y0038445D02*
X0032553Y0038445D01*
X0033152Y0039443D02*
X0086914Y0039443D01*
X0093190Y0039443D02*
X0096914Y0039443D01*
X0097673Y0040442D02*
X0097913Y0040442D01*
X0098791Y0040905D02*
X0098791Y0040905D01*
X0099326Y0041440D02*
X0123552Y0041440D01*
X0123552Y0040442D02*
X0102191Y0040442D01*
X0103190Y0039443D02*
X0123552Y0039443D01*
X0123552Y0038445D02*
X0104188Y0038445D01*
X0104352Y0037446D02*
X0123552Y0037446D01*
X0123552Y0036448D02*
X0104352Y0036448D01*
X0104352Y0035449D02*
X0123552Y0035449D01*
X0123552Y0034451D02*
X0104084Y0034451D01*
X0103086Y0033452D02*
X0123552Y0033452D01*
X0123552Y0032454D02*
X0102087Y0032454D01*
X0098017Y0032454D02*
X0092087Y0032454D01*
X0093086Y0033452D02*
X0097019Y0033452D01*
X0096020Y0034451D02*
X0094084Y0034451D01*
X0094352Y0035449D02*
X0095752Y0035449D01*
X0095752Y0036448D02*
X0094352Y0036448D01*
X0094352Y0037446D02*
X0095752Y0037446D01*
X0095916Y0038445D02*
X0094188Y0038445D01*
X0095052Y0041500D02*
X0030052Y0041500D01*
X0026952Y0041440D02*
X0006552Y0041440D01*
X0006552Y0040442D02*
X0026952Y0040442D01*
X0026952Y0039443D02*
X0006552Y0039443D01*
X0006552Y0038445D02*
X0027552Y0038445D01*
X0026952Y0042439D02*
X0006552Y0042439D01*
X0006552Y0043437D02*
X0026952Y0043437D01*
X0027432Y0044436D02*
X0006552Y0044436D01*
X0006552Y0045434D02*
X0060952Y0045434D01*
X0060952Y0044436D02*
X0032672Y0044436D01*
X0033152Y0043437D02*
X0060952Y0043437D01*
X0060952Y0046433D02*
X0006552Y0046433D01*
X0006552Y0047432D02*
X0060952Y0047432D01*
X0057566Y0048430D02*
X0006552Y0048430D01*
X0006552Y0049429D02*
X0056952Y0049429D01*
X0056952Y0050427D02*
X0006552Y0050427D01*
X0006552Y0051426D02*
X0056952Y0051426D01*
X0056952Y0052424D02*
X0006552Y0052424D01*
X0006552Y0053423D02*
X0056952Y0053423D01*
X0057418Y0054421D02*
X0006552Y0054421D01*
X0006552Y0055420D02*
X0059638Y0055420D01*
X0060636Y0056418D02*
X0006552Y0056418D01*
X0006552Y0057417D02*
X0062089Y0057417D01*
X0061313Y0057095D02*
X0061313Y0057095D01*
X0065052Y0056500D02*
X0090052Y0056500D01*
X0094352Y0056418D02*
X0095752Y0056418D01*
X0100052Y0056500D02*
X0100050Y0056360D01*
X0100044Y0056220D01*
X0100034Y0056080D01*
X0100021Y0055940D01*
X0100003Y0055801D01*
X0099981Y0055662D01*
X0099956Y0055525D01*
X0099927Y0055387D01*
X0099894Y0055251D01*
X0099857Y0055116D01*
X0099816Y0054982D01*
X0099771Y0054849D01*
X0099723Y0054717D01*
X0099671Y0054587D01*
X0099616Y0054458D01*
X0099557Y0054331D01*
X0099494Y0054205D01*
X0099428Y0054081D01*
X0099359Y0053960D01*
X0099286Y0053840D01*
X0099209Y0053722D01*
X0099130Y0053607D01*
X0099047Y0053493D01*
X0098961Y0053383D01*
X0098872Y0053274D01*
X0098780Y0053168D01*
X0098685Y0053065D01*
X0098588Y0052964D01*
X0098487Y0052867D01*
X0098384Y0052772D01*
X0098278Y0052680D01*
X0098169Y0052591D01*
X0098059Y0052505D01*
X0097945Y0052422D01*
X0097830Y0052343D01*
X0097712Y0052266D01*
X0097592Y0052193D01*
X0097471Y0052124D01*
X0097347Y0052058D01*
X0097221Y0051995D01*
X0097094Y0051936D01*
X0096965Y0051881D01*
X0096835Y0051829D01*
X0096703Y0051781D01*
X0096570Y0051736D01*
X0096436Y0051695D01*
X0096301Y0051658D01*
X0096165Y0051625D01*
X0096027Y0051596D01*
X0095890Y0051571D01*
X0095751Y0051549D01*
X0095612Y0051531D01*
X0095472Y0051518D01*
X0095332Y0051508D01*
X0095192Y0051502D01*
X0095052Y0051500D01*
X0084052Y0051500D01*
X0083945Y0051498D01*
X0083838Y0051492D01*
X0083731Y0051483D01*
X0083625Y0051469D01*
X0083519Y0051452D01*
X0083414Y0051431D01*
X0083310Y0051407D01*
X0083207Y0051378D01*
X0083105Y0051346D01*
X0083004Y0051311D01*
X0082904Y0051272D01*
X0082806Y0051229D01*
X0082709Y0051183D01*
X0082614Y0051133D01*
X0082521Y0051080D01*
X0082430Y0051024D01*
X0082341Y0050964D01*
X0082254Y0050902D01*
X0082170Y0050836D01*
X0082087Y0050767D01*
X0082008Y0050696D01*
X0081931Y0050621D01*
X0081856Y0050544D01*
X0081785Y0050465D01*
X0081716Y0050382D01*
X0081650Y0050298D01*
X0081588Y0050211D01*
X0081528Y0050122D01*
X0081472Y0050031D01*
X0081419Y0049938D01*
X0081369Y0049843D01*
X0081323Y0049746D01*
X0081280Y0049648D01*
X0081241Y0049548D01*
X0081206Y0049447D01*
X0081174Y0049345D01*
X0081145Y0049242D01*
X0081121Y0049138D01*
X0081100Y0049033D01*
X0081083Y0048927D01*
X0081069Y0048821D01*
X0081060Y0048714D01*
X0081054Y0048607D01*
X0081052Y0048500D01*
X0081050Y0048393D01*
X0081044Y0048286D01*
X0081035Y0048179D01*
X0081021Y0048073D01*
X0081004Y0047967D01*
X0080983Y0047862D01*
X0080959Y0047758D01*
X0080930Y0047655D01*
X0080898Y0047553D01*
X0080863Y0047452D01*
X0080824Y0047352D01*
X0080781Y0047254D01*
X0080735Y0047157D01*
X0080685Y0047062D01*
X0080632Y0046969D01*
X0080576Y0046878D01*
X0080516Y0046789D01*
X0080454Y0046702D01*
X0080388Y0046618D01*
X0080319Y0046535D01*
X0080248Y0046456D01*
X0080173Y0046379D01*
X0080096Y0046304D01*
X0080017Y0046233D01*
X0079934Y0046164D01*
X0079850Y0046098D01*
X0079763Y0046036D01*
X0079674Y0045976D01*
X0079583Y0045920D01*
X0079490Y0045867D01*
X0079395Y0045817D01*
X0079298Y0045771D01*
X0079200Y0045728D01*
X0079100Y0045689D01*
X0078999Y0045654D01*
X0078897Y0045622D01*
X0078794Y0045593D01*
X0078690Y0045569D01*
X0078585Y0045548D01*
X0078479Y0045531D01*
X0078373Y0045517D01*
X0078266Y0045508D01*
X0078159Y0045502D01*
X0078052Y0045500D01*
X0064052Y0045500D01*
X0060052Y0051500D02*
X0060054Y0051640D01*
X0060060Y0051780D01*
X0060070Y0051920D01*
X0060083Y0052060D01*
X0060101Y0052199D01*
X0060123Y0052338D01*
X0060148Y0052475D01*
X0060177Y0052613D01*
X0060210Y0052749D01*
X0060247Y0052884D01*
X0060288Y0053018D01*
X0060333Y0053151D01*
X0060381Y0053283D01*
X0060433Y0053413D01*
X0060488Y0053542D01*
X0060547Y0053669D01*
X0060610Y0053795D01*
X0060676Y0053919D01*
X0060745Y0054040D01*
X0060818Y0054160D01*
X0060895Y0054278D01*
X0060974Y0054393D01*
X0061057Y0054507D01*
X0061143Y0054617D01*
X0061232Y0054726D01*
X0061324Y0054832D01*
X0061419Y0054935D01*
X0061516Y0055036D01*
X0061617Y0055133D01*
X0061720Y0055228D01*
X0061826Y0055320D01*
X0061935Y0055409D01*
X0062045Y0055495D01*
X0062159Y0055578D01*
X0062274Y0055657D01*
X0062392Y0055734D01*
X0062512Y0055807D01*
X0062633Y0055876D01*
X0062757Y0055942D01*
X0062883Y0056005D01*
X0063010Y0056064D01*
X0063139Y0056119D01*
X0063269Y0056171D01*
X0063401Y0056219D01*
X0063534Y0056264D01*
X0063668Y0056305D01*
X0063803Y0056342D01*
X0063939Y0056375D01*
X0064077Y0056404D01*
X0064214Y0056429D01*
X0064353Y0056451D01*
X0064492Y0056469D01*
X0064632Y0056482D01*
X0064772Y0056492D01*
X0064912Y0056498D01*
X0065052Y0056500D01*
X0085886Y0058415D02*
X0006552Y0058415D01*
X0006552Y0059414D02*
X0086885Y0059414D01*
X0087883Y0060412D02*
X0037722Y0060412D01*
X0037850Y0060477D02*
X0038530Y0060971D01*
X0039124Y0061565D01*
X0039618Y0062245D01*
X0040000Y0062994D01*
X0040259Y0063793D01*
X0040378Y0064543D01*
X0035552Y0064543D01*
X0035552Y0059717D01*
X0036302Y0059836D01*
X0037101Y0060096D01*
X0037850Y0060477D01*
X0038969Y0061411D02*
X0123552Y0061411D01*
X0123552Y0062409D02*
X0102042Y0062409D01*
X0101833Y0062200D02*
X0104352Y0064719D01*
X0104352Y0068281D01*
X0101833Y0070800D01*
X0098271Y0070800D01*
X0095752Y0068281D01*
X0095752Y0064719D01*
X0098271Y0062200D01*
X0101833Y0062200D01*
X0103041Y0063408D02*
X0123552Y0063408D01*
X0123552Y0064406D02*
X0104039Y0064406D01*
X0104352Y0065405D02*
X0123552Y0065405D01*
X0123552Y0066403D02*
X0104352Y0066403D01*
X0104352Y0067402D02*
X0123552Y0067402D01*
X0123552Y0068400D02*
X0104233Y0068400D01*
X0103234Y0069399D02*
X0123552Y0069399D01*
X0123552Y0070397D02*
X0102236Y0070397D01*
X0101999Y0071800D02*
X0100552Y0071800D01*
X0100552Y0076000D01*
X0099552Y0076000D01*
X0095352Y0076000D01*
X0095352Y0074553D01*
X0098105Y0071800D01*
X0099552Y0071800D01*
X0099552Y0076000D01*
X0099552Y0077000D01*
X0095352Y0077000D01*
X0095352Y0078447D01*
X0098105Y0081200D01*
X0099552Y0081200D01*
X0099552Y0077000D01*
X0100552Y0077000D01*
X0100552Y0081200D01*
X0101999Y0081200D01*
X0104752Y0078447D01*
X0104752Y0077000D01*
X0100552Y0077000D01*
X0100552Y0076000D01*
X0104752Y0076000D01*
X0104752Y0074553D01*
X0101999Y0071800D01*
X0102593Y0072394D02*
X0123552Y0072394D01*
X0123552Y0071396D02*
X0019123Y0071396D01*
X0019042Y0071478D02*
X0018362Y0071971D01*
X0017613Y0072353D01*
X0016814Y0072613D01*
X0016064Y0072731D01*
X0016064Y0067906D01*
X0015064Y0067906D01*
X0015064Y0072731D01*
X0014314Y0072613D01*
X0013515Y0072353D01*
X0012766Y0071971D01*
X0012086Y0071478D01*
X0011492Y0070883D01*
X0010998Y0070204D01*
X0010616Y0069455D01*
X0010357Y0068656D01*
X0010238Y0067905D01*
X0015064Y0067905D01*
X0015064Y0066906D01*
X0010238Y0066906D01*
X0010357Y0066155D01*
X0010616Y0065356D01*
X0010998Y0064607D01*
X0011492Y0063928D01*
X0012086Y0063333D01*
X0012766Y0062840D01*
X0013515Y0062458D01*
X0014314Y0062198D01*
X0015064Y0062080D01*
X0015064Y0066905D01*
X0016064Y0066905D01*
X0016064Y0062080D01*
X0016814Y0062198D01*
X0017613Y0062458D01*
X0018362Y0062840D01*
X0019042Y0063333D01*
X0019636Y0063928D01*
X0020130Y0064607D01*
X0020511Y0065356D01*
X0020771Y0066155D01*
X0020890Y0066906D01*
X0016064Y0066906D01*
X0016064Y0067905D01*
X0020890Y0067905D01*
X0020771Y0068656D01*
X0020511Y0069455D01*
X0020130Y0070204D01*
X0019636Y0070883D01*
X0019042Y0071478D01*
X0019989Y0070397D02*
X0087868Y0070397D01*
X0088271Y0070800D02*
X0085752Y0068281D01*
X0085752Y0064719D01*
X0088271Y0062200D01*
X0091833Y0062200D01*
X0094352Y0064719D01*
X0094352Y0068281D01*
X0091833Y0070800D01*
X0088271Y0070800D01*
X0088271Y0072200D02*
X0091833Y0072200D01*
X0094352Y0074719D01*
X0094352Y0078281D01*
X0091833Y0080800D01*
X0088271Y0080800D01*
X0085752Y0078281D01*
X0085752Y0074719D01*
X0088271Y0072200D01*
X0088077Y0072394D02*
X0017486Y0072394D01*
X0016064Y0072394D02*
X0015064Y0072394D01*
X0015064Y0071396D02*
X0016064Y0071396D01*
X0016064Y0070397D02*
X0015064Y0070397D01*
X0015064Y0069399D02*
X0016064Y0069399D01*
X0016064Y0068400D02*
X0015064Y0068400D01*
X0015064Y0067402D02*
X0006552Y0067402D01*
X0006552Y0068400D02*
X0010316Y0068400D01*
X0010598Y0069399D02*
X0006552Y0069399D01*
X0006552Y0070397D02*
X0011139Y0070397D01*
X0012004Y0071396D02*
X0006552Y0071396D01*
X0006552Y0072394D02*
X0013642Y0072394D01*
X0006552Y0073393D02*
X0087078Y0073393D01*
X0086080Y0074391D02*
X0006552Y0074391D01*
X0006552Y0075390D02*
X0085752Y0075390D01*
X0085752Y0076388D02*
X0006552Y0076388D01*
X0006552Y0077387D02*
X0085752Y0077387D01*
X0085856Y0078385D02*
X0006552Y0078385D01*
X0006552Y0079384D02*
X0086855Y0079384D01*
X0087853Y0080382D02*
X0006552Y0080382D01*
X0006552Y0081381D02*
X0123552Y0081381D01*
X0123552Y0082379D02*
X0102578Y0082379D01*
X0101999Y0081800D02*
X0100552Y0081800D01*
X0100552Y0086000D01*
X0099552Y0086000D01*
X0095352Y0086000D01*
X0095352Y0084553D01*
X0098105Y0081800D01*
X0099552Y0081800D01*
X0099552Y0086000D01*
X0099552Y0087000D01*
X0095352Y0087000D01*
X0095352Y0088447D01*
X0098105Y0091200D01*
X0099552Y0091200D01*
X0099552Y0087000D01*
X0100552Y0087000D01*
X0100552Y0091200D01*
X0101999Y0091200D01*
X0104752Y0088447D01*
X0104752Y0087000D01*
X0100552Y0087000D01*
X0100552Y0086000D01*
X0104752Y0086000D01*
X0104752Y0084553D01*
X0101999Y0081800D01*
X0100552Y0082379D02*
X0099552Y0082379D01*
X0099552Y0083378D02*
X0100552Y0083378D01*
X0100552Y0084376D02*
X0099552Y0084376D01*
X0099552Y0085375D02*
X0100552Y0085375D01*
X0100552Y0086373D02*
X0123211Y0086373D01*
X0123427Y0085375D02*
X0104752Y0085375D01*
X0104575Y0084376D02*
X0123493Y0084376D01*
X0123552Y0083378D02*
X0103577Y0083378D01*
X0099552Y0086373D02*
X0094352Y0086373D01*
X0094352Y0085375D02*
X0095352Y0085375D01*
X0095529Y0084376D02*
X0094010Y0084376D01*
X0094352Y0084719D02*
X0091833Y0082200D01*
X0088271Y0082200D01*
X0085752Y0084719D01*
X0085752Y0088281D01*
X0088271Y0090800D01*
X0091833Y0090800D01*
X0094352Y0088281D01*
X0094352Y0084719D01*
X0093011Y0083378D02*
X0096527Y0083378D01*
X0097526Y0082379D02*
X0092013Y0082379D01*
X0092251Y0080382D02*
X0097288Y0080382D01*
X0096289Y0079384D02*
X0093249Y0079384D01*
X0094248Y0078385D02*
X0095352Y0078385D01*
X0095352Y0077387D02*
X0094352Y0077387D01*
X0094352Y0076388D02*
X0099552Y0076388D01*
X0099552Y0075390D02*
X0100552Y0075390D01*
X0100552Y0076388D02*
X0123552Y0076388D01*
X0123552Y0075390D02*
X0104752Y0075390D01*
X0104590Y0074391D02*
X0123552Y0074391D01*
X0123552Y0073393D02*
X0103592Y0073393D01*
X0100552Y0073393D02*
X0099552Y0073393D01*
X0099552Y0074391D02*
X0100552Y0074391D01*
X0100552Y0072394D02*
X0099552Y0072394D01*
X0097511Y0072394D02*
X0092027Y0072394D01*
X0093026Y0073393D02*
X0096512Y0073393D01*
X0095514Y0074391D02*
X0094025Y0074391D01*
X0094352Y0075390D02*
X0095352Y0075390D01*
X0099552Y0077387D02*
X0100552Y0077387D01*
X0100552Y0078385D02*
X0099552Y0078385D01*
X0099552Y0079384D02*
X0100552Y0079384D01*
X0100552Y0080382D02*
X0099552Y0080382D01*
X0102816Y0080382D02*
X0123552Y0080382D01*
X0123552Y0079384D02*
X0103815Y0079384D01*
X0104752Y0078385D02*
X0123552Y0078385D01*
X0123552Y0077387D02*
X0104752Y0077387D01*
X0097868Y0070397D02*
X0092236Y0070397D01*
X0093234Y0069399D02*
X0096870Y0069399D01*
X0095871Y0068400D02*
X0094233Y0068400D01*
X0094352Y0067402D02*
X0095752Y0067402D01*
X0095752Y0066403D02*
X0094352Y0066403D01*
X0094352Y0065405D02*
X0095752Y0065405D01*
X0096065Y0064406D02*
X0094039Y0064406D01*
X0093041Y0063408D02*
X0097063Y0063408D01*
X0098062Y0062409D02*
X0092042Y0062409D01*
X0092221Y0060412D02*
X0097883Y0060412D01*
X0096885Y0059414D02*
X0093220Y0059414D01*
X0094218Y0058415D02*
X0095886Y0058415D01*
X0095752Y0057417D02*
X0094352Y0057417D01*
X0094352Y0055420D02*
X0095752Y0055420D01*
X0096050Y0054421D02*
X0094054Y0054421D01*
X0093056Y0053423D02*
X0096337Y0053423D01*
X0098791Y0050905D02*
X0098791Y0050905D01*
X0099311Y0051426D02*
X0123552Y0051426D01*
X0123552Y0052424D02*
X0102057Y0052424D01*
X0103056Y0053423D02*
X0123552Y0053423D01*
X0123552Y0054421D02*
X0104054Y0054421D01*
X0104352Y0055420D02*
X0123552Y0055420D01*
X0123552Y0056418D02*
X0104352Y0056418D01*
X0104352Y0057417D02*
X0123552Y0057417D01*
X0123552Y0058415D02*
X0104218Y0058415D01*
X0103220Y0059414D02*
X0123552Y0059414D01*
X0123552Y0060412D02*
X0102221Y0060412D01*
X0088062Y0062409D02*
X0039702Y0062409D01*
X0040134Y0063408D02*
X0087063Y0063408D01*
X0086065Y0064406D02*
X0040356Y0064406D01*
X0040378Y0065543D02*
X0040259Y0066293D01*
X0040000Y0067093D01*
X0039618Y0067841D01*
X0039124Y0068521D01*
X0038530Y0069115D01*
X0037850Y0069609D01*
X0037101Y0069991D01*
X0036302Y0070250D01*
X0035552Y0070369D01*
X0035552Y0065543D01*
X0040378Y0065543D01*
X0040224Y0066403D02*
X0085752Y0066403D01*
X0085752Y0065405D02*
X0035552Y0065405D01*
X0035552Y0065543D02*
X0035552Y0064543D01*
X0034552Y0064543D01*
X0034552Y0059717D01*
X0033802Y0059836D01*
X0033003Y0060096D01*
X0032254Y0060477D01*
X0031574Y0060971D01*
X0030980Y0061565D01*
X0030486Y0062245D01*
X0030105Y0062994D01*
X0029845Y0063793D01*
X0029726Y0064543D01*
X0034552Y0064543D01*
X0034552Y0065543D01*
X0029726Y0065543D01*
X0029845Y0066293D01*
X0030105Y0067093D01*
X0030486Y0067841D01*
X0030980Y0068521D01*
X0031574Y0069115D01*
X0032254Y0069609D01*
X0033003Y0069991D01*
X0033802Y0070250D01*
X0034552Y0070369D01*
X0034552Y0065543D01*
X0035552Y0065543D01*
X0035552Y0066403D02*
X0034552Y0066403D01*
X0034552Y0065405D02*
X0020527Y0065405D01*
X0020810Y0066403D02*
X0029881Y0066403D01*
X0030262Y0067402D02*
X0016064Y0067402D01*
X0016064Y0066403D02*
X0015064Y0066403D01*
X0015064Y0065405D02*
X0016064Y0065405D01*
X0016064Y0064406D02*
X0015064Y0064406D01*
X0015064Y0063408D02*
X0016064Y0063408D01*
X0016064Y0062409D02*
X0015064Y0062409D01*
X0013665Y0062409D02*
X0006552Y0062409D01*
X0006552Y0061411D02*
X0031135Y0061411D01*
X0030403Y0062409D02*
X0017463Y0062409D01*
X0019116Y0063408D02*
X0029970Y0063408D01*
X0029748Y0064406D02*
X0019984Y0064406D01*
X0020811Y0068400D02*
X0030892Y0068400D01*
X0031964Y0069399D02*
X0020530Y0069399D01*
X0010601Y0065405D02*
X0006552Y0065405D01*
X0006552Y0066403D02*
X0010317Y0066403D01*
X0011144Y0064406D02*
X0006552Y0064406D01*
X0006552Y0063408D02*
X0012012Y0063408D01*
X0006552Y0060412D02*
X0032382Y0060412D01*
X0034552Y0060412D02*
X0035552Y0060412D01*
X0035552Y0061411D02*
X0034552Y0061411D01*
X0034552Y0062409D02*
X0035552Y0062409D01*
X0035552Y0063408D02*
X0034552Y0063408D01*
X0034552Y0064406D02*
X0035552Y0064406D01*
X0035552Y0067402D02*
X0034552Y0067402D01*
X0034552Y0068400D02*
X0035552Y0068400D01*
X0035552Y0069399D02*
X0034552Y0069399D01*
X0038140Y0069399D02*
X0086870Y0069399D01*
X0085871Y0068400D02*
X0039212Y0068400D01*
X0039842Y0067402D02*
X0085752Y0067402D01*
X0088092Y0082379D02*
X0006552Y0082379D01*
X0006552Y0083378D02*
X0087093Y0083378D01*
X0086095Y0084376D02*
X0006552Y0084376D01*
X0006552Y0085375D02*
X0085752Y0085375D01*
X0085752Y0086373D02*
X0006552Y0086373D01*
X0006553Y0087372D02*
X0085752Y0087372D01*
X0085841Y0088370D02*
X0006632Y0088370D01*
X0006719Y0089369D02*
X0086840Y0089369D01*
X0087838Y0090368D02*
X0007043Y0090368D01*
X0007367Y0091366D02*
X0121388Y0091366D01*
X0120812Y0092365D02*
X0007692Y0092365D01*
X0008123Y0093363D02*
X0120235Y0093363D01*
X0119309Y0094362D02*
X0008849Y0094362D01*
X0009574Y0095360D02*
X0118310Y0095360D01*
X0117312Y0096359D02*
X0010339Y0096359D01*
X0011714Y0097357D02*
X0115748Y0097357D01*
X0114018Y0098356D02*
X0013088Y0098356D01*
X0015708Y0099354D02*
X0111064Y0099354D01*
X0102831Y0090368D02*
X0121965Y0090368D01*
X0122409Y0089369D02*
X0103830Y0089369D01*
X0104752Y0088370D02*
X0122676Y0088370D01*
X0122944Y0087372D02*
X0104752Y0087372D01*
X0100552Y0087372D02*
X0099552Y0087372D01*
X0099552Y0088370D02*
X0100552Y0088370D01*
X0100552Y0089369D02*
X0099552Y0089369D01*
X0099552Y0090368D02*
X0100552Y0090368D01*
X0097273Y0090368D02*
X0092266Y0090368D01*
X0093264Y0089369D02*
X0096274Y0089369D01*
X0095352Y0088370D02*
X0094263Y0088370D01*
X0094352Y0087372D02*
X0095352Y0087372D01*
X0102206Y0050427D02*
X0123552Y0050427D01*
X0123552Y0049429D02*
X0103205Y0049429D01*
X0104203Y0048430D02*
X0123552Y0048430D01*
X0123552Y0047432D02*
X0104352Y0047432D01*
X0104352Y0046433D02*
X0123552Y0046433D01*
X0123552Y0045434D02*
X0104352Y0045434D01*
X0104069Y0044436D02*
X0123552Y0044436D01*
X0123552Y0043437D02*
X0103071Y0043437D01*
X0102072Y0042439D02*
X0123552Y0042439D01*
X0097928Y0030457D02*
X0092176Y0030457D01*
X0093175Y0029458D02*
X0096929Y0029458D01*
X0095931Y0028460D02*
X0094173Y0028460D01*
X0094352Y0027461D02*
X0095752Y0027461D01*
X0095752Y0026463D02*
X0094352Y0026463D01*
X0094352Y0025464D02*
X0095752Y0025464D01*
X0096005Y0024466D02*
X0094099Y0024466D01*
X0093100Y0023467D02*
X0097004Y0023467D01*
X0098002Y0022469D02*
X0092102Y0022469D01*
X0091833Y0020800D02*
X0088271Y0020800D01*
X0085752Y0018281D01*
X0085752Y0014719D01*
X0088271Y0012200D01*
X0091833Y0012200D01*
X0094352Y0014719D01*
X0094352Y0018281D01*
X0091833Y0020800D01*
X0092161Y0020472D02*
X0097943Y0020472D01*
X0096944Y0019473D02*
X0093160Y0019473D01*
X0094158Y0018475D02*
X0095946Y0018475D01*
X0095752Y0017476D02*
X0094352Y0017476D01*
X0094352Y0016478D02*
X0095752Y0016478D01*
X0095752Y0015479D02*
X0094352Y0015479D01*
X0094114Y0014481D02*
X0095990Y0014481D01*
X0096989Y0013482D02*
X0093115Y0013482D01*
X0092117Y0012484D02*
X0097987Y0012484D01*
X0087987Y0012484D02*
X0037904Y0012484D01*
X0035552Y0012484D02*
X0034552Y0012484D01*
X0034552Y0011485D02*
X0035552Y0011485D01*
X0035552Y0010487D02*
X0034552Y0010487D01*
X0034552Y0009488D02*
X0035552Y0009488D01*
X0031031Y0011485D02*
X0006552Y0011485D01*
X0006552Y0010487D02*
X0013406Y0010487D01*
X0011908Y0009488D02*
X0006552Y0009488D01*
X0006560Y0008490D02*
X0011068Y0008490D01*
X0010567Y0007491D02*
X0006658Y0007491D01*
X0007070Y0006493D02*
X0010301Y0006493D01*
X0016064Y0005494D02*
X0030315Y0005494D01*
X0030968Y0004496D02*
X0020795Y0004496D01*
X0020487Y0003497D02*
X0032108Y0003497D01*
X0037996Y0003497D02*
X0114011Y0003497D01*
X0116671Y0004496D02*
X0039136Y0004496D01*
X0039789Y0005494D02*
X0118401Y0005494D01*
X0119486Y0006493D02*
X0040190Y0006493D01*
X0032200Y0012484D02*
X0006552Y0012484D01*
X0006552Y0013482D02*
X0086989Y0013482D01*
X0085990Y0014481D02*
X0006552Y0014481D01*
X0006552Y0015479D02*
X0085752Y0015479D01*
X0085752Y0016478D02*
X0006552Y0016478D01*
X0006552Y0017476D02*
X0085752Y0017476D01*
X0085946Y0018475D02*
X0006552Y0018475D01*
X0006552Y0019473D02*
X0086944Y0019473D01*
X0087943Y0020472D02*
X0006552Y0020472D01*
X0006552Y0021470D02*
X0123552Y0021470D01*
X0088002Y0022469D02*
X0006552Y0022469D01*
X0006552Y0023467D02*
X0087004Y0023467D01*
X0086005Y0024466D02*
X0006552Y0024466D01*
X0006552Y0025464D02*
X0085752Y0025464D01*
X0085752Y0026463D02*
X0006552Y0026463D01*
X0006552Y0027461D02*
X0085752Y0027461D01*
X0085931Y0028460D02*
X0006552Y0028460D01*
X0006552Y0029458D02*
X0086929Y0029458D01*
X0095052Y0041500D02*
X0095192Y0041502D01*
X0095332Y0041508D01*
X0095472Y0041518D01*
X0095612Y0041531D01*
X0095751Y0041549D01*
X0095890Y0041571D01*
X0096027Y0041596D01*
X0096165Y0041625D01*
X0096301Y0041658D01*
X0096436Y0041695D01*
X0096570Y0041736D01*
X0096703Y0041781D01*
X0096835Y0041829D01*
X0096965Y0041881D01*
X0097094Y0041936D01*
X0097221Y0041995D01*
X0097347Y0042058D01*
X0097471Y0042124D01*
X0097592Y0042193D01*
X0097712Y0042266D01*
X0097830Y0042343D01*
X0097945Y0042422D01*
X0098059Y0042505D01*
X0098169Y0042591D01*
X0098278Y0042680D01*
X0098384Y0042772D01*
X0098487Y0042867D01*
X0098588Y0042964D01*
X0098685Y0043065D01*
X0098780Y0043168D01*
X0098872Y0043274D01*
X0098961Y0043383D01*
X0099047Y0043493D01*
X0099130Y0043607D01*
X0099209Y0043722D01*
X0099286Y0043840D01*
X0099359Y0043960D01*
X0099428Y0044081D01*
X0099494Y0044205D01*
X0099557Y0044331D01*
X0099616Y0044458D01*
X0099671Y0044587D01*
X0099723Y0044717D01*
X0099771Y0044849D01*
X0099816Y0044982D01*
X0099857Y0045116D01*
X0099894Y0045251D01*
X0099927Y0045387D01*
X0099956Y0045525D01*
X0099981Y0045662D01*
X0100003Y0045801D01*
X0100021Y0045940D01*
X0100034Y0046080D01*
X0100044Y0046220D01*
X0100050Y0046360D01*
X0100052Y0046500D01*
D13*
X0111052Y0037000D03*
X0064052Y0045500D03*
X0060052Y0051500D03*
X0070052Y0061500D03*
X0051052Y0062000D03*
X0030052Y0041500D03*
X0110052Y0011500D03*
X0114552Y0082000D03*
M02*
