%
M48
M72
T01C0.0236
T02C0.0240
T03C0.0400
T04C0.0512
%
T01
X8072Y5650
X7572Y6650
T02
X6672Y6200
X8572Y6150
X7972Y4550
X4572Y4150
X12572Y1150
X12672Y3700
X13022Y8200
T03
X11572Y8650
X10572Y8650
X10572Y7650
X11572Y7650
X11572Y6650
X10572Y6650
X10572Y5650
X11572Y5650
X11572Y4650
X10572Y4650
X10572Y3650
X11572Y3650
X11572Y2650
X10572Y2650
X10572Y1650
X11572Y1650
T04
X3123Y559
X5072Y796
X5072Y6504
X3123Y6741
M30
