G75*
%MOIN*%
%OFA0B0*%
%FSLAX25Y25*%
%IPPOS*%
%LPD*%
%AMOC8*
5,1,8,0,0,1.08239X$1,22.5*
%
%ADD10R,0.11811X0.02362*%
%ADD11R,0.07874X0.03937*%
%ADD12C,0.07400*%
%ADD13C,0.01000*%
%ADD14C,0.02900*%
%ADD15R,0.03962X0.03962*%
%ADD16C,0.01600*%
D10*
X0010906Y0013783D03*
X0010906Y0017720D03*
X0010906Y0021657D03*
X0010906Y0025594D03*
X0010906Y0029531D03*
X0010906Y0033469D03*
X0010906Y0037406D03*
X0010906Y0041343D03*
X0010906Y0045280D03*
X0010906Y0049217D03*
D11*
X0008937Y0059059D03*
X0008937Y0003941D03*
D12*
X0050000Y0006500D03*
X0051000Y0016500D03*
X0050000Y0026500D03*
X0051000Y0036500D03*
X0050000Y0046500D03*
X0051000Y0056500D03*
D13*
X0006500Y0011502D02*
X0006500Y0007409D01*
X0008453Y0007409D01*
X0008453Y0004425D01*
X0009421Y0004425D01*
X0009421Y0007409D01*
X0013071Y0007409D01*
X0013453Y0007307D01*
X0013795Y0007110D01*
X0014074Y0006830D01*
X0014272Y0006488D01*
X0014374Y0006107D01*
X0014374Y0004425D01*
X0009421Y0004425D01*
X0009421Y0003457D01*
X0014374Y0003457D01*
X0014374Y0003000D01*
X0018600Y0003000D01*
X0018600Y0035506D01*
X0018049Y0035506D01*
X0018209Y0035229D01*
X0018311Y0034847D01*
X0018311Y0033559D01*
X0010996Y0033559D01*
X0010996Y0033378D01*
X0018311Y0033378D01*
X0018311Y0032090D01*
X0018209Y0031708D01*
X0018011Y0031366D01*
X0017862Y0031217D01*
X0017911Y0031168D01*
X0017911Y0027895D01*
X0017579Y0027563D01*
X0017911Y0027231D01*
X0017911Y0023958D01*
X0017862Y0023909D01*
X0018011Y0023760D01*
X0018209Y0023418D01*
X0018311Y0023036D01*
X0018311Y0021748D01*
X0010996Y0021748D01*
X0010996Y0021567D01*
X0018311Y0021567D01*
X0018311Y0020279D01*
X0018209Y0019897D01*
X0018011Y0019555D01*
X0017862Y0019406D01*
X0017911Y0019357D01*
X0017911Y0016084D01*
X0017579Y0015752D01*
X0017911Y0015420D01*
X0017911Y0012147D01*
X0017267Y0011502D01*
X0006500Y0011502D01*
X0006500Y0011485D02*
X0018600Y0011485D01*
X0018600Y0012484D02*
X0017911Y0012484D01*
X0017911Y0013482D02*
X0018600Y0013482D01*
X0018600Y0014481D02*
X0017911Y0014481D01*
X0017852Y0015479D02*
X0018600Y0015479D01*
X0018600Y0016478D02*
X0017911Y0016478D01*
X0017911Y0017476D02*
X0018600Y0017476D01*
X0018600Y0018475D02*
X0017911Y0018475D01*
X0017929Y0019473D02*
X0018600Y0019473D01*
X0018600Y0020472D02*
X0018311Y0020472D01*
X0018311Y0021470D02*
X0018600Y0021470D01*
X0018600Y0022469D02*
X0018311Y0022469D01*
X0018180Y0023467D02*
X0018600Y0023467D01*
X0018600Y0024466D02*
X0017911Y0024466D01*
X0017911Y0025464D02*
X0018600Y0025464D01*
X0018600Y0026463D02*
X0017911Y0026463D01*
X0017681Y0027461D02*
X0018600Y0027461D01*
X0018600Y0028460D02*
X0017911Y0028460D01*
X0017911Y0029458D02*
X0018600Y0029458D01*
X0018600Y0030457D02*
X0017911Y0030457D01*
X0018063Y0031455D02*
X0018600Y0031455D01*
X0018600Y0032454D02*
X0018311Y0032454D01*
X0018600Y0033452D02*
X0010996Y0033452D01*
X0017579Y0039374D02*
X0017648Y0039443D01*
X0029040Y0039443D01*
X0029063Y0039419D01*
X0029600Y0039419D01*
X0029600Y0015713D01*
X0030713Y0014600D01*
X0046592Y0014600D01*
X0046931Y0013781D01*
X0048281Y0012431D01*
X0050045Y0011700D01*
X0051955Y0011700D01*
X0053500Y0012340D01*
X0053500Y0009788D01*
X0052719Y0010569D01*
X0050955Y0011300D01*
X0049045Y0011300D01*
X0047281Y0010569D01*
X0045931Y0009219D01*
X0045200Y0007455D01*
X0045200Y0005545D01*
X0045260Y0005400D01*
X0022400Y0005400D01*
X0022400Y0038193D01*
X0021287Y0039305D01*
X0017648Y0039305D01*
X0017579Y0039374D01*
X0018049Y0043243D02*
X0018209Y0043519D01*
X0018311Y0043901D01*
X0018311Y0045189D01*
X0010996Y0045189D01*
X0010996Y0045370D01*
X0018311Y0045370D01*
X0018311Y0046658D01*
X0018209Y0047040D01*
X0018049Y0047317D01*
X0033504Y0047317D01*
X0040787Y0054600D01*
X0046592Y0054600D01*
X0046931Y0053781D01*
X0048281Y0052431D01*
X0050045Y0051700D01*
X0051955Y0051700D01*
X0053500Y0052340D01*
X0053500Y0049788D01*
X0052719Y0050569D01*
X0050955Y0051300D01*
X0049045Y0051300D01*
X0047281Y0050569D01*
X0045931Y0049219D01*
X0045200Y0047455D01*
X0045200Y0045545D01*
X0045931Y0043781D01*
X0047281Y0042431D01*
X0049045Y0041700D01*
X0050955Y0041700D01*
X0052719Y0042431D01*
X0053500Y0043212D01*
X0053500Y0041062D01*
X0052996Y0041319D01*
X0052218Y0041572D01*
X0051500Y0041686D01*
X0051500Y0037000D01*
X0050500Y0037000D01*
X0050500Y0041686D01*
X0049782Y0041572D01*
X0049004Y0041319D01*
X0048275Y0040947D01*
X0047612Y0040466D01*
X0047034Y0039888D01*
X0046553Y0039225D01*
X0046181Y0038496D01*
X0045928Y0037718D01*
X0045814Y0037000D01*
X0050500Y0037000D01*
X0050500Y0036000D01*
X0051500Y0036000D01*
X0051500Y0031314D01*
X0052218Y0031428D01*
X0052996Y0031681D01*
X0053500Y0031938D01*
X0053500Y0029788D01*
X0052719Y0030569D01*
X0050955Y0031300D01*
X0049045Y0031300D01*
X0047281Y0030569D01*
X0045931Y0029219D01*
X0045200Y0027455D01*
X0045200Y0025545D01*
X0045931Y0023781D01*
X0047281Y0022431D01*
X0049045Y0021700D01*
X0050955Y0021700D01*
X0052719Y0022431D01*
X0053500Y0023212D01*
X0053500Y0020660D01*
X0051955Y0021300D01*
X0050045Y0021300D01*
X0048281Y0020569D01*
X0046931Y0019219D01*
X0046592Y0018400D01*
X0033400Y0018400D01*
X0033400Y0039419D01*
X0033937Y0039419D01*
X0034581Y0040063D01*
X0034581Y0044937D01*
X0033937Y0045581D01*
X0029063Y0045581D01*
X0028419Y0044937D01*
X0028419Y0043243D01*
X0018049Y0043243D01*
X0018161Y0043437D02*
X0028419Y0043437D01*
X0028419Y0044436D02*
X0018311Y0044436D01*
X0018311Y0045434D02*
X0028917Y0045434D01*
X0033619Y0047432D02*
X0045200Y0047432D01*
X0045604Y0048430D02*
X0034617Y0048430D01*
X0035616Y0049429D02*
X0046140Y0049429D01*
X0047139Y0050427D02*
X0036614Y0050427D01*
X0037613Y0051426D02*
X0053500Y0051426D01*
X0053500Y0050427D02*
X0052861Y0050427D01*
X0048297Y0052424D02*
X0038611Y0052424D01*
X0039610Y0053423D02*
X0047289Y0053423D01*
X0046666Y0054421D02*
X0040608Y0054421D01*
X0038100Y0057287D02*
X0031930Y0051117D01*
X0017648Y0051117D01*
X0017267Y0051498D01*
X0006500Y0051498D01*
X0006500Y0055591D01*
X0008453Y0055591D01*
X0008453Y0058575D01*
X0009421Y0058575D01*
X0009421Y0055591D01*
X0013071Y0055591D01*
X0013453Y0055693D01*
X0013795Y0055890D01*
X0014074Y0056170D01*
X0014272Y0056512D01*
X0014374Y0056893D01*
X0014374Y0058575D01*
X0009421Y0058575D01*
X0009421Y0059543D01*
X0014374Y0059543D01*
X0014374Y0060000D01*
X0047712Y0060000D01*
X0046931Y0059219D01*
X0046592Y0058400D01*
X0039213Y0058400D01*
X0038100Y0057287D01*
X0038230Y0057417D02*
X0014374Y0057417D01*
X0014374Y0058415D02*
X0046598Y0058415D01*
X0047125Y0059414D02*
X0009421Y0059414D01*
X0009421Y0058415D02*
X0008453Y0058415D01*
X0008453Y0057417D02*
X0009421Y0057417D01*
X0009421Y0056418D02*
X0008453Y0056418D01*
X0006500Y0055420D02*
X0036233Y0055420D01*
X0037231Y0056418D02*
X0014218Y0056418D01*
X0017339Y0051426D02*
X0032239Y0051426D01*
X0033237Y0052424D02*
X0006500Y0052424D01*
X0006500Y0053423D02*
X0034236Y0053423D01*
X0035234Y0054421D02*
X0006500Y0054421D01*
X0018311Y0046433D02*
X0045200Y0046433D01*
X0045246Y0045434D02*
X0034083Y0045434D01*
X0034581Y0044436D02*
X0045659Y0044436D01*
X0046274Y0043437D02*
X0034581Y0043437D01*
X0034581Y0042439D02*
X0047273Y0042439D01*
X0047588Y0040442D02*
X0034581Y0040442D01*
X0034581Y0041440D02*
X0049378Y0041440D01*
X0050500Y0041440D02*
X0051500Y0041440D01*
X0051500Y0040442D02*
X0050500Y0040442D01*
X0050500Y0039443D02*
X0051500Y0039443D01*
X0051500Y0038445D02*
X0050500Y0038445D01*
X0050500Y0037446D02*
X0051500Y0037446D01*
X0050500Y0036448D02*
X0033400Y0036448D01*
X0033400Y0035449D02*
X0045902Y0035449D01*
X0045928Y0035282D02*
X0046181Y0034504D01*
X0046553Y0033775D01*
X0047034Y0033112D01*
X0047612Y0032534D01*
X0048275Y0032053D01*
X0049004Y0031681D01*
X0049782Y0031428D01*
X0050500Y0031314D01*
X0050500Y0036000D01*
X0045814Y0036000D01*
X0045928Y0035282D01*
X0046208Y0034451D02*
X0033400Y0034451D01*
X0033400Y0033452D02*
X0046787Y0033452D01*
X0047722Y0032454D02*
X0033400Y0032454D01*
X0033400Y0031455D02*
X0049698Y0031455D01*
X0050500Y0031455D02*
X0051500Y0031455D01*
X0052302Y0031455D02*
X0053500Y0031455D01*
X0053500Y0030457D02*
X0052831Y0030457D01*
X0051500Y0032454D02*
X0050500Y0032454D01*
X0050500Y0033452D02*
X0051500Y0033452D01*
X0051500Y0034451D02*
X0050500Y0034451D01*
X0050500Y0035449D02*
X0051500Y0035449D01*
X0047169Y0030457D02*
X0033400Y0030457D01*
X0033400Y0029458D02*
X0046170Y0029458D01*
X0045616Y0028460D02*
X0033400Y0028460D01*
X0033400Y0027461D02*
X0045203Y0027461D01*
X0045200Y0026463D02*
X0033400Y0026463D01*
X0033400Y0025464D02*
X0045234Y0025464D01*
X0045647Y0024466D02*
X0033400Y0024466D01*
X0033400Y0023467D02*
X0046245Y0023467D01*
X0047243Y0022469D02*
X0033400Y0022469D01*
X0033400Y0021470D02*
X0053500Y0021470D01*
X0053500Y0022469D02*
X0052757Y0022469D01*
X0048184Y0020472D02*
X0033400Y0020472D01*
X0033400Y0019473D02*
X0047185Y0019473D01*
X0046622Y0018475D02*
X0033400Y0018475D01*
X0029600Y0018475D02*
X0022400Y0018475D01*
X0022400Y0019473D02*
X0029600Y0019473D01*
X0029600Y0020472D02*
X0022400Y0020472D01*
X0022400Y0021470D02*
X0029600Y0021470D01*
X0029600Y0022469D02*
X0022400Y0022469D01*
X0022400Y0023467D02*
X0029600Y0023467D01*
X0029600Y0024466D02*
X0022400Y0024466D01*
X0022400Y0025464D02*
X0029600Y0025464D01*
X0029600Y0026463D02*
X0022400Y0026463D01*
X0022400Y0027461D02*
X0029600Y0027461D01*
X0029600Y0028460D02*
X0022400Y0028460D01*
X0022400Y0029458D02*
X0029600Y0029458D01*
X0029600Y0030457D02*
X0022400Y0030457D01*
X0022400Y0031455D02*
X0029600Y0031455D01*
X0029600Y0032454D02*
X0022400Y0032454D01*
X0022400Y0033452D02*
X0029600Y0033452D01*
X0029600Y0034451D02*
X0022400Y0034451D01*
X0022400Y0035449D02*
X0029600Y0035449D01*
X0029600Y0036448D02*
X0022400Y0036448D01*
X0022400Y0037446D02*
X0029600Y0037446D01*
X0029600Y0038445D02*
X0022148Y0038445D01*
X0018600Y0035449D02*
X0018081Y0035449D01*
X0018311Y0034451D02*
X0018600Y0034451D01*
X0033400Y0037446D02*
X0045885Y0037446D01*
X0046164Y0038445D02*
X0033400Y0038445D01*
X0033961Y0039443D02*
X0046711Y0039443D01*
X0052622Y0041440D02*
X0053500Y0041440D01*
X0053500Y0042439D02*
X0052727Y0042439D01*
X0029600Y0017476D02*
X0022400Y0017476D01*
X0022400Y0016478D02*
X0029600Y0016478D01*
X0029834Y0015479D02*
X0022400Y0015479D01*
X0022400Y0014481D02*
X0046641Y0014481D01*
X0047230Y0013482D02*
X0022400Y0013482D01*
X0022400Y0012484D02*
X0048228Y0012484D01*
X0047198Y0010487D02*
X0022400Y0010487D01*
X0022400Y0009488D02*
X0046200Y0009488D01*
X0045629Y0008490D02*
X0022400Y0008490D01*
X0022400Y0007491D02*
X0045215Y0007491D01*
X0045200Y0006493D02*
X0022400Y0006493D01*
X0022400Y0005494D02*
X0045221Y0005494D01*
X0052802Y0010487D02*
X0053500Y0010487D01*
X0053500Y0011485D02*
X0022400Y0011485D01*
X0018600Y0010487D02*
X0006500Y0010487D01*
X0006500Y0009488D02*
X0018600Y0009488D01*
X0018600Y0008490D02*
X0006500Y0008490D01*
X0006500Y0007491D02*
X0018600Y0007491D01*
X0018600Y0006493D02*
X0014269Y0006493D01*
X0014374Y0005494D02*
X0018600Y0005494D01*
X0018600Y0004496D02*
X0014374Y0004496D01*
X0018600Y0003497D02*
X0009421Y0003497D01*
X0009421Y0004496D02*
X0008453Y0004496D01*
X0008453Y0005494D02*
X0009421Y0005494D01*
X0009421Y0006493D02*
X0008453Y0006493D01*
D14*
X0015000Y0009000D03*
X0027000Y0020500D03*
X0023600Y0037500D03*
X0023600Y0044300D03*
X0014500Y0054000D03*
X0042000Y0043000D03*
X0043000Y0053000D03*
X0046000Y0032500D03*
X0045500Y0011500D03*
D15*
X0031500Y0042500D03*
D16*
X0031500Y0041343D01*
X0031500Y0016500D01*
X0051000Y0016500D01*
X0050000Y0006500D02*
X0047000Y0003500D01*
X0020500Y0003500D01*
X0020500Y0037406D01*
X0010906Y0037406D01*
X0010906Y0041343D02*
X0031500Y0041343D01*
X0032717Y0049217D02*
X0040000Y0056500D01*
X0051000Y0056500D01*
X0032717Y0049217D02*
X0010906Y0049217D01*
M02*
