G75*
%MOIN*%
%OFA0B0*%
%FSLAX25Y25*%
%IPPOS*%
%LPD*%
%AMOC8*
5,1,8,0,0,1.08239X$1,22.5*
%
%ADD10C,0.00000*%
%ADD11C,0.00400*%
%ADD12C,0.00500*%
%ADD13C,0.00600*%
%ADD14R,0.02000X0.02000*%
%ADD15C,0.00800*%
%ADD16C,0.00100*%
D10*
X0020719Y0008571D02*
X0020719Y0087358D01*
X0020723Y0087700D01*
X0020736Y0088041D01*
X0020756Y0088382D01*
X0020785Y0088723D01*
X0020822Y0089063D01*
X0020867Y0089401D01*
X0020921Y0089739D01*
X0020982Y0090075D01*
X0021052Y0090410D01*
X0021130Y0090742D01*
X0021216Y0091073D01*
X0021309Y0091402D01*
X0021411Y0091728D01*
X0021521Y0092052D01*
X0021638Y0092373D01*
X0021763Y0092691D01*
X0021896Y0093006D01*
X0022036Y0093317D01*
X0022184Y0093626D01*
X0022339Y0093930D01*
X0022501Y0094231D01*
X0022671Y0094527D01*
X0022848Y0094820D01*
X0023032Y0095108D01*
X0023222Y0095392D01*
X0023420Y0095670D01*
X0023624Y0095944D01*
X0023835Y0096214D01*
X0024052Y0096477D01*
X0024276Y0096736D01*
X0024505Y0096989D01*
X0024741Y0097236D01*
X0024983Y0097478D01*
X0025230Y0097714D01*
X0025483Y0097943D01*
X0025742Y0098167D01*
X0026005Y0098384D01*
X0026275Y0098595D01*
X0026549Y0098799D01*
X0026827Y0098997D01*
X0027111Y0099187D01*
X0027399Y0099371D01*
X0027692Y0099548D01*
X0027988Y0099718D01*
X0028289Y0099880D01*
X0028593Y0100035D01*
X0028902Y0100183D01*
X0029213Y0100323D01*
X0029528Y0100456D01*
X0029846Y0100581D01*
X0030167Y0100698D01*
X0030491Y0100808D01*
X0030817Y0100910D01*
X0031146Y0101003D01*
X0031477Y0101089D01*
X0031809Y0101167D01*
X0032144Y0101237D01*
X0032480Y0101298D01*
X0032818Y0101352D01*
X0033156Y0101397D01*
X0033496Y0101434D01*
X0033837Y0101463D01*
X0034178Y0101483D01*
X0034519Y0101496D01*
X0034861Y0101500D01*
X0122691Y0101500D01*
X0123127Y0101495D01*
X0123562Y0101479D01*
X0123997Y0101453D01*
X0124431Y0101416D01*
X0124864Y0101369D01*
X0125296Y0101311D01*
X0125726Y0101243D01*
X0126155Y0101164D01*
X0126581Y0101075D01*
X0127005Y0100976D01*
X0127427Y0100867D01*
X0127846Y0100747D01*
X0128262Y0100618D01*
X0128675Y0100478D01*
X0129084Y0100328D01*
X0129489Y0100169D01*
X0129891Y0100000D01*
X0130288Y0099821D01*
X0130681Y0099633D01*
X0131069Y0099435D01*
X0131452Y0099228D01*
X0131830Y0099012D01*
X0132203Y0098786D01*
X0132571Y0098552D01*
X0132932Y0098309D01*
X0133288Y0098057D01*
X0133637Y0097797D01*
X0133980Y0097528D01*
X0134316Y0097251D01*
X0134646Y0096966D01*
X0134968Y0096673D01*
X0135284Y0096373D01*
X0135592Y0096065D01*
X0135892Y0095749D01*
X0136185Y0095427D01*
X0136470Y0095097D01*
X0136747Y0094761D01*
X0137016Y0094418D01*
X0137276Y0094069D01*
X0137528Y0093713D01*
X0137771Y0093352D01*
X0138005Y0092984D01*
X0138231Y0092611D01*
X0138447Y0092233D01*
X0138654Y0091850D01*
X0138852Y0091462D01*
X0139040Y0091069D01*
X0139219Y0090672D01*
X0139388Y0090270D01*
X0139547Y0089865D01*
X0139697Y0089456D01*
X0139837Y0089043D01*
X0139966Y0088627D01*
X0140086Y0088208D01*
X0140195Y0087786D01*
X0140294Y0087362D01*
X0140383Y0086936D01*
X0140462Y0086507D01*
X0140530Y0086077D01*
X0140588Y0085645D01*
X0140635Y0085212D01*
X0140672Y0084778D01*
X0140698Y0084343D01*
X0140714Y0083908D01*
X0140719Y0083472D01*
X0140719Y0015642D01*
X0140715Y0015300D01*
X0140702Y0014959D01*
X0140682Y0014618D01*
X0140653Y0014277D01*
X0140616Y0013937D01*
X0140571Y0013599D01*
X0140517Y0013261D01*
X0140456Y0012925D01*
X0140386Y0012590D01*
X0140308Y0012258D01*
X0140222Y0011927D01*
X0140129Y0011598D01*
X0140027Y0011272D01*
X0139917Y0010948D01*
X0139800Y0010627D01*
X0139675Y0010309D01*
X0139542Y0009994D01*
X0139402Y0009683D01*
X0139254Y0009374D01*
X0139099Y0009070D01*
X0138937Y0008769D01*
X0138767Y0008473D01*
X0138590Y0008180D01*
X0138406Y0007892D01*
X0138216Y0007608D01*
X0138018Y0007330D01*
X0137814Y0007056D01*
X0137603Y0006786D01*
X0137386Y0006523D01*
X0137162Y0006264D01*
X0136933Y0006011D01*
X0136697Y0005764D01*
X0136455Y0005522D01*
X0136208Y0005286D01*
X0135955Y0005057D01*
X0135696Y0004833D01*
X0135433Y0004616D01*
X0135163Y0004405D01*
X0134889Y0004201D01*
X0134611Y0004003D01*
X0134327Y0003813D01*
X0134039Y0003629D01*
X0133746Y0003452D01*
X0133450Y0003282D01*
X0133149Y0003120D01*
X0132845Y0002965D01*
X0132536Y0002817D01*
X0132225Y0002677D01*
X0131910Y0002544D01*
X0131592Y0002419D01*
X0131271Y0002302D01*
X0130947Y0002192D01*
X0130621Y0002090D01*
X0130292Y0001997D01*
X0129961Y0001911D01*
X0129629Y0001833D01*
X0129294Y0001763D01*
X0128958Y0001702D01*
X0128620Y0001648D01*
X0128282Y0001603D01*
X0127942Y0001566D01*
X0127601Y0001537D01*
X0127260Y0001517D01*
X0126919Y0001504D01*
X0126577Y0001500D01*
X0027790Y0001500D01*
X0027619Y0001502D01*
X0027448Y0001508D01*
X0027278Y0001519D01*
X0027108Y0001533D01*
X0026938Y0001552D01*
X0026768Y0001574D01*
X0026600Y0001601D01*
X0026431Y0001632D01*
X0026264Y0001667D01*
X0026098Y0001705D01*
X0025932Y0001748D01*
X0025768Y0001795D01*
X0025605Y0001846D01*
X0025443Y0001901D01*
X0025283Y0001960D01*
X0025124Y0002022D01*
X0024966Y0002088D01*
X0024810Y0002158D01*
X0024656Y0002232D01*
X0024504Y0002310D01*
X0024354Y0002391D01*
X0024205Y0002476D01*
X0024059Y0002564D01*
X0023915Y0002656D01*
X0023773Y0002752D01*
X0023634Y0002850D01*
X0023497Y0002953D01*
X0023362Y0003058D01*
X0023230Y0003167D01*
X0023101Y0003278D01*
X0022975Y0003393D01*
X0022851Y0003511D01*
X0022730Y0003632D01*
X0022612Y0003756D01*
X0022497Y0003882D01*
X0022386Y0004011D01*
X0022277Y0004143D01*
X0022172Y0004278D01*
X0022069Y0004415D01*
X0021971Y0004554D01*
X0021875Y0004696D01*
X0021783Y0004840D01*
X0021695Y0004986D01*
X0021610Y0005135D01*
X0021529Y0005285D01*
X0021451Y0005437D01*
X0021377Y0005591D01*
X0021307Y0005747D01*
X0021241Y0005905D01*
X0021179Y0006064D01*
X0021120Y0006224D01*
X0021065Y0006386D01*
X0021014Y0006549D01*
X0020967Y0006713D01*
X0020924Y0006879D01*
X0020886Y0007045D01*
X0020851Y0007212D01*
X0020820Y0007381D01*
X0020793Y0007549D01*
X0020771Y0007719D01*
X0020752Y0007889D01*
X0020738Y0008059D01*
X0020727Y0008229D01*
X0020721Y0008400D01*
X0020719Y0008571D01*
D11*
X0085919Y0014200D02*
X0088221Y0014200D01*
X0088988Y0014967D01*
X0088988Y0018037D01*
X0088221Y0018804D01*
X0085919Y0018804D01*
X0085919Y0014200D01*
X0090523Y0014200D02*
X0093592Y0017269D01*
X0093592Y0018037D01*
X0092825Y0018804D01*
X0091290Y0018804D01*
X0090523Y0018037D01*
X0095127Y0016502D02*
X0098196Y0016502D01*
X0093592Y0014200D02*
X0090523Y0014200D01*
X0090523Y0024200D02*
X0093592Y0024200D01*
X0092058Y0024200D02*
X0092058Y0028804D01*
X0090523Y0027269D01*
X0088988Y0028037D02*
X0088221Y0028804D01*
X0085919Y0028804D01*
X0085919Y0024200D01*
X0088221Y0024200D01*
X0088988Y0024967D01*
X0088988Y0028037D01*
X0095127Y0026502D02*
X0098196Y0026502D01*
X0092825Y0034200D02*
X0091290Y0034200D01*
X0090523Y0034967D01*
X0093592Y0038037D01*
X0093592Y0034967D01*
X0092825Y0034200D01*
X0090523Y0034967D02*
X0090523Y0038037D01*
X0091290Y0038804D01*
X0092825Y0038804D01*
X0093592Y0038037D01*
X0095127Y0036502D02*
X0098196Y0036502D01*
X0088988Y0034967D02*
X0088988Y0038037D01*
X0088221Y0038804D01*
X0085919Y0038804D01*
X0085919Y0034200D01*
X0088221Y0034200D01*
X0088988Y0034967D01*
X0088988Y0044200D02*
X0088988Y0048804D01*
X0090523Y0048804D02*
X0092825Y0048804D01*
X0093592Y0048037D01*
X0093592Y0046502D01*
X0092825Y0045735D01*
X0090523Y0045735D01*
X0088988Y0046502D02*
X0085919Y0046502D01*
X0085919Y0044200D02*
X0085919Y0048804D01*
X0090523Y0048804D02*
X0090523Y0044200D01*
X0095127Y0044200D02*
X0097429Y0044200D01*
X0098196Y0044967D01*
X0098196Y0048037D01*
X0097429Y0048804D01*
X0095127Y0048804D01*
X0095127Y0044200D01*
X0095127Y0054200D02*
X0095127Y0057269D01*
X0096662Y0058804D01*
X0098196Y0057269D01*
X0098196Y0054200D01*
X0098196Y0056502D02*
X0095127Y0056502D01*
X0093592Y0058037D02*
X0092825Y0058804D01*
X0090523Y0058804D01*
X0090523Y0054200D01*
X0092825Y0054200D01*
X0093592Y0054967D01*
X0093592Y0058037D01*
X0088988Y0058037D02*
X0088221Y0058804D01*
X0086686Y0058804D01*
X0085919Y0058037D01*
X0085919Y0057269D01*
X0086686Y0056502D01*
X0088221Y0056502D01*
X0088988Y0055735D01*
X0088988Y0054967D01*
X0088221Y0054200D01*
X0086686Y0054200D01*
X0085919Y0054967D01*
X0086686Y0064200D02*
X0088221Y0064200D01*
X0088988Y0064967D01*
X0090523Y0064200D02*
X0090523Y0068804D01*
X0088988Y0068037D02*
X0088221Y0068804D01*
X0086686Y0068804D01*
X0085919Y0068037D01*
X0085919Y0064967D01*
X0086686Y0064200D01*
X0090523Y0065735D02*
X0093592Y0068804D01*
X0095127Y0066502D02*
X0098196Y0066502D01*
X0093592Y0064200D02*
X0091290Y0066502D01*
X0090523Y0074200D02*
X0090523Y0078804D01*
X0093592Y0074200D01*
X0093592Y0078804D01*
X0095127Y0078037D02*
X0095127Y0074967D01*
X0095894Y0074200D01*
X0097429Y0074200D01*
X0098196Y0074967D01*
X0098196Y0078037D02*
X0097429Y0078804D01*
X0095894Y0078804D01*
X0095127Y0078037D01*
X0096662Y0084200D02*
X0098196Y0085735D01*
X0098196Y0088804D01*
X0095127Y0088804D02*
X0095127Y0085735D01*
X0096662Y0084200D01*
X0093592Y0084967D02*
X0092825Y0084200D01*
X0091290Y0084200D01*
X0090523Y0084967D01*
X0090523Y0086502D02*
X0092058Y0087269D01*
X0092825Y0087269D01*
X0093592Y0086502D01*
X0093592Y0084967D01*
X0090523Y0086502D02*
X0090523Y0088804D01*
X0093592Y0088804D01*
X0123607Y0088037D02*
X0123607Y0084967D01*
X0124375Y0084200D01*
X0125909Y0084200D01*
X0126677Y0084967D01*
X0126677Y0086502D01*
X0125142Y0086502D01*
X0126677Y0088037D02*
X0125909Y0088804D01*
X0124375Y0088804D01*
X0123607Y0088037D01*
X0128211Y0088804D02*
X0131281Y0084200D01*
X0131281Y0088804D01*
X0132815Y0088804D02*
X0135117Y0088804D01*
X0135884Y0088037D01*
X0135884Y0084967D01*
X0135117Y0084200D01*
X0132815Y0084200D01*
X0132815Y0088804D01*
X0128211Y0088804D02*
X0128211Y0084200D01*
X0128211Y0078804D02*
X0131281Y0074200D01*
X0131281Y0078804D01*
X0132815Y0078804D02*
X0135117Y0078804D01*
X0135884Y0078037D01*
X0135884Y0074967D01*
X0135117Y0074200D01*
X0132815Y0074200D01*
X0132815Y0078804D01*
X0128211Y0078804D02*
X0128211Y0074200D01*
X0126677Y0074967D02*
X0126677Y0076502D01*
X0125142Y0076502D01*
X0123607Y0078037D02*
X0123607Y0074967D01*
X0124375Y0074200D01*
X0125909Y0074200D01*
X0126677Y0074967D01*
X0126677Y0078037D02*
X0125909Y0078804D01*
X0124375Y0078804D01*
X0123607Y0078037D01*
X0124375Y0068804D02*
X0123607Y0068037D01*
X0123607Y0064967D01*
X0124375Y0064200D01*
X0125909Y0064200D01*
X0126677Y0064967D01*
X0128211Y0064200D02*
X0128211Y0068804D01*
X0126677Y0068037D02*
X0125909Y0068804D01*
X0124375Y0068804D01*
X0128211Y0065735D02*
X0131281Y0068804D01*
X0134350Y0068037D02*
X0134350Y0064967D01*
X0132815Y0066502D02*
X0135884Y0066502D01*
X0131281Y0064200D02*
X0128979Y0066502D01*
X0128979Y0058804D02*
X0128211Y0058037D01*
X0128211Y0054967D01*
X0128979Y0054200D01*
X0130513Y0054200D01*
X0131281Y0054967D01*
X0132815Y0054200D02*
X0135884Y0054200D01*
X0132815Y0054200D02*
X0132815Y0058804D01*
X0131281Y0058037D02*
X0130513Y0058804D01*
X0128979Y0058804D01*
X0126677Y0058037D02*
X0125909Y0058804D01*
X0124375Y0058804D01*
X0123607Y0058037D01*
X0123607Y0057269D01*
X0124375Y0056502D01*
X0125909Y0056502D01*
X0126677Y0055735D01*
X0126677Y0054967D01*
X0125909Y0054200D01*
X0124375Y0054200D01*
X0123607Y0054967D01*
X0124375Y0048804D02*
X0123607Y0048037D01*
X0123607Y0044967D01*
X0124375Y0044200D01*
X0125909Y0044200D01*
X0126677Y0044967D01*
X0128211Y0044200D02*
X0131281Y0044200D01*
X0132815Y0044967D02*
X0133582Y0044200D01*
X0135117Y0044200D01*
X0135884Y0044967D01*
X0132815Y0044967D02*
X0132815Y0048037D01*
X0133582Y0048804D01*
X0135117Y0048804D01*
X0135884Y0048037D01*
X0131281Y0048804D02*
X0128211Y0048804D01*
X0128211Y0044200D01*
X0128211Y0046502D02*
X0129746Y0046502D01*
X0126677Y0048037D02*
X0125909Y0048804D01*
X0124375Y0048804D01*
X0123607Y0038804D02*
X0125909Y0038804D01*
X0126677Y0038037D01*
X0126677Y0034967D01*
X0125909Y0034200D01*
X0123607Y0034200D01*
X0123607Y0038804D01*
X0128211Y0038037D02*
X0128979Y0038804D01*
X0130513Y0038804D01*
X0131281Y0038037D01*
X0128211Y0034967D01*
X0128979Y0034200D01*
X0130513Y0034200D01*
X0131281Y0034967D01*
X0131281Y0038037D01*
X0134350Y0038037D02*
X0134350Y0034967D01*
X0132815Y0036502D02*
X0135884Y0036502D01*
X0128211Y0034967D02*
X0128211Y0038037D01*
X0129746Y0028804D02*
X0129746Y0024200D01*
X0128211Y0024200D02*
X0131281Y0024200D01*
X0134350Y0024967D02*
X0134350Y0028037D01*
X0132815Y0026502D02*
X0135884Y0026502D01*
X0129746Y0028804D02*
X0128211Y0027269D01*
X0126677Y0028037D02*
X0125909Y0028804D01*
X0123607Y0028804D01*
X0123607Y0024200D01*
X0125909Y0024200D01*
X0126677Y0024967D01*
X0126677Y0028037D01*
X0125909Y0018804D02*
X0123607Y0018804D01*
X0123607Y0014200D01*
X0125909Y0014200D01*
X0126677Y0014967D01*
X0126677Y0018037D01*
X0125909Y0018804D01*
X0128211Y0018037D02*
X0128979Y0018804D01*
X0130513Y0018804D01*
X0131281Y0018037D01*
X0131281Y0017269D01*
X0128211Y0014200D01*
X0131281Y0014200D01*
X0134350Y0014967D02*
X0134350Y0018037D01*
X0132815Y0016502D02*
X0135884Y0016502D01*
D12*
X0021192Y0005594D02*
X0021192Y0067406D01*
X0050719Y0067406D01*
X0050719Y0005594D01*
X0021192Y0005594D01*
D13*
X0100719Y0014000D02*
X0100719Y0019000D01*
X0103219Y0021500D01*
X0118219Y0021500D01*
X0120719Y0019000D01*
X0120719Y0014000D01*
X0118219Y0011500D01*
X0103219Y0011500D01*
X0100719Y0014000D01*
X0103219Y0021500D02*
X0100719Y0024000D01*
X0100719Y0029000D01*
X0103219Y0031500D01*
X0118219Y0031500D01*
X0120719Y0029000D01*
X0120719Y0024000D01*
X0118219Y0021500D01*
X0118219Y0031500D02*
X0120719Y0034000D01*
X0120719Y0039000D01*
X0118219Y0041500D01*
X0103219Y0041500D01*
X0100719Y0039000D01*
X0100719Y0034000D01*
X0103219Y0031500D01*
X0103219Y0041500D02*
X0100719Y0044000D01*
X0100719Y0049000D01*
X0103219Y0051500D01*
X0118219Y0051500D01*
X0120719Y0049000D01*
X0120719Y0044000D01*
X0118219Y0041500D01*
X0118219Y0051500D02*
X0120719Y0054000D01*
X0120719Y0059000D01*
X0118219Y0061500D01*
X0103219Y0061500D01*
X0100719Y0059000D01*
X0100719Y0054000D01*
X0103219Y0051500D01*
X0103219Y0061500D02*
X0100719Y0064000D01*
X0100719Y0069000D01*
X0103219Y0071500D01*
X0118219Y0071500D01*
X0120719Y0069000D01*
X0120719Y0064000D01*
X0118219Y0061500D01*
X0118219Y0071500D02*
X0120719Y0074000D01*
X0120719Y0079000D01*
X0118219Y0081500D01*
X0103219Y0081500D01*
X0100719Y0079000D01*
X0100719Y0074000D01*
X0103219Y0071500D01*
X0103219Y0081500D02*
X0100719Y0084000D01*
X0100719Y0089000D01*
X0103219Y0091500D01*
X0118219Y0091500D01*
X0120719Y0089000D01*
X0120719Y0084000D01*
X0118219Y0081500D01*
X0083896Y0088646D02*
X0083896Y0069354D01*
X0068542Y0069354D01*
X0068542Y0088646D01*
X0083896Y0088646D01*
D14*
X0105719Y0086500D03*
X0115719Y0086500D03*
X0115719Y0076500D03*
X0105719Y0076500D03*
X0105719Y0066500D03*
X0115719Y0066500D03*
X0115719Y0056500D03*
X0105719Y0056500D03*
X0105719Y0046500D03*
X0115719Y0046500D03*
X0115719Y0036500D03*
X0105719Y0036500D03*
X0105719Y0026500D03*
X0115719Y0026500D03*
X0115719Y0016500D03*
X0105719Y0016500D03*
D15*
X0065812Y0088843D02*
X0065814Y0088890D01*
X0065820Y0088937D01*
X0065830Y0088984D01*
X0065843Y0089029D01*
X0065861Y0089073D01*
X0065882Y0089115D01*
X0065906Y0089156D01*
X0065934Y0089194D01*
X0065965Y0089230D01*
X0065999Y0089263D01*
X0066035Y0089293D01*
X0066074Y0089320D01*
X0066115Y0089344D01*
X0066158Y0089364D01*
X0066202Y0089380D01*
X0066248Y0089393D01*
X0066294Y0089402D01*
X0066342Y0089407D01*
X0066389Y0089408D01*
X0066436Y0089405D01*
X0066483Y0089398D01*
X0066529Y0089387D01*
X0066574Y0089373D01*
X0066618Y0089354D01*
X0066659Y0089332D01*
X0066699Y0089307D01*
X0066737Y0089278D01*
X0066772Y0089247D01*
X0066805Y0089212D01*
X0066834Y0089175D01*
X0066860Y0089136D01*
X0066883Y0089094D01*
X0066902Y0089051D01*
X0066918Y0089006D01*
X0066930Y0088960D01*
X0066938Y0088914D01*
X0066942Y0088867D01*
X0066942Y0088819D01*
X0066938Y0088772D01*
X0066930Y0088726D01*
X0066918Y0088680D01*
X0066902Y0088635D01*
X0066883Y0088592D01*
X0066860Y0088550D01*
X0066834Y0088511D01*
X0066805Y0088474D01*
X0066772Y0088439D01*
X0066737Y0088408D01*
X0066699Y0088379D01*
X0066660Y0088354D01*
X0066618Y0088332D01*
X0066574Y0088313D01*
X0066529Y0088299D01*
X0066483Y0088288D01*
X0066436Y0088281D01*
X0066389Y0088278D01*
X0066342Y0088279D01*
X0066294Y0088284D01*
X0066248Y0088293D01*
X0066202Y0088306D01*
X0066158Y0088322D01*
X0066115Y0088342D01*
X0066074Y0088366D01*
X0066035Y0088393D01*
X0065999Y0088423D01*
X0065965Y0088456D01*
X0065934Y0088492D01*
X0065906Y0088530D01*
X0065882Y0088571D01*
X0065861Y0088613D01*
X0065843Y0088657D01*
X0065830Y0088702D01*
X0065820Y0088749D01*
X0065814Y0088796D01*
X0065812Y0088843D01*
D16*
X0072207Y0082515D02*
X0072457Y0082515D01*
X0072707Y0082264D01*
X0072707Y0081764D01*
X0072457Y0081514D01*
X0072207Y0081514D01*
X0071957Y0081764D01*
X0071957Y0082264D01*
X0072207Y0082515D01*
X0072707Y0082264D02*
X0072958Y0082515D01*
X0073208Y0082515D01*
X0073458Y0082264D01*
X0073458Y0081764D01*
X0073208Y0081514D01*
X0072958Y0081514D01*
X0072707Y0081764D01*
X0072207Y0081041D02*
X0071957Y0080791D01*
X0071957Y0080291D01*
X0072207Y0080040D01*
X0073208Y0080040D01*
X0073458Y0080291D01*
X0073458Y0080791D01*
X0073208Y0081041D01*
X0074207Y0080541D02*
X0076208Y0080541D01*
X0075958Y0080791D02*
X0075708Y0081041D01*
X0075458Y0081041D01*
X0075207Y0080791D01*
X0075207Y0080291D01*
X0074957Y0080040D01*
X0074707Y0080040D01*
X0074457Y0080291D01*
X0074457Y0080791D01*
X0074707Y0081041D01*
X0074707Y0081514D02*
X0074457Y0081764D01*
X0074457Y0082264D01*
X0074707Y0082515D01*
X0074957Y0082515D01*
X0075958Y0081514D01*
X0075958Y0082515D01*
X0075958Y0080791D02*
X0075958Y0080291D01*
X0075708Y0080040D01*
X0075708Y0079568D02*
X0074457Y0079568D01*
X0073458Y0079559D02*
X0073458Y0079058D01*
X0073458Y0079308D02*
X0071957Y0079308D01*
X0071957Y0079058D02*
X0071957Y0079559D01*
X0072207Y0078586D02*
X0071957Y0078336D01*
X0071957Y0077835D01*
X0072207Y0077585D01*
X0073208Y0077585D01*
X0073458Y0077835D01*
X0073458Y0078336D01*
X0073208Y0078586D01*
X0072207Y0078586D01*
X0072207Y0077113D02*
X0071957Y0076862D01*
X0071957Y0076362D01*
X0072207Y0076112D01*
X0072457Y0076112D01*
X0072707Y0076362D01*
X0072707Y0076862D01*
X0072958Y0077113D01*
X0073208Y0077113D01*
X0073458Y0076862D01*
X0073458Y0076362D01*
X0073208Y0076112D01*
X0072707Y0075639D02*
X0072707Y0074638D01*
X0071957Y0074166D02*
X0073458Y0074166D01*
X0073458Y0073165D02*
X0071957Y0073165D01*
X0072457Y0073666D01*
X0071957Y0074166D01*
X0072207Y0072693D02*
X0071957Y0072443D01*
X0071957Y0071942D01*
X0072207Y0071692D01*
X0073208Y0071692D01*
X0073458Y0071942D01*
X0073458Y0072443D01*
X0073208Y0072693D01*
X0072207Y0072693D01*
X0072207Y0071220D02*
X0072707Y0071220D01*
X0072958Y0070969D01*
X0072958Y0070219D01*
X0073458Y0070219D02*
X0071957Y0070219D01*
X0071957Y0070969D01*
X0072207Y0071220D01*
X0072958Y0070719D02*
X0073458Y0071220D01*
X0072707Y0069746D02*
X0072958Y0069496D01*
X0072958Y0068745D01*
X0073458Y0068745D02*
X0071957Y0068745D01*
X0071957Y0069496D01*
X0072207Y0069746D01*
X0072707Y0069746D01*
X0071957Y0068273D02*
X0071957Y0067272D01*
X0073458Y0067272D01*
X0073458Y0068273D01*
X0072707Y0067773D02*
X0072707Y0067272D01*
X0071957Y0066800D02*
X0071957Y0065799D01*
X0073458Y0065799D01*
X0073458Y0066800D01*
X0072707Y0066299D02*
X0072707Y0065799D01*
X0072207Y0065327D02*
X0071957Y0065076D01*
X0071957Y0064576D01*
X0072207Y0064326D01*
X0073208Y0064326D01*
X0073458Y0064576D01*
X0073458Y0065076D01*
X0073208Y0065327D01*
X0073458Y0063853D02*
X0073458Y0062852D01*
X0072457Y0063853D01*
X0072207Y0063853D01*
X0071957Y0063603D01*
X0071957Y0063103D01*
X0072207Y0062852D01*
X0071957Y0062371D02*
X0071957Y0061870D01*
X0071957Y0062121D02*
X0073458Y0062121D01*
X0073458Y0062371D02*
X0073458Y0061870D01*
X0074457Y0078567D02*
X0075708Y0078567D01*
X0075958Y0078817D01*
X0075958Y0079318D01*
X0075708Y0079568D01*
M02*
