G75*
%MOIN*%
%OFA0B0*%
%FSLAX25Y25*%
%IPPOS*%
%LPD*%
%AMOC8*
5,1,8,0,0,1.08239X$1,22.5*
%
%ADD10C,0.07677*%
%ADD11OC8,0.06400*%
%ADD12C,0.01000*%
%ADD13R,0.04000X0.04000*%
%ADD14R,0.03962X0.03962*%
D10*
X0031231Y0005594D03*
X0050719Y0007957D03*
X0050719Y0065043D03*
X0031231Y0067406D03*
D11*
X0105719Y0066500D03*
X0115719Y0066500D03*
X0115719Y0056500D03*
X0105719Y0056500D03*
X0105719Y0046500D03*
X0115719Y0046500D03*
X0115719Y0036500D03*
X0105719Y0036500D03*
X0105719Y0026500D03*
X0115719Y0026500D03*
X0115719Y0016500D03*
X0105719Y0016500D03*
X0105719Y0076500D03*
X0115719Y0076500D03*
X0115719Y0086500D03*
X0105719Y0086500D03*
D12*
X0022219Y0008571D02*
X0022326Y0007484D01*
X0023158Y0005476D01*
X0024695Y0003939D01*
X0026454Y0003210D01*
X0026283Y0003545D01*
X0026024Y0004344D01*
X0025905Y0005094D01*
X0030731Y0005094D01*
X0030731Y0006094D01*
X0025905Y0006094D01*
X0026024Y0006845D01*
X0026283Y0007644D01*
X0026665Y0008393D01*
X0027159Y0009072D01*
X0027753Y0009667D01*
X0028433Y0010160D01*
X0029182Y0010542D01*
X0029981Y0010802D01*
X0030731Y0010920D01*
X0030731Y0006095D01*
X0031731Y0006095D01*
X0031731Y0010920D01*
X0032481Y0010802D01*
X0033280Y0010542D01*
X0034029Y0010160D01*
X0034709Y0009667D01*
X0035303Y0009072D01*
X0035797Y0008393D01*
X0036178Y0007644D01*
X0036438Y0006845D01*
X0036557Y0006094D01*
X0031731Y0006094D01*
X0031731Y0005094D01*
X0036557Y0005094D01*
X0036438Y0004344D01*
X0036178Y0003545D01*
X0035901Y0003000D01*
X0048698Y0003000D01*
X0048670Y0003009D01*
X0047921Y0003391D01*
X0047241Y0003885D01*
X0046647Y0004479D01*
X0046153Y0005159D01*
X0045772Y0005907D01*
X0045512Y0006707D01*
X0045393Y0007457D01*
X0050219Y0007457D01*
X0050219Y0008457D01*
X0050219Y0013283D01*
X0049469Y0013164D01*
X0048670Y0012904D01*
X0047921Y0012523D01*
X0047241Y0012029D01*
X0046647Y0011435D01*
X0046153Y0010755D01*
X0045772Y0010006D01*
X0045512Y0009207D01*
X0045393Y0008457D01*
X0050219Y0008457D01*
X0051219Y0008457D01*
X0051219Y0013283D01*
X0051969Y0013164D01*
X0052768Y0012904D01*
X0053517Y0012523D01*
X0054197Y0012029D01*
X0054791Y0011435D01*
X0055285Y0010755D01*
X0055667Y0010006D01*
X0055926Y0009207D01*
X0056045Y0008457D01*
X0051219Y0008457D01*
X0051219Y0007457D01*
X0056045Y0007457D01*
X0055926Y0006707D01*
X0055667Y0005907D01*
X0055285Y0005159D01*
X0054791Y0004479D01*
X0054197Y0003885D01*
X0053517Y0003391D01*
X0052768Y0003009D01*
X0052740Y0003000D01*
X0126577Y0003000D01*
X0128227Y0003108D01*
X0131415Y0003962D01*
X0134273Y0005612D01*
X0136607Y0007946D01*
X0138257Y0010804D01*
X0139111Y0013992D01*
X0139219Y0015642D01*
X0139219Y0083472D01*
X0139078Y0085630D01*
X0137961Y0089797D01*
X0135804Y0093534D01*
X0132753Y0096585D01*
X0129016Y0098742D01*
X0124849Y0099859D01*
X0122691Y0100000D01*
X0034861Y0100000D01*
X0033211Y0099892D01*
X0030023Y0099038D01*
X0027165Y0097388D01*
X0024832Y0095054D01*
X0023181Y0092196D01*
X0022327Y0089008D01*
X0022219Y0087358D01*
X0022219Y0008571D01*
X0022227Y0008490D02*
X0026735Y0008490D01*
X0026234Y0007491D02*
X0022325Y0007491D01*
X0022737Y0006493D02*
X0025968Y0006493D01*
X0023151Y0005494D02*
X0030731Y0005494D01*
X0030731Y0006493D02*
X0031731Y0006493D01*
X0031731Y0007491D02*
X0030731Y0007491D01*
X0030731Y0008490D02*
X0031731Y0008490D01*
X0031731Y0009488D02*
X0030731Y0009488D01*
X0030731Y0010487D02*
X0031731Y0010487D01*
X0033389Y0010487D02*
X0046017Y0010487D01*
X0045603Y0009488D02*
X0034887Y0009488D01*
X0035726Y0008490D02*
X0045398Y0008490D01*
X0045582Y0006493D02*
X0036494Y0006493D01*
X0036228Y0007491D02*
X0050219Y0007491D01*
X0050219Y0008490D02*
X0051219Y0008490D01*
X0051219Y0009488D02*
X0050219Y0009488D01*
X0050219Y0010487D02*
X0051219Y0010487D01*
X0051219Y0011485D02*
X0050219Y0011485D01*
X0050219Y0012484D02*
X0051219Y0012484D01*
X0053571Y0012484D02*
X0103654Y0012484D01*
X0103938Y0012200D02*
X0107500Y0012200D01*
X0110019Y0014719D01*
X0110019Y0018281D01*
X0107500Y0020800D01*
X0103938Y0020800D01*
X0101419Y0018281D01*
X0101419Y0014719D01*
X0103938Y0012200D01*
X0102656Y0013482D02*
X0022219Y0013482D01*
X0022219Y0012484D02*
X0047867Y0012484D01*
X0046698Y0011485D02*
X0022219Y0011485D01*
X0022219Y0010487D02*
X0029073Y0010487D01*
X0027575Y0009488D02*
X0022219Y0009488D01*
X0024138Y0004496D02*
X0026000Y0004496D01*
X0025762Y0003497D02*
X0026308Y0003497D01*
X0031731Y0005494D02*
X0045982Y0005494D01*
X0046635Y0004496D02*
X0036462Y0004496D01*
X0036154Y0003497D02*
X0047775Y0003497D01*
X0051219Y0007491D02*
X0136152Y0007491D01*
X0136920Y0008490D02*
X0056040Y0008490D01*
X0055835Y0009488D02*
X0137497Y0009488D01*
X0138073Y0010487D02*
X0055422Y0010487D01*
X0054741Y0011485D02*
X0138439Y0011485D01*
X0138707Y0012484D02*
X0117784Y0012484D01*
X0117500Y0012200D02*
X0120019Y0014719D01*
X0120019Y0018281D01*
X0117500Y0020800D01*
X0113938Y0020800D01*
X0111419Y0018281D01*
X0111419Y0014719D01*
X0113938Y0012200D01*
X0117500Y0012200D01*
X0118782Y0013482D02*
X0138974Y0013482D01*
X0139143Y0014481D02*
X0119781Y0014481D01*
X0120019Y0015479D02*
X0139208Y0015479D01*
X0139219Y0016478D02*
X0120019Y0016478D01*
X0120019Y0017476D02*
X0139219Y0017476D01*
X0139219Y0018475D02*
X0119826Y0018475D01*
X0118827Y0019473D02*
X0139219Y0019473D01*
X0139219Y0020472D02*
X0117828Y0020472D01*
X0117500Y0022200D02*
X0113938Y0022200D01*
X0111419Y0024719D01*
X0111419Y0028281D01*
X0113938Y0030800D01*
X0117500Y0030800D01*
X0120019Y0028281D01*
X0120019Y0024719D01*
X0117500Y0022200D01*
X0117769Y0022469D02*
X0139219Y0022469D01*
X0139219Y0023467D02*
X0118767Y0023467D01*
X0119766Y0024466D02*
X0139219Y0024466D01*
X0139219Y0025464D02*
X0120019Y0025464D01*
X0120019Y0026463D02*
X0139219Y0026463D01*
X0139219Y0027461D02*
X0120019Y0027461D01*
X0119840Y0028460D02*
X0139219Y0028460D01*
X0139219Y0029458D02*
X0118842Y0029458D01*
X0117843Y0030457D02*
X0139219Y0030457D01*
X0139219Y0031455D02*
X0022219Y0031455D01*
X0022219Y0030457D02*
X0103595Y0030457D01*
X0103938Y0030800D02*
X0101419Y0028281D01*
X0101419Y0024719D01*
X0103938Y0022200D01*
X0107500Y0022200D01*
X0110019Y0024719D01*
X0110019Y0028281D01*
X0107500Y0030800D01*
X0103938Y0030800D01*
X0103938Y0032200D02*
X0107500Y0032200D01*
X0110019Y0034719D01*
X0110019Y0038281D01*
X0108400Y0039900D01*
X0112032Y0039900D01*
X0113749Y0040611D01*
X0111419Y0038281D01*
X0111419Y0034719D01*
X0113938Y0032200D01*
X0117500Y0032200D01*
X0120019Y0034719D01*
X0120019Y0038281D01*
X0117500Y0040800D01*
X0114205Y0040800D01*
X0114458Y0040905D01*
X0115753Y0042200D01*
X0117500Y0042200D01*
X0120019Y0044719D01*
X0120019Y0048281D01*
X0117500Y0050800D01*
X0114205Y0050800D01*
X0114458Y0050905D01*
X0115753Y0052200D01*
X0117500Y0052200D01*
X0120019Y0054719D01*
X0120019Y0058281D01*
X0117500Y0060800D01*
X0113938Y0060800D01*
X0111419Y0058281D01*
X0111419Y0054719D01*
X0112507Y0053631D01*
X0111382Y0053165D01*
X0110719Y0053100D01*
X0108400Y0053100D01*
X0110019Y0054719D01*
X0110019Y0058281D01*
X0107500Y0060800D01*
X0103938Y0060800D01*
X0101419Y0058281D01*
X0101419Y0058100D01*
X0083800Y0058100D01*
X0083800Y0058937D01*
X0083156Y0059581D01*
X0078282Y0059581D01*
X0077638Y0058937D01*
X0077638Y0054063D01*
X0078282Y0053419D01*
X0083156Y0053419D01*
X0083800Y0054063D01*
X0083800Y0054900D01*
X0101419Y0054900D01*
X0101419Y0054719D01*
X0103038Y0053100D01*
X0098487Y0053100D01*
X0096352Y0051867D01*
X0095119Y0049733D01*
X0095119Y0048500D01*
X0095071Y0048138D01*
X0094709Y0047510D01*
X0094081Y0047148D01*
X0093719Y0047100D01*
X0082819Y0047100D01*
X0082819Y0047956D01*
X0082175Y0048600D01*
X0077544Y0048600D01*
X0077365Y0049032D01*
X0077319Y0049500D01*
X0077319Y0063419D01*
X0078156Y0063419D01*
X0078800Y0064063D01*
X0078800Y0068937D01*
X0078156Y0069581D01*
X0073282Y0069581D01*
X0072638Y0068937D01*
X0072638Y0064063D01*
X0073282Y0063419D01*
X0074119Y0063419D01*
X0074119Y0048386D01*
X0074972Y0046328D01*
X0076547Y0044753D01*
X0076547Y0044753D01*
X0076619Y0044723D01*
X0076619Y0043100D01*
X0048819Y0043100D01*
X0048819Y0043956D01*
X0048175Y0044600D01*
X0043263Y0044600D01*
X0042619Y0043956D01*
X0042619Y0039044D01*
X0043263Y0038400D01*
X0048175Y0038400D01*
X0048819Y0039044D01*
X0048819Y0039900D01*
X0103038Y0039900D01*
X0101419Y0038281D01*
X0101419Y0034719D01*
X0103938Y0032200D01*
X0103684Y0032454D02*
X0022219Y0032454D01*
X0022219Y0033452D02*
X0102686Y0033452D01*
X0101687Y0034451D02*
X0022219Y0034451D01*
X0022219Y0035449D02*
X0101419Y0035449D01*
X0101419Y0036448D02*
X0022219Y0036448D01*
X0022219Y0037446D02*
X0101419Y0037446D01*
X0101583Y0038445D02*
X0048220Y0038445D01*
X0048819Y0039443D02*
X0102581Y0039443D01*
X0108857Y0039443D02*
X0112581Y0039443D01*
X0113340Y0040442D02*
X0113580Y0040442D01*
X0114458Y0040905D02*
X0114458Y0040905D01*
X0114993Y0041440D02*
X0139219Y0041440D01*
X0139219Y0040442D02*
X0117858Y0040442D01*
X0118857Y0039443D02*
X0139219Y0039443D01*
X0139219Y0038445D02*
X0119855Y0038445D01*
X0120019Y0037446D02*
X0139219Y0037446D01*
X0139219Y0036448D02*
X0120019Y0036448D01*
X0120019Y0035449D02*
X0139219Y0035449D01*
X0139219Y0034451D02*
X0119751Y0034451D01*
X0118753Y0033452D02*
X0139219Y0033452D01*
X0139219Y0032454D02*
X0117754Y0032454D01*
X0113684Y0032454D02*
X0107754Y0032454D01*
X0108753Y0033452D02*
X0112686Y0033452D01*
X0111687Y0034451D02*
X0109751Y0034451D01*
X0110019Y0035449D02*
X0111419Y0035449D01*
X0111419Y0036448D02*
X0110019Y0036448D01*
X0110019Y0037446D02*
X0111419Y0037446D01*
X0111583Y0038445D02*
X0109855Y0038445D01*
X0110719Y0041500D02*
X0045719Y0041500D01*
X0042619Y0041440D02*
X0022219Y0041440D01*
X0022219Y0040442D02*
X0042619Y0040442D01*
X0042619Y0039443D02*
X0022219Y0039443D01*
X0022219Y0038445D02*
X0043219Y0038445D01*
X0042619Y0042439D02*
X0022219Y0042439D01*
X0022219Y0043437D02*
X0042619Y0043437D01*
X0043099Y0044436D02*
X0022219Y0044436D01*
X0022219Y0045434D02*
X0075865Y0045434D01*
X0076619Y0044436D02*
X0048339Y0044436D01*
X0048819Y0043437D02*
X0076619Y0043437D01*
X0074972Y0046328D02*
X0074972Y0046328D01*
X0074928Y0046433D02*
X0022219Y0046433D01*
X0022219Y0047432D02*
X0074515Y0047432D01*
X0074119Y0048430D02*
X0022219Y0048430D01*
X0022219Y0049429D02*
X0074119Y0049429D01*
X0074119Y0050427D02*
X0022219Y0050427D01*
X0022219Y0051426D02*
X0074119Y0051426D01*
X0074119Y0052424D02*
X0022219Y0052424D01*
X0022219Y0053423D02*
X0074119Y0053423D01*
X0074119Y0054421D02*
X0022219Y0054421D01*
X0022219Y0055420D02*
X0074119Y0055420D01*
X0074119Y0056418D02*
X0022219Y0056418D01*
X0022219Y0057417D02*
X0074119Y0057417D01*
X0074119Y0058415D02*
X0022219Y0058415D01*
X0022219Y0059414D02*
X0074119Y0059414D01*
X0074119Y0060412D02*
X0053389Y0060412D01*
X0053517Y0060477D02*
X0054197Y0060971D01*
X0054791Y0061565D01*
X0055285Y0062245D01*
X0055667Y0062994D01*
X0055926Y0063793D01*
X0056045Y0064543D01*
X0051219Y0064543D01*
X0051219Y0059717D01*
X0051969Y0059836D01*
X0052768Y0060096D01*
X0053517Y0060477D01*
X0054636Y0061411D02*
X0074119Y0061411D01*
X0074119Y0062409D02*
X0055369Y0062409D01*
X0055801Y0063408D02*
X0074119Y0063408D01*
X0072638Y0064406D02*
X0056023Y0064406D01*
X0056045Y0065543D02*
X0055926Y0066293D01*
X0055667Y0067093D01*
X0055285Y0067841D01*
X0054791Y0068521D01*
X0054197Y0069115D01*
X0053517Y0069609D01*
X0052768Y0069991D01*
X0051969Y0070250D01*
X0051219Y0070369D01*
X0051219Y0065543D01*
X0056045Y0065543D01*
X0055891Y0066403D02*
X0072638Y0066403D01*
X0072638Y0065405D02*
X0051219Y0065405D01*
X0051219Y0065543D02*
X0051219Y0064543D01*
X0050219Y0064543D01*
X0050219Y0059717D01*
X0049469Y0059836D01*
X0048670Y0060096D01*
X0047921Y0060477D01*
X0047241Y0060971D01*
X0046647Y0061565D01*
X0046153Y0062245D01*
X0045772Y0062994D01*
X0045512Y0063793D01*
X0045393Y0064543D01*
X0050219Y0064543D01*
X0050219Y0065543D01*
X0045393Y0065543D01*
X0045512Y0066293D01*
X0045772Y0067093D01*
X0046153Y0067841D01*
X0046647Y0068521D01*
X0047241Y0069115D01*
X0047921Y0069609D01*
X0048670Y0069991D01*
X0049469Y0070250D01*
X0050219Y0070369D01*
X0050219Y0065543D01*
X0051219Y0065543D01*
X0051219Y0066403D02*
X0050219Y0066403D01*
X0050219Y0065405D02*
X0036194Y0065405D01*
X0036178Y0065356D02*
X0036438Y0066155D01*
X0036557Y0066906D01*
X0031731Y0066906D01*
X0031731Y0067905D01*
X0036557Y0067905D01*
X0036438Y0068656D01*
X0036178Y0069455D01*
X0035797Y0070204D01*
X0035303Y0070883D01*
X0034709Y0071478D01*
X0034029Y0071971D01*
X0033280Y0072353D01*
X0032481Y0072613D01*
X0031731Y0072731D01*
X0031731Y0067906D01*
X0030731Y0067906D01*
X0030731Y0072731D01*
X0029981Y0072613D01*
X0029182Y0072353D01*
X0028433Y0071971D01*
X0027753Y0071478D01*
X0027159Y0070883D01*
X0026665Y0070204D01*
X0026283Y0069455D01*
X0026024Y0068656D01*
X0025905Y0067905D01*
X0030731Y0067905D01*
X0030731Y0066906D01*
X0025905Y0066906D01*
X0026024Y0066155D01*
X0026283Y0065356D01*
X0026665Y0064607D01*
X0027159Y0063928D01*
X0027753Y0063333D01*
X0028433Y0062840D01*
X0029182Y0062458D01*
X0029981Y0062198D01*
X0030731Y0062080D01*
X0030731Y0066905D01*
X0031731Y0066905D01*
X0031731Y0062080D01*
X0032481Y0062198D01*
X0033280Y0062458D01*
X0034029Y0062840D01*
X0034709Y0063333D01*
X0035303Y0063928D01*
X0035797Y0064607D01*
X0036178Y0065356D01*
X0035651Y0064406D02*
X0045415Y0064406D01*
X0045637Y0063408D02*
X0034783Y0063408D01*
X0033130Y0062409D02*
X0046070Y0062409D01*
X0046802Y0061411D02*
X0022219Y0061411D01*
X0022219Y0062409D02*
X0029332Y0062409D01*
X0030731Y0062409D02*
X0031731Y0062409D01*
X0031731Y0063408D02*
X0030731Y0063408D01*
X0030731Y0064406D02*
X0031731Y0064406D01*
X0031731Y0065405D02*
X0030731Y0065405D01*
X0030731Y0066403D02*
X0031731Y0066403D01*
X0031731Y0067402D02*
X0045929Y0067402D01*
X0045548Y0066403D02*
X0036477Y0066403D01*
X0036478Y0068400D02*
X0046559Y0068400D01*
X0047631Y0069399D02*
X0036197Y0069399D01*
X0035656Y0070397D02*
X0103535Y0070397D01*
X0103938Y0070800D02*
X0101419Y0068281D01*
X0101419Y0064719D01*
X0103938Y0062200D01*
X0107500Y0062200D01*
X0110019Y0064719D01*
X0110019Y0068281D01*
X0107500Y0070800D01*
X0103938Y0070800D01*
X0103938Y0072200D02*
X0107500Y0072200D01*
X0110019Y0074719D01*
X0110019Y0078281D01*
X0107500Y0080800D01*
X0103938Y0080800D01*
X0101419Y0078281D01*
X0101419Y0074719D01*
X0103938Y0072200D01*
X0103744Y0072394D02*
X0033153Y0072394D01*
X0031731Y0072394D02*
X0030731Y0072394D01*
X0030731Y0071396D02*
X0031731Y0071396D01*
X0031731Y0070397D02*
X0030731Y0070397D01*
X0030731Y0069399D02*
X0031731Y0069399D01*
X0031731Y0068400D02*
X0030731Y0068400D01*
X0030731Y0067402D02*
X0022219Y0067402D01*
X0022219Y0068400D02*
X0025983Y0068400D01*
X0026265Y0069399D02*
X0022219Y0069399D01*
X0022219Y0070397D02*
X0026806Y0070397D01*
X0027671Y0071396D02*
X0022219Y0071396D01*
X0022219Y0072394D02*
X0029309Y0072394D01*
X0034791Y0071396D02*
X0139219Y0071396D01*
X0139219Y0072394D02*
X0118260Y0072394D01*
X0117666Y0071800D02*
X0120419Y0074553D01*
X0120419Y0076000D01*
X0116219Y0076000D01*
X0116219Y0071800D01*
X0117666Y0071800D01*
X0117500Y0070800D02*
X0113938Y0070800D01*
X0111419Y0068281D01*
X0111419Y0064719D01*
X0113938Y0062200D01*
X0117500Y0062200D01*
X0120019Y0064719D01*
X0120019Y0068281D01*
X0117500Y0070800D01*
X0117903Y0070397D02*
X0139219Y0070397D01*
X0139219Y0069399D02*
X0118901Y0069399D01*
X0119900Y0068400D02*
X0139219Y0068400D01*
X0139219Y0067402D02*
X0120019Y0067402D01*
X0120019Y0066403D02*
X0139219Y0066403D01*
X0139219Y0065405D02*
X0120019Y0065405D01*
X0119706Y0064406D02*
X0139219Y0064406D01*
X0139219Y0063408D02*
X0118708Y0063408D01*
X0117709Y0062409D02*
X0139219Y0062409D01*
X0139219Y0061411D02*
X0077319Y0061411D01*
X0077319Y0062409D02*
X0103729Y0062409D01*
X0102730Y0063408D02*
X0077319Y0063408D01*
X0078800Y0064406D02*
X0101732Y0064406D01*
X0101419Y0065405D02*
X0078800Y0065405D01*
X0078800Y0066403D02*
X0101419Y0066403D01*
X0101419Y0067402D02*
X0078800Y0067402D01*
X0078800Y0068400D02*
X0101538Y0068400D01*
X0102537Y0069399D02*
X0078338Y0069399D01*
X0075719Y0066500D02*
X0075719Y0049500D01*
X0077326Y0049429D02*
X0095119Y0049429D01*
X0095110Y0048430D02*
X0082345Y0048430D01*
X0082819Y0047432D02*
X0094573Y0047432D01*
X0093719Y0045500D02*
X0093826Y0045502D01*
X0093933Y0045508D01*
X0094040Y0045517D01*
X0094146Y0045531D01*
X0094252Y0045548D01*
X0094357Y0045569D01*
X0094461Y0045593D01*
X0094564Y0045622D01*
X0094666Y0045654D01*
X0094767Y0045689D01*
X0094867Y0045728D01*
X0094965Y0045771D01*
X0095062Y0045817D01*
X0095157Y0045867D01*
X0095250Y0045920D01*
X0095341Y0045976D01*
X0095430Y0046036D01*
X0095517Y0046098D01*
X0095601Y0046164D01*
X0095684Y0046233D01*
X0095763Y0046304D01*
X0095840Y0046379D01*
X0095915Y0046456D01*
X0095986Y0046535D01*
X0096055Y0046618D01*
X0096121Y0046702D01*
X0096183Y0046789D01*
X0096243Y0046878D01*
X0096299Y0046969D01*
X0096352Y0047062D01*
X0096402Y0047157D01*
X0096448Y0047254D01*
X0096491Y0047352D01*
X0096530Y0047452D01*
X0096565Y0047553D01*
X0096597Y0047655D01*
X0096626Y0047758D01*
X0096650Y0047862D01*
X0096671Y0047967D01*
X0096688Y0048073D01*
X0096702Y0048179D01*
X0096711Y0048286D01*
X0096717Y0048393D01*
X0096719Y0048500D01*
X0096721Y0048607D01*
X0096727Y0048714D01*
X0096736Y0048821D01*
X0096750Y0048927D01*
X0096767Y0049033D01*
X0096788Y0049138D01*
X0096812Y0049242D01*
X0096841Y0049345D01*
X0096873Y0049447D01*
X0096908Y0049548D01*
X0096947Y0049648D01*
X0096990Y0049746D01*
X0097036Y0049843D01*
X0097086Y0049938D01*
X0097139Y0050031D01*
X0097195Y0050122D01*
X0097255Y0050211D01*
X0097317Y0050298D01*
X0097383Y0050382D01*
X0097452Y0050465D01*
X0097523Y0050544D01*
X0097598Y0050621D01*
X0097675Y0050696D01*
X0097754Y0050767D01*
X0097837Y0050836D01*
X0097921Y0050902D01*
X0098008Y0050964D01*
X0098097Y0051024D01*
X0098188Y0051080D01*
X0098281Y0051133D01*
X0098376Y0051183D01*
X0098473Y0051229D01*
X0098571Y0051272D01*
X0098671Y0051311D01*
X0098772Y0051346D01*
X0098874Y0051378D01*
X0098977Y0051407D01*
X0099081Y0051431D01*
X0099186Y0051452D01*
X0099292Y0051469D01*
X0099398Y0051483D01*
X0099505Y0051492D01*
X0099612Y0051498D01*
X0099719Y0051500D01*
X0110719Y0051500D01*
X0112004Y0053423D02*
X0108723Y0053423D01*
X0109721Y0054421D02*
X0111717Y0054421D01*
X0111419Y0055420D02*
X0110019Y0055420D01*
X0110019Y0056418D02*
X0111419Y0056418D01*
X0115719Y0056500D02*
X0115717Y0056360D01*
X0115711Y0056220D01*
X0115701Y0056080D01*
X0115688Y0055940D01*
X0115670Y0055801D01*
X0115648Y0055662D01*
X0115623Y0055525D01*
X0115594Y0055387D01*
X0115561Y0055251D01*
X0115524Y0055116D01*
X0115483Y0054982D01*
X0115438Y0054849D01*
X0115390Y0054717D01*
X0115338Y0054587D01*
X0115283Y0054458D01*
X0115224Y0054331D01*
X0115161Y0054205D01*
X0115095Y0054081D01*
X0115026Y0053960D01*
X0114953Y0053840D01*
X0114876Y0053722D01*
X0114797Y0053607D01*
X0114714Y0053493D01*
X0114628Y0053383D01*
X0114539Y0053274D01*
X0114447Y0053168D01*
X0114352Y0053065D01*
X0114255Y0052964D01*
X0114154Y0052867D01*
X0114051Y0052772D01*
X0113945Y0052680D01*
X0113836Y0052591D01*
X0113726Y0052505D01*
X0113612Y0052422D01*
X0113497Y0052343D01*
X0113379Y0052266D01*
X0113259Y0052193D01*
X0113138Y0052124D01*
X0113014Y0052058D01*
X0112888Y0051995D01*
X0112761Y0051936D01*
X0112632Y0051881D01*
X0112502Y0051829D01*
X0112370Y0051781D01*
X0112237Y0051736D01*
X0112103Y0051695D01*
X0111968Y0051658D01*
X0111832Y0051625D01*
X0111694Y0051596D01*
X0111557Y0051571D01*
X0111418Y0051549D01*
X0111279Y0051531D01*
X0111139Y0051518D01*
X0110999Y0051508D01*
X0110859Y0051502D01*
X0110719Y0051500D01*
X0114458Y0050905D02*
X0114458Y0050905D01*
X0114978Y0051426D02*
X0139219Y0051426D01*
X0139219Y0052424D02*
X0117724Y0052424D01*
X0118723Y0053423D02*
X0139219Y0053423D01*
X0139219Y0054421D02*
X0119721Y0054421D01*
X0120019Y0055420D02*
X0139219Y0055420D01*
X0139219Y0056418D02*
X0120019Y0056418D01*
X0120019Y0057417D02*
X0139219Y0057417D01*
X0139219Y0058415D02*
X0119885Y0058415D01*
X0118887Y0059414D02*
X0139219Y0059414D01*
X0139219Y0060412D02*
X0117888Y0060412D01*
X0113550Y0060412D02*
X0107888Y0060412D01*
X0108887Y0059414D02*
X0112552Y0059414D01*
X0111553Y0058415D02*
X0109885Y0058415D01*
X0110019Y0057417D02*
X0111419Y0057417D01*
X0105719Y0056500D02*
X0080719Y0056500D01*
X0077638Y0056418D02*
X0077319Y0056418D01*
X0077319Y0055420D02*
X0077638Y0055420D01*
X0077638Y0054421D02*
X0077319Y0054421D01*
X0077319Y0053423D02*
X0078279Y0053423D01*
X0077319Y0052424D02*
X0097316Y0052424D01*
X0096352Y0051867D02*
X0096352Y0051867D01*
X0096352Y0051867D01*
X0096097Y0051426D02*
X0077319Y0051426D01*
X0077319Y0050427D02*
X0095520Y0050427D01*
X0093719Y0045500D02*
X0079719Y0045500D01*
X0079593Y0045502D01*
X0079468Y0045508D01*
X0079343Y0045518D01*
X0079218Y0045532D01*
X0079093Y0045549D01*
X0078969Y0045571D01*
X0078846Y0045596D01*
X0078724Y0045626D01*
X0078603Y0045659D01*
X0078483Y0045696D01*
X0078364Y0045736D01*
X0078247Y0045781D01*
X0078130Y0045829D01*
X0078016Y0045881D01*
X0077903Y0045936D01*
X0077792Y0045995D01*
X0077683Y0046057D01*
X0077576Y0046123D01*
X0077471Y0046192D01*
X0077368Y0046264D01*
X0077267Y0046339D01*
X0077169Y0046418D01*
X0077074Y0046500D01*
X0076981Y0046584D01*
X0076891Y0046672D01*
X0076803Y0046762D01*
X0076719Y0046855D01*
X0076637Y0046950D01*
X0076558Y0047048D01*
X0076483Y0047149D01*
X0076411Y0047252D01*
X0076342Y0047357D01*
X0076276Y0047464D01*
X0076214Y0047573D01*
X0076155Y0047684D01*
X0076100Y0047797D01*
X0076048Y0047911D01*
X0076000Y0048028D01*
X0075955Y0048145D01*
X0075915Y0048264D01*
X0075878Y0048384D01*
X0075845Y0048505D01*
X0075815Y0048627D01*
X0075790Y0048750D01*
X0075768Y0048874D01*
X0075751Y0048999D01*
X0075737Y0049124D01*
X0075727Y0049249D01*
X0075721Y0049374D01*
X0075719Y0049500D01*
X0083160Y0053423D02*
X0102715Y0053423D01*
X0101717Y0054421D02*
X0083800Y0054421D01*
X0077638Y0057417D02*
X0077319Y0057417D01*
X0077319Y0058415D02*
X0077638Y0058415D01*
X0077319Y0059414D02*
X0078115Y0059414D01*
X0077319Y0060412D02*
X0103550Y0060412D01*
X0102552Y0059414D02*
X0083323Y0059414D01*
X0083800Y0058415D02*
X0101553Y0058415D01*
X0107709Y0062409D02*
X0113729Y0062409D01*
X0112730Y0063408D02*
X0108708Y0063408D01*
X0109706Y0064406D02*
X0111732Y0064406D01*
X0111419Y0065405D02*
X0110019Y0065405D01*
X0110019Y0066403D02*
X0111419Y0066403D01*
X0111419Y0067402D02*
X0110019Y0067402D01*
X0109900Y0068400D02*
X0111538Y0068400D01*
X0112537Y0069399D02*
X0108901Y0069399D01*
X0107903Y0070397D02*
X0113535Y0070397D01*
X0113772Y0071800D02*
X0111019Y0074553D01*
X0111019Y0076000D01*
X0115219Y0076000D01*
X0115219Y0077000D01*
X0111019Y0077000D01*
X0111019Y0078447D01*
X0113772Y0081200D01*
X0115219Y0081200D01*
X0115219Y0077000D01*
X0116219Y0077000D01*
X0116219Y0081200D01*
X0117666Y0081200D01*
X0120419Y0078447D01*
X0120419Y0077000D01*
X0116219Y0077000D01*
X0116219Y0076000D01*
X0115219Y0076000D01*
X0115219Y0071800D01*
X0113772Y0071800D01*
X0113178Y0072394D02*
X0107695Y0072394D01*
X0108693Y0073393D02*
X0112180Y0073393D01*
X0111181Y0074391D02*
X0109692Y0074391D01*
X0110019Y0075390D02*
X0111019Y0075390D01*
X0110019Y0076388D02*
X0115219Y0076388D01*
X0115219Y0075390D02*
X0116219Y0075390D01*
X0116219Y0076388D02*
X0139219Y0076388D01*
X0139219Y0075390D02*
X0120419Y0075390D01*
X0120257Y0074391D02*
X0139219Y0074391D01*
X0139219Y0073393D02*
X0119259Y0073393D01*
X0116219Y0073393D02*
X0115219Y0073393D01*
X0115219Y0074391D02*
X0116219Y0074391D01*
X0116219Y0072394D02*
X0115219Y0072394D01*
X0115219Y0077387D02*
X0116219Y0077387D01*
X0116219Y0078385D02*
X0115219Y0078385D01*
X0115219Y0079384D02*
X0116219Y0079384D01*
X0116219Y0080382D02*
X0115219Y0080382D01*
X0115219Y0081800D02*
X0115219Y0086000D01*
X0111019Y0086000D01*
X0111019Y0084553D01*
X0113772Y0081800D01*
X0115219Y0081800D01*
X0115219Y0082379D02*
X0116219Y0082379D01*
X0116219Y0081800D02*
X0117666Y0081800D01*
X0120419Y0084553D01*
X0120419Y0086000D01*
X0116219Y0086000D01*
X0116219Y0081800D01*
X0118245Y0082379D02*
X0139219Y0082379D01*
X0139219Y0081381D02*
X0022219Y0081381D01*
X0022219Y0082379D02*
X0103759Y0082379D01*
X0103938Y0082200D02*
X0107500Y0082200D01*
X0110019Y0084719D01*
X0110019Y0088281D01*
X0107500Y0090800D01*
X0103938Y0090800D01*
X0101419Y0088281D01*
X0101419Y0084719D01*
X0103938Y0082200D01*
X0102760Y0083378D02*
X0022219Y0083378D01*
X0022219Y0084376D02*
X0101762Y0084376D01*
X0101419Y0085375D02*
X0022219Y0085375D01*
X0022219Y0086373D02*
X0101419Y0086373D01*
X0101419Y0087372D02*
X0022220Y0087372D01*
X0022285Y0088370D02*
X0101509Y0088370D01*
X0102507Y0089369D02*
X0022424Y0089369D01*
X0022692Y0090368D02*
X0103506Y0090368D01*
X0107933Y0090368D02*
X0112940Y0090368D01*
X0113772Y0091200D02*
X0111019Y0088447D01*
X0111019Y0087000D01*
X0115219Y0087000D01*
X0115219Y0086000D01*
X0116219Y0086000D01*
X0116219Y0087000D01*
X0115219Y0087000D01*
X0115219Y0091200D01*
X0113772Y0091200D01*
X0115219Y0090368D02*
X0116219Y0090368D01*
X0116219Y0091200D02*
X0116219Y0087000D01*
X0120419Y0087000D01*
X0120419Y0088447D01*
X0117666Y0091200D01*
X0116219Y0091200D01*
X0118498Y0090368D02*
X0137632Y0090368D01*
X0138076Y0089369D02*
X0119497Y0089369D01*
X0120419Y0088370D02*
X0138343Y0088370D01*
X0138611Y0087372D02*
X0120419Y0087372D01*
X0120419Y0085375D02*
X0139094Y0085375D01*
X0139160Y0084376D02*
X0120242Y0084376D01*
X0119244Y0083378D02*
X0139219Y0083378D01*
X0138878Y0086373D02*
X0116219Y0086373D01*
X0116219Y0085375D02*
X0115219Y0085375D01*
X0115219Y0086373D02*
X0110019Y0086373D01*
X0110019Y0085375D02*
X0111019Y0085375D01*
X0111196Y0084376D02*
X0109677Y0084376D01*
X0108678Y0083378D02*
X0112194Y0083378D01*
X0113193Y0082379D02*
X0107680Y0082379D01*
X0107918Y0080382D02*
X0112955Y0080382D01*
X0111956Y0079384D02*
X0108916Y0079384D01*
X0109915Y0078385D02*
X0111019Y0078385D01*
X0111019Y0077387D02*
X0110019Y0077387D01*
X0103520Y0080382D02*
X0022219Y0080382D01*
X0022219Y0079384D02*
X0102522Y0079384D01*
X0101523Y0078385D02*
X0022219Y0078385D01*
X0022219Y0077387D02*
X0101419Y0077387D01*
X0101419Y0076388D02*
X0022219Y0076388D01*
X0022219Y0075390D02*
X0101419Y0075390D01*
X0101747Y0074391D02*
X0022219Y0074391D01*
X0022219Y0073393D02*
X0102745Y0073393D01*
X0118484Y0080382D02*
X0139219Y0080382D01*
X0139219Y0079384D02*
X0119482Y0079384D01*
X0120419Y0078385D02*
X0139219Y0078385D01*
X0139219Y0077387D02*
X0120419Y0077387D01*
X0116219Y0083378D02*
X0115219Y0083378D01*
X0115219Y0084376D02*
X0116219Y0084376D01*
X0116219Y0087372D02*
X0115219Y0087372D01*
X0115219Y0088370D02*
X0116219Y0088370D01*
X0116219Y0089369D02*
X0115219Y0089369D01*
X0111941Y0089369D02*
X0108931Y0089369D01*
X0109930Y0088370D02*
X0111019Y0088370D01*
X0111019Y0087372D02*
X0110019Y0087372D01*
X0131415Y0097357D02*
X0027135Y0097357D01*
X0026136Y0096359D02*
X0132979Y0096359D01*
X0133977Y0095360D02*
X0025138Y0095360D01*
X0024432Y0094362D02*
X0134976Y0094362D01*
X0135902Y0093363D02*
X0023855Y0093363D01*
X0023279Y0092365D02*
X0136479Y0092365D01*
X0137055Y0091366D02*
X0022959Y0091366D01*
X0028842Y0098356D02*
X0129685Y0098356D01*
X0126731Y0099354D02*
X0031204Y0099354D01*
X0050219Y0069399D02*
X0051219Y0069399D01*
X0051219Y0068400D02*
X0050219Y0068400D01*
X0050219Y0067402D02*
X0051219Y0067402D01*
X0054879Y0068400D02*
X0072638Y0068400D01*
X0072638Y0067402D02*
X0055509Y0067402D01*
X0053807Y0069399D02*
X0073100Y0069399D01*
X0051219Y0064406D02*
X0050219Y0064406D01*
X0050219Y0063408D02*
X0051219Y0063408D01*
X0051219Y0062409D02*
X0050219Y0062409D01*
X0050219Y0061411D02*
X0051219Y0061411D01*
X0051219Y0060412D02*
X0050219Y0060412D01*
X0048049Y0060412D02*
X0022219Y0060412D01*
X0022219Y0063408D02*
X0027679Y0063408D01*
X0026811Y0064406D02*
X0022219Y0064406D01*
X0022219Y0065405D02*
X0026268Y0065405D01*
X0025985Y0066403D02*
X0022219Y0066403D01*
X0022219Y0029458D02*
X0102596Y0029458D01*
X0101598Y0028460D02*
X0022219Y0028460D01*
X0022219Y0027461D02*
X0101419Y0027461D01*
X0101419Y0026463D02*
X0022219Y0026463D01*
X0022219Y0025464D02*
X0101419Y0025464D01*
X0101672Y0024466D02*
X0022219Y0024466D01*
X0022219Y0023467D02*
X0102671Y0023467D01*
X0103669Y0022469D02*
X0022219Y0022469D01*
X0022219Y0021470D02*
X0139219Y0021470D01*
X0113669Y0022469D02*
X0107769Y0022469D01*
X0108767Y0023467D02*
X0112671Y0023467D01*
X0111672Y0024466D02*
X0109766Y0024466D01*
X0110019Y0025464D02*
X0111419Y0025464D01*
X0111419Y0026463D02*
X0110019Y0026463D01*
X0110019Y0027461D02*
X0111419Y0027461D01*
X0111598Y0028460D02*
X0109840Y0028460D01*
X0108842Y0029458D02*
X0112596Y0029458D01*
X0113595Y0030457D02*
X0107843Y0030457D01*
X0107828Y0020472D02*
X0113610Y0020472D01*
X0112611Y0019473D02*
X0108827Y0019473D01*
X0109826Y0018475D02*
X0111613Y0018475D01*
X0111419Y0017476D02*
X0110019Y0017476D01*
X0110019Y0016478D02*
X0111419Y0016478D01*
X0111419Y0015479D02*
X0110019Y0015479D01*
X0109781Y0014481D02*
X0111657Y0014481D01*
X0112656Y0013482D02*
X0108782Y0013482D01*
X0107784Y0012484D02*
X0113654Y0012484D01*
X0101657Y0014481D02*
X0022219Y0014481D01*
X0022219Y0015479D02*
X0101419Y0015479D01*
X0101419Y0016478D02*
X0022219Y0016478D01*
X0022219Y0017476D02*
X0101419Y0017476D01*
X0101613Y0018475D02*
X0022219Y0018475D01*
X0022219Y0019473D02*
X0102611Y0019473D01*
X0103610Y0020472D02*
X0022219Y0020472D01*
X0053663Y0003497D02*
X0129678Y0003497D01*
X0132338Y0004496D02*
X0054803Y0004496D01*
X0055456Y0005494D02*
X0134068Y0005494D01*
X0135153Y0006493D02*
X0055857Y0006493D01*
X0117739Y0042439D02*
X0139219Y0042439D01*
X0139219Y0043437D02*
X0118738Y0043437D01*
X0119736Y0044436D02*
X0139219Y0044436D01*
X0139219Y0045434D02*
X0120019Y0045434D01*
X0120019Y0046433D02*
X0139219Y0046433D01*
X0139219Y0047432D02*
X0120019Y0047432D01*
X0119870Y0048430D02*
X0139219Y0048430D01*
X0139219Y0049429D02*
X0118872Y0049429D01*
X0117873Y0050427D02*
X0139219Y0050427D01*
X0115719Y0046500D02*
X0115717Y0046360D01*
X0115711Y0046220D01*
X0115701Y0046080D01*
X0115688Y0045940D01*
X0115670Y0045801D01*
X0115648Y0045662D01*
X0115623Y0045525D01*
X0115594Y0045387D01*
X0115561Y0045251D01*
X0115524Y0045116D01*
X0115483Y0044982D01*
X0115438Y0044849D01*
X0115390Y0044717D01*
X0115338Y0044587D01*
X0115283Y0044458D01*
X0115224Y0044331D01*
X0115161Y0044205D01*
X0115095Y0044081D01*
X0115026Y0043960D01*
X0114953Y0043840D01*
X0114876Y0043722D01*
X0114797Y0043607D01*
X0114714Y0043493D01*
X0114628Y0043383D01*
X0114539Y0043274D01*
X0114447Y0043168D01*
X0114352Y0043065D01*
X0114255Y0042964D01*
X0114154Y0042867D01*
X0114051Y0042772D01*
X0113945Y0042680D01*
X0113836Y0042591D01*
X0113726Y0042505D01*
X0113612Y0042422D01*
X0113497Y0042343D01*
X0113379Y0042266D01*
X0113259Y0042193D01*
X0113138Y0042124D01*
X0113014Y0042058D01*
X0112888Y0041995D01*
X0112761Y0041936D01*
X0112632Y0041881D01*
X0112502Y0041829D01*
X0112370Y0041781D01*
X0112237Y0041736D01*
X0112103Y0041695D01*
X0111968Y0041658D01*
X0111832Y0041625D01*
X0111694Y0041596D01*
X0111557Y0041571D01*
X0111418Y0041549D01*
X0111279Y0041531D01*
X0111139Y0041518D01*
X0110999Y0041508D01*
X0110859Y0041502D01*
X0110719Y0041500D01*
D13*
X0126719Y0037000D03*
X0079719Y0045500D03*
X0085719Y0061500D03*
X0066719Y0062000D03*
X0045719Y0041500D03*
X0125719Y0011500D03*
X0130219Y0082000D03*
D14*
X0080719Y0056500D03*
X0075719Y0066500D03*
M02*
